SplineFontDB: 3.2
FontName: MedieviaSansMono
FullName: Medievia Sans Mono
FamilyName: Medievia Sans Mono
Weight: Book
Copyright: Copyright (c) 2003 by Bitstream, Inc. All Rights Reserved.
Version: 2.00 June 15, 2004
ItalicAngle: 0
UnderlinePosition: -283
UnderlineWidth: 141
Ascent: 1556
Descent: 492
InvalidEm: 0
sfntRevision: 0x00020000
LayerCount: 2
Layer: 0 1 "Back" 1
Layer: 1 1 "Fore" 0
XUID: [1021 876 87769690 5342675]
StyleMap: 0x0040
FSType: 4
OS2Version: 1
OS2_WeightWidthSlopeOnly: 0
OS2_UseTypoMetrics: 0
CreationTime: 1050361371
ModificationTime: 1088117342
PfmFamily: 17
TTFWeight: 400
TTFWidth: 5
LineGap: 0
VLineGap: 0
Panose: 2 11 6 9 3 8 4 2 2 4
OS2TypoAscent: 1556
OS2TypoAOffset: 0
OS2TypoDescent: -492
OS2TypoDOffset: 0
OS2TypoLinegap: 410
OS2WinAscent: 1901
OS2WinAOffset: 0
OS2WinDescent: 483
OS2WinDOffset: 0
HheadAscent: 1901
HheadAOffset: 0
HheadDescent: -483
HheadDOffset: 0
OS2SubXSize: 1351
OS2SubYSize: 1228
OS2SubXOff: 0
OS2SubYOff: -446
OS2SupXSize: 1351
OS2SupYSize: 1228
OS2SupXOff: 0
OS2SupYOff: 595
OS2StrikeYSize: 141
OS2StrikeYPos: 614
OS2FamilyClass: 2050
OS2Vendor: 'Bits'
OS2CodePages: 00000001.00000000
OS2UnicodeRanges: 800000af.1000204a.00000000.00000000
DEI: 91125
TtTable: prep
PUSHW_2
 640
 277
PUSHB_3
 148
 93
 5
NPUSHW
 28
 277
 150
 3
 277
 128
 4
 276
 254
 3
 275
 254
 3
 274
 18
 3
 273
 254
 3
 272
 254
 3
 271
 154
 3
 270
 254
 3
 269
PUSHB_3
 235
 71
 5
NPUSHW
 37
 269
 125
 3
 268
 37
 3
 267
 50
 3
 266
 150
 3
 265
 254
 3
 264
 14
 3
 263
 254
 3
 262
 37
 3
 261
 254
 3
 260
 14
 3
 259
 37
 3
 258
 254
 3
 257
NPUSHB
 89
 254
 3
 254
 254
 3
 253
 125
 3
 252
 254
 3
 251
 254
 3
 250
 50
 3
 249
 187
 3
 248
 125
 3
 247
 246
 140
 5
 247
 254
 3
 247
 192
 4
 246
 245
 89
 5
 246
 140
 3
 246
 128
 4
 245
 244
 38
 5
 245
 89
 3
 245
 64
 4
 244
 38
 3
 243
 242
 47
 5
 243
 250
 3
 242
 47
 3
 241
 254
 3
 240
 254
 3
 239
 50
 3
 238
 20
 3
 237
 150
 3
 236
 235
 71
 5
 236
 254
 3
 236
PUSHW_1
 -47
NPUSHB
 255
 4

StartChar: .notdef
Encoding: 65536 -1 0
Width: 1233
Flags: W
LayerCount: 2
Fore
SplineSet
104 -362 m 1,0,-1
 104 1444 l 1,1,-1
 1128 1444 l 1,2,-1
 1128 -362 l 1,3,-1
 104 -362 l 1,0,-1
219 -248 m 1,4,-1
 1014 -248 l 1,5,-1
 1014 1329 l 1,6,-1
 219 1329 l 1,7,-1
 219 -248 l 1,4,-1
EndSplineSet
EndChar

StartChar: uni0001
Encoding: 1 1 1
Width: 1234
Flags: W
LayerCount: 2
Fore
SplineSet
617 -12 m 256,0,1
 387 -12 387 -12 224.5 150.5 c 128,-1,2
 62 313 62 313 62 543 c 256,3,4
 62 773 62 773 224.5 935.5 c 128,-1,5
 387 1098 387 1098 617 1098 c 256,6,7
 847 1098 847 1098 1009.5 935.5 c 128,-1,8
 1172 773 1172 773 1172 543 c 256,9,10
 1172 313 1172 313 1009.5 150.5 c 128,-1,11
 847 -12 847 -12 617 -12 c 256,0,1
617 93 m 0,12,13
 804 93 804 93 935.5 224.5 c 128,-1,14
 1067 356 1067 356 1067 543 c 0,15,16
 1067 729 1067 729 935.5 860.5 c 128,-1,17
 804 992 804 992 617 992 c 0,18,19
 431 992 431 992 299.5 860.5 c 128,-1,20
 168 729 168 729 168 543 c 0,21,22
 168 356 168 356 299.5 224.5 c 128,-1,23
 431 93 431 93 617 93 c 0,12,13
274 512 m 1,24,-1
 353 512 l 1,25,26
 405 296 405 296 617 296 c 256,27,28
 829 296 829 296 881 512 c 1,29,-1
 961 512 l 1,30,31
 939 360 939 360 846 271 c 128,-1,32
 753 182 753 182 617 182 c 256,33,34
 481 182 481 182 388 271.5 c 128,-1,35
 295 361 295 361 274 512 c 1,24,-1
441 631 m 256,36,37
 404 631 404 631 378.5 656.5 c 128,-1,38
 353 682 353 682 353 719 c 256,39,40
 353 756 353 756 378.5 781.5 c 128,-1,41
 404 807 404 807 441 807 c 256,42,43
 478 807 478 807 503.5 781.5 c 128,-1,44
 529 756 529 756 529 719 c 256,45,46
 529 682 529 682 503.5 656.5 c 128,-1,47
 478 631 478 631 441 631 c 256,36,37
793 631 m 0,48,49
 757 631 757 631 731 656.5 c 128,-1,50
 705 682 705 682 705 719 c 256,51,52
 705 756 705 756 731 781.5 c 128,-1,53
 757 807 757 807 793 807 c 0,54,55
 830 807 830 807 855.5 781.5 c 128,-1,56
 881 756 881 756 881 719 c 256,57,58
 881 682 881 682 855.5 656.5 c 128,-1,59
 830 631 830 631 793 631 c 0,48,49
EndSplineSet
EndChar

StartChar: uni0002
Encoding: 2 2 2
Width: 1234
Flags: W
LayerCount: 2
Fore
SplineSet
617 -12 m 0,0,1
 387 -12 387 -12 224.5 150.5 c 128,-1,2
 62 313 62 313 62 543 c 256,3,4
 62 773 62 773 224.5 935.5 c 128,-1,5
 387 1098 387 1098 617 1098 c 256,6,7
 847 1098 847 1098 1010 935.5 c 128,-1,8
 1173 773 1173 773 1173 543 c 256,9,10
 1173 313 1173 313 1010.5 150.5 c 128,-1,11
 848 -12 848 -12 617 -12 c 0,0,1
274 512 m 1,12,13
 295 361 295 361 388.5 271.5 c 128,-1,14
 482 182 482 182 617 182 c 0,15,16
 753 182 753 182 846 271 c 128,-1,17
 939 360 939 360 961 512 c 1,18,-1
 882 512 l 1,19,20
 830 296 830 296 617 296 c 0,21,22
 405 296 405 296 353 512 c 1,23,-1
 274 512 l 1,12,13
441 631 m 0,24,25
 478 631 478 631 503.5 656.5 c 128,-1,26
 529 682 529 682 529 719 c 256,27,28
 529 756 529 756 503.5 781.5 c 128,-1,29
 478 807 478 807 441 807 c 0,30,31
 405 807 405 807 379 781.5 c 128,-1,32
 353 756 353 756 353 719 c 256,33,34
 353 682 353 682 379 656.5 c 128,-1,35
 405 631 405 631 441 631 c 0,24,25
794 631 m 0,36,37
 830 631 830 631 856 656.5 c 128,-1,38
 882 682 882 682 882 719 c 256,39,40
 882 756 882 756 856 781.5 c 128,-1,41
 830 807 830 807 794 807 c 0,42,43
 757 807 757 807 731 781.5 c 128,-1,44
 705 756 705 756 705 719 c 256,45,46
 705 682 705 682 731 656.5 c 128,-1,47
 757 631 757 631 794 631 c 0,36,37
EndSplineSet
EndChar

StartChar: uni0003
Encoding: 3 3 3
Width: 1234
Flags: W
LayerCount: 2
Fore
SplineSet
617 0 m 1,0,1
 372 190 372 190 198.5 495 c 128,-1,2
 25 800 25 800 25 1041 c 0,3,4
 25 1238 25 1238 106.5 1359 c 128,-1,5
 188 1480 188 1480 321 1480 c 0,6,7
 516 1480 516 1480 617 1246 c 1,8,9
 719 1480 719 1480 913 1480 c 0,10,11
 1046 1480 1046 1480 1128 1359 c 128,-1,12
 1210 1238 1210 1238 1210 1041 c 0,13,14
 1210 800 1210 800 1035.5 494 c 128,-1,15
 861 188 861 188 617 0 c 1,0,1
EndSplineSet
EndChar

StartChar: uni0004
Encoding: 4 4 4
Width: 1234
Flags: W
LayerCount: 2
Fore
SplineSet
1209 740 m 1,0,1
 993 527 993 527 887 394.5 c 128,-1,2
 781 262 781 262 617 0 c 1,3,4
 453 263 453 263 348 394.5 c 128,-1,5
 243 526 243 526 25 740 c 1,6,7
 234 939 234 939 350 1083.5 c 128,-1,8
 466 1228 466 1228 617 1480 c 1,9,10
 768 1229 768 1229 884 1084 c 128,-1,11
 1000 939 1000 939 1209 740 c 1,0,1
EndSplineSet
EndChar

StartChar: uni0005
Encoding: 5 5 5
Width: 1234
Flags: W
LayerCount: 2
Fore
SplineSet
469 0 m 1,0,-1
 568 592 l 1,1,2
 449 407 449 407 304 407 c 0,3,4
 186 407 186 407 105.5 489.5 c 128,-1,5
 25 572 25 572 25 692 c 0,6,7
 25 807 25 807 98.5 884.5 c 128,-1,8
 172 962 172 962 281 962 c 0,9,10
 365 962 365 962 469 907 c 1,11,12
 333 1040 333 1040 333 1188 c 0,13,14
 333 1311 333 1311 415.5 1395.5 c 128,-1,15
 498 1480 498 1480 617 1480 c 0,16,17
 737 1480 737 1480 819 1395.5 c 128,-1,18
 901 1311 901 1311 901 1188 c 0,19,20
 901 1040 901 1040 765 907 c 1,21,22
 869 962 869 962 953 962 c 0,23,24
 1062 962 1062 962 1135.5 884.5 c 128,-1,25
 1209 807 1209 807 1209 692 c 0,26,27
 1209 572 1209 572 1128.5 489.5 c 128,-1,28
 1048 407 1048 407 930 407 c 0,29,30
 785 407 785 407 667 592 c 1,31,-1
 765 0 l 1,32,-1
 469 0 l 1,0,-1
EndSplineSet
EndChar

StartChar: uni0006
Encoding: 6 6 6
AltUni2: 0000fe.ffffffff.0
Width: 1234
Flags: W
LayerCount: 2
Fore
SplineSet
469 0 m 1,0,-1
 574 530 l 1,1,2
 435 345 435 345 288 345 c 0,3,4
 179 345 179 345 102 426 c 128,-1,5
 25 507 25 507 25 621 c 0,6,7
 25 758 25 758 172 920 c 2,8,-1
 232 984 l 1,9,-1
 297 1053 l 2,10,11
 441 1206 441 1206 585 1431 c 2,12,-1
 617 1480 l 1,13,-1
 649 1431 l 2,14,15
 794 1206 794 1206 938 1053 c 2,16,-1
 1002 984 l 1,17,-1
 1063 920 l 1,18,19
 1210 758 1210 758 1210 620 c 0,20,21
 1210 506 1210 506 1132.5 425.5 c 128,-1,22
 1055 345 1055 345 946 345 c 0,23,24
 799 345 799 345 660 530 c 1,25,-1
 765 0 l 1,26,-1
 469 0 l 1,0,-1
EndSplineSet
EndChar

StartChar: uni0007
Encoding: 7 7 7
Width: 1234
Flags: W
LayerCount: 2
Fore
SplineSet
617 290 m 256,0,1
 740 290 740 290 826.5 376.5 c 128,-1,2
 913 463 913 463 913 586 c 256,3,4
 913 709 913 709 826.5 795.5 c 128,-1,5
 740 882 740 882 617 882 c 256,6,7
 494 882 494 882 407.5 795.5 c 128,-1,8
 321 709 321 709 321 586 c 256,9,10
 321 463 321 463 407.5 376.5 c 128,-1,11
 494 290 494 290 617 290 c 256,0,1
EndSplineSet
EndChar

StartChar: uni0008
Encoding: 8 8 8
Width: 1234
Flags: W
LayerCount: 2
Fore
SplineSet
1234 -479 m 1,0,-1
 0 -479 l 1,1,-1
 0 1907 l 1,2,-1
 1234 1907 l 1,3,-1
 1234 -479 l 1,0,-1
617 362 m 256,4,5
 740 362 740 362 826.5 463 c 128,-1,6
 913 564 913 564 913 707 c 256,7,8
 913 850 913 850 826.5 951 c 128,-1,9
 740 1052 740 1052 617 1052 c 256,10,11
 494 1052 494 1052 407.5 951 c 128,-1,12
 321 850 321 850 321 707 c 256,13,14
 321 564 321 564 407.5 463 c 128,-1,15
 494 362 494 362 617 362 c 256,4,5
EndSplineSet
EndChar

StartChar: uni0009
Encoding: 9 9 9
Width: 1234
Flags: W
LayerCount: 2
Fore
SplineSet
617 -12 m 256,0,1
 387 -12 387 -12 224.5 150 c 128,-1,2
 62 312 62 312 62 543 c 0,3,4
 62 773 62 773 224.5 935.5 c 128,-1,5
 387 1098 387 1098 617 1098 c 256,6,7
 847 1098 847 1098 1009.5 935.5 c 128,-1,8
 1172 773 1172 773 1172 543 c 256,9,10
 1172 313 1172 313 1009.5 150.5 c 128,-1,11
 847 -12 847 -12 617 -12 c 256,0,1
617 111 m 256,12,13
 796 111 796 111 922.5 237.5 c 128,-1,14
 1049 364 1049 364 1049 543 c 256,15,16
 1049 722 1049 722 922.5 848.5 c 128,-1,17
 796 975 796 975 617 975 c 256,18,19
 438 975 438 975 311.5 848.5 c 128,-1,20
 185 722 185 722 185 543 c 256,21,22
 185 364 185 364 311.5 237.5 c 128,-1,23
 438 111 438 111 617 111 c 256,12,13
EndSplineSet
EndChar

StartChar: uni000A
Encoding: 10 10 10
Width: 1234
Flags: W
LayerCount: 2
Fore
SplineSet
635 11 m 256,0,1
 398 11 398 11 231 199 c 128,-1,2
 64 387 64 387 64 655 c 0,3,4
 64 922 64 922 231 1110.5 c 128,-1,5
 398 1299 398 1299 635 1299 c 256,6,7
 872 1299 872 1299 1039 1110.5 c 128,-1,8
 1206 922 1206 922 1206 655 c 256,9,10
 1206 388 1206 388 1039 199.5 c 128,-1,11
 872 11 872 11 635 11 c 256,0,1
635 153 m 256,12,13
 819 153 819 153 949.5 300 c 128,-1,14
 1080 447 1080 447 1080 655 c 256,15,16
 1080 863 1080 863 949.5 1010 c 128,-1,17
 819 1157 819 1157 635 1157 c 256,18,19
 451 1157 451 1157 320.5 1010 c 128,-1,20
 190 863 190 863 190 655 c 256,21,22
 190 447 190 447 320.5 300 c 128,-1,23
 451 153 451 153 635 153 c 256,12,13
0 1901 m 1,24,-1
 0 -481 l 1,25,-1
 1235 -483 l 1,26,-1
 1235 1901 l 1,27,-1
 0 1901 l 1,24,-1
EndSplineSet
EndChar

StartChar: uni000B
Encoding: 11 11 11
Width: 1234
Flags: W
LayerCount: 2
Fore
SplineSet
879 1303 m 1,0,-1
 608 1227 l 1,1,-1
 567 1372 l 1,2,-1
 1088 1517 l 1,3,-1
 1234 992 l 1,4,-1
 1091 952 l 1,5,-1
 1012 1237 l 1,6,-1
 806 884 l 1,7,8
 993 719 993 719 993 496 c 0,9,10
 993 290 993 290 847.5 145 c 128,-1,11
 702 0 702 0 495 0 c 0,12,13
 293 0 293 0 149.5 145 c 128,-1,14
 6 290 6 290 6 494 c 0,15,16
 6 701 6 701 152.5 844 c 128,-1,17
 299 987 299 987 511 987 c 0,18,19
 586 987 586 987 680 958 c 1,20,-1
 879 1303 l 1,0,-1
154 499 m 0,21,22
 154 353 154 353 255.5 250.5 c 128,-1,23
 357 148 357 148 501 148 c 0,24,25
 642 148 642 148 743.5 249.5 c 128,-1,26
 845 351 845 351 845 493 c 0,27,28
 845 638 845 638 744.5 738.5 c 128,-1,29
 644 839 644 839 498 839 c 0,30,31
 357 839 357 839 255.5 738.5 c 128,-1,32
 154 638 154 638 154 499 c 0,21,22
EndSplineSet
EndChar

StartChar: uni000C
Encoding: 12 12 12
Width: 1234
Flags: W
LayerCount: 2
Fore
SplineSet
542 0 m 1,0,-1
 542 197 l 1,1,-1
 296 197 l 1,2,-1
 296 345 l 1,3,-1
 542 345 l 1,4,-1
 542 501 l 1,5,6
 362 526 362 526 242.5 665 c 128,-1,7
 123 804 123 804 123 989 c 0,8,9
 123 1192 123 1192 267.5 1336 c 128,-1,10
 412 1480 412 1480 616 1480 c 0,11,12
 821 1480 821 1480 965.5 1336 c 128,-1,13
 1110 1192 1110 1192 1110 989 c 0,14,15
 1110 804 1110 804 990 665 c 128,-1,16
 870 526 870 526 690 501 c 1,17,-1
 690 345 l 1,18,-1
 937 345 l 1,19,-1
 937 197 l 1,20,-1
 690 197 l 1,21,-1
 690 0 l 1,22,-1
 542 0 l 1,0,-1
616 642 m 0,23,24
 759 642 759 642 860.5 744.5 c 128,-1,25
 962 847 962 847 962 991 c 0,26,27
 962 1132 962 1132 860.5 1232 c 128,-1,28
 759 1332 759 1332 616 1332 c 0,29,30
 474 1332 474 1332 372.5 1232 c 128,-1,31
 271 1132 271 1132 271 991 c 0,32,33
 271 847 271 847 372.5 744.5 c 128,-1,34
 474 642 474 642 616 642 c 0,23,24
EndSplineSet
EndChar

StartChar: uni000D
Encoding: 13 13 13
Width: 1234
Flags: W
LayerCount: 2
Fore
SplineSet
497 301 m 1,0,-1
 497 1480 l 1,1,-1
 596 1480 l 1,2,-1
 596 1454 l 2,3,4
 596 1323 596 1323 813 1157 c 2,5,-1
 883 1104 l 2,6,7
 1100 939 1100 939 1100 799 c 0,8,9
 1100 695 1100 695 993 560 c 1,10,-1
 924 612 l 1,11,12
 986 696 986 696 986 757 c 256,13,14
 986 818 986 818 898 896 c 2,15,-1
 824 963 l 2,16,17
 802 982 802 982 750 1019 c 0,18,19
 660 1084 660 1084 596 1149 c 1,20,-1
 596 426 l 2,21,22
 596 169 596 169 497 66 c 256,23,24
 398 -37 398 -37 256 -37 c 0,25,26
 182 -37 182 -37 135 0.5 c 128,-1,27
 88 38 88 38 88 98 c 0,28,29
 88 189 88 189 175 256.5 c 128,-1,30
 262 324 262 324 379 324 c 0,31,32
 439 324 439 324 497 301 c 1,0,-1
EndSplineSet
EndChar

StartChar: uni000E
Encoding: 14 14 14
Width: 1234
Flags: W
LayerCount: 2
Fore
SplineSet
527 996 m 1,0,-1
 527 170 l 2,1,2
 527 -88 527 -88 432 -190 c 0,3,4
 332 -296 332 -296 195 -296 c 0,5,6
 118 -296 118 -296 70.5 -257.5 c 128,-1,7
 23 -219 23 -219 23 -156 c 0,8,9
 23 -64 23 -64 109 2.5 c 128,-1,10
 195 69 195 69 313 69 c 0,11,12
 377 69 377 69 428 45 c 1,13,-1
 428 1172 l 1,14,-1
 1144 1517 l 1,15,-1
 1144 508 l 2,16,17
 1144 358 1144 358 1125 285.5 c 128,-1,18
 1106 213 1106 213 1050 154 c 0,19,20
 952 49 952 49 813 49 c 0,21,22
 736 49 736 49 689.5 86 c 128,-1,23
 643 123 643 123 643 183 c 0,24,25
 643 275 643 275 729 340 c 128,-1,26
 815 405 815 405 938 405 c 0,27,28
 989 405 989 405 1045 383 c 1,29,-1
 1045 1246 l 1,30,-1
 527 996 l 1,0,-1
EndSplineSet
EndChar

StartChar: uni000F
Encoding: 15 15 15
Width: 1234
Flags: W
LayerCount: 2
Fore
SplineSet
617 432 m 256,0,1
 719 432 719 432 791.5 504.5 c 128,-1,2
 864 577 864 577 864 679 c 256,3,4
 864 781 864 781 791.5 853.5 c 128,-1,5
 719 926 719 926 617 926 c 256,6,7
 515 926 515 926 442.5 853.5 c 128,-1,8
 370 781 370 781 370 679 c 256,9,10
 370 577 370 577 442.5 504.5 c 128,-1,11
 515 432 515 432 617 432 c 256,0,1
543 123 m 1,12,-1
 543 291 l 1,13,14
 462 309 462 309 395 352 c 1,15,-1
 276 234 l 1,16,-1
 172 338 l 1,17,-1
 290 456 l 1,18,19
 246 526 246 526 229 605 c 1,20,-1
 61 605 l 1,21,-1
 61 753 l 1,22,-1
 229 753 l 1,23,24
 245 829 245 829 290 901 c 1,25,-1
 172 1019 l 1,26,-1
 276 1124 l 1,27,-1
 395 1005 l 1,28,29
 462 1048 462 1048 543 1067 c 1,30,-1
 543 1234 l 1,31,-1
 691 1234 l 1,32,-1
 691 1067 l 1,33,34
 772 1048 772 1048 839 1005 c 1,35,-1
 957 1124 l 1,36,-1
 1062 1019 l 1,37,-1
 944 901 l 1,38,39
 989 829 989 829 1005 753 c 1,40,-1
 1172 753 l 1,41,-1
 1172 605 l 1,42,-1
 1005 605 l 1,43,44
 988 526 988 526 944 456 c 1,45,-1
 1062 338 l 1,46,-1
 957 234 l 1,47,-1
 838 352 l 1,48,49
 772 309 772 309 691 291 c 1,50,-1
 691 123 l 1,51,-1
 543 123 l 1,12,-1
EndSplineSet
EndChar

StartChar: eth
Encoding: 240 240 16
Width: 1234
Flags: W
LayerCount: 2
Fore
SplineSet
56 0 m 1,0,-1
 56 1184 l 1,1,-1
 1179 592 l 1,2,-1
 56 0 l 1,0,-1
EndSplineSet
EndChar

StartChar: uni0011
Encoding: 17 17 17
Width: 1234
Flags: W
LayerCount: 2
Fore
SplineSet
1179 1184 m 1,0,-1
 1179 0 l 1,1,-1
 56 592 l 1,2,-1
 1179 1184 l 1,0,-1
EndSplineSet
EndChar

StartChar: uni0012
Encoding: 18 18 18
Width: 1234
Flags: W
LayerCount: 2
Fore
SplineSet
592 -296 m 1,0,1
 530 -112 530 -112 321 0 c 1,2,-1
 321 102 l 1,3,4
 454 62 454 62 543 -35 c 1,5,-1
 543 1219 l 1,6,7
 454 1121 454 1121 321 1082 c 1,8,-1
 321 1184 l 1,9,10
 529 1295 529 1295 592 1480 c 1,11,-1
 642 1480 l 1,12,13
 705 1295 705 1295 913 1184 c 1,14,-1
 913 1082 l 1,15,16
 780 1121 780 1121 691 1219 c 1,17,-1
 691 -35 l 1,18,19
 780 62 780 62 913 102 c 1,20,-1
 913 0 l 1,21,22
 704 -112 704 -112 642 -296 c 1,23,-1
 592 -296 l 1,0,1
EndSplineSet
EndChar

StartChar: uni0013
Encoding: 19 19 19
Width: 1234
Flags: W
LayerCount: 2
Fore
SplineSet
320 419 m 1,0,-1
 296 1184 l 1,1,-1
 296 1480 l 1,2,-1
 493 1480 l 1,3,-1
 493 1184 l 1,4,-1
 468 419 l 1,5,-1
 320 419 l 1,0,-1
271 0 m 1,6,-1
 271 222 l 1,7,-1
 518 222 l 1,8,-1
 518 0 l 1,9,-1
 271 0 l 1,6,-1
764 419 m 1,10,-1
 740 1184 l 1,11,-1
 740 1480 l 1,12,-1
 937 1480 l 1,13,-1
 937 1184 l 1,14,-1
 913 419 l 1,15,-1
 764 419 l 1,10,-1
715 0 m 1,16,-1
 715 222 l 1,17,-1
 962 222 l 1,18,-1
 962 0 l 1,19,-1
 715 0 l 1,16,-1
EndSplineSet
EndChar

StartChar: uni0014
Encoding: 20 20 20
AltUni2: 002562.ffffffff.0
Width: 1234
Flags: W
LayerCount: 2
Fore
SplineSet
507 -296 m 1,0,-1
 507 740 l 1,1,2
 125 826 125 826 125 1154 c 0,3,4
 125 1313 125 1313 210 1397 c 0,5,6
 293 1480 293 1480 532 1480 c 2,7,-1
 1001 1480 l 1,8,-1
 1001 -296 l 1,9,-1
 878 -296 l 1,10,-1
 878 1357 l 1,11,-1
 631 1357 l 1,12,-1
 631 -296 l 1,13,-1
 507 -296 l 1,0,-1
EndSplineSet
EndChar

StartChar: ntilde
Encoding: 241 241 21
Width: 1234
Flags: W
LayerCount: 2
Fore
SplineSet
217 -255 m 1,0,-1
 217 -74 l 1,1,2
 449 -185 449 -185 612 -185 c 0,3,4
 712 -185 712 -185 779.5 -134 c 128,-1,5
 847 -83 847 -83 847 -8 c 0,6,7
 847 61 847 61 794.5 115.5 c 128,-1,8
 742 170 742 170 614 234 c 2,9,-1
 497 293 l 2,10,11
 232 427 232 427 232 616 c 0,12,13
 232 689 232 689 260 748.5 c 128,-1,14
 288 808 288 808 374 918 c 1,15,16
 232 1026 232 1026 232 1166 c 0,17,18
 232 1320 232 1320 357.5 1418.5 c 128,-1,19
 483 1517 483 1517 680 1517 c 0,20,21
 823 1517 823 1517 973 1476 c 1,22,-1
 973 1309 l 1,23,24
 814 1369 814 1369 670 1369 c 0,25,26
 554 1369 554 1369 481.5 1321 c 128,-1,27
 409 1273 409 1273 409 1195 c 0,28,29
 409 1141 409 1141 442.5 1104.5 c 128,-1,30
 476 1068 476 1068 569 1022 c 2,31,-1
 699 957 l 2,32,33
 1007 804 1007 804 1007 606 c 0,34,35
 1007 460 1007 460 860 299 c 1,36,37
 1027 177 1027 177 1027 16 c 0,38,39
 1027 -132 1027 -132 904.5 -229.5 c 128,-1,40
 782 -327 782 -327 597 -327 c 0,41,42
 435 -327 435 -327 217 -255 c 1,0,-1
767 361 m 1,43,44
 839 473 839 473 839 545 c 0,45,46
 839 618 839 618 793 670.5 c 128,-1,47
 747 723 747 723 632 782 c 2,48,-1
 557 820 l 1,49,-1
 511 842 l 2,50,51
 501 847 501 847 478 859 c 1,52,53
 409 759 409 759 409 676 c 0,54,55
 409 605 409 605 451 554.5 c 128,-1,56
 493 504 493 504 599 449 c 2,57,-1
 677 408 l 1,58,-1
 727 383 l 2,59,60
 739 377 739 377 767 361 c 1,43,44
EndSplineSet
EndChar

StartChar: ograve
Encoding: 242 242 22
Width: 1234
Flags: W
LayerCount: 2
Fore
SplineSet
100 0 m 1,0,-1
 100 362 l 1,1,-1
 1186 362 l 1,2,-1
 1186 0 l 1,3,-1
 100 0 l 1,0,-1
EndSplineSet
EndChar

StartChar: oacute
Encoding: 243 243 23
Width: 1234
Flags: W
LayerCount: 2
Fore
SplineSet
592 -173 m 1,0,1
 530 11 530 11 321 123 c 1,2,-1
 321 226 l 1,3,4
 453 186 453 186 543 89 c 1,5,-1
 543 1342 l 1,6,7
 454 1245 454 1245 321 1205 c 1,8,-1
 321 1308 l 1,9,10
 530 1419 530 1419 592 1604 c 1,11,-1
 642 1604 l 1,12,13
 704 1419 704 1419 913 1308 c 1,14,-1
 913 1205 l 1,15,16
 780 1245 780 1245 691 1342 c 1,17,-1
 691 89 l 1,18,19
 781 186 781 186 913 226 c 1,20,-1
 913 123 l 1,21,22
 704 11 704 11 642 -173 c 1,23,-1
 592 -173 l 1,0,1
321 -419 m 1,24,-1
 321 -271 l 1,25,-1
 913 -271 l 1,26,-1
 913 -419 l 1,27,-1
 321 -419 l 1,24,-1
EndSplineSet
EndChar

StartChar: uni0018
Encoding: 24 24 24
Width: 1234
Flags: W
LayerCount: 2
Fore
SplineSet
642 1480 m 1,0,1
 705 1295 705 1295 913 1184 c 1,2,-1
 913 1082 l 1,3,4
 780 1121 780 1121 691 1219 c 1,5,-1
 691 -296 l 1,6,-1
 543 -296 l 1,7,-1
 543 1219 l 1,8,9
 454 1121 454 1121 321 1082 c 1,10,-1
 321 1184 l 1,11,12
 529 1295 529 1295 592 1480 c 1,13,-1
 642 1480 l 1,0,1
EndSplineSet
EndChar

StartChar: otilde
Encoding: 245 245 25
Width: 1234
Flags: W
LayerCount: 2
Fore
SplineSet
691 1480 m 1,0,-1
 691 -35 l 1,1,2
 780 62 780 62 913 102 c 1,3,-1
 913 0 l 1,4,5
 704 -112 704 -112 642 -296 c 1,6,-1
 592 -296 l 1,7,8
 530 -112 530 -112 321 0 c 1,9,-1
 321 102 l 1,10,11
 454 62 454 62 543 -35 c 1,12,-1
 543 1480 l 1,13,-1
 691 1480 l 1,0,-1
EndSplineSet
EndChar

StartChar: uni001A
Encoding: 26 26 26
Width: 1234
Flags: W
LayerCount: 2
Fore
SplineSet
86 666 m 1,0,-1
 879 666 l 1,1,2
 776 746 776 746 744 888 c 1,3,-1
 847 888 l 1,4,5
 969 686 969 686 1147 617 c 1,6,-1
 1147 568 l 1,7,8
 968 497 968 497 847 296 c 1,9,-1
 744 296 l 1,10,11
 776 438 776 438 879 518 c 1,12,-1
 86 518 l 1,13,-1
 86 666 l 1,0,-1
EndSplineSet
EndChar

StartChar: uni001B
Encoding: 27 27 27
Width: 1234
Flags: W
LayerCount: 2
Fore
SplineSet
1147 518 m 1,0,-1
 354 518 l 1,1,2
 457 438 457 438 489 296 c 1,3,-1
 386 296 l 1,4,5
 265 497 265 497 86 568 c 1,6,-1
 86 617 l 1,7,8
 264 686 264 686 386 888 c 1,9,-1
 489 888 l 1,10,11
 457 746 457 746 354 666 c 1,12,-1
 1147 666 l 1,13,-1
 1147 518 l 1,0,-1
EndSplineSet
EndChar

StartChar: odieresis
Encoding: 246 246 28
Width: 1234
Flags: W
LayerCount: 2
Fore
SplineSet
1147 148 m 1,0,-1
 1147 0 l 1,1,-1
 86 0 l 1,2,-1
 86 1061 l 1,3,-1
 234 1061 l 1,4,-1
 234 148 l 1,5,-1
 1147 148 l 1,0,-1
EndSplineSet
EndChar

StartChar: divide
Encoding: 247 247 29
Width: 1234
Flags: W
LayerCount: 2
Fore
SplineSet
879 518 m 1,0,-1
 354 518 l 1,1,2
 457 438 457 438 489 296 c 1,3,-1
 386 296 l 1,4,5
 265 497 265 497 86 568 c 1,6,-1
 86 617 l 1,7,8
 264 686 264 686 386 888 c 1,9,-1
 489 888 l 1,10,11
 457 746 457 746 354 666 c 1,12,-1
 879 666 l 1,13,14
 776 746 776 746 744 888 c 1,15,-1
 847 888 l 1,16,17
 969 686 969 686 1147 617 c 1,18,-1
 1147 568 l 1,19,20
 968 497 968 497 847 296 c 1,21,-1
 744 296 l 1,22,23
 776 438 776 438 879 518 c 1,0,-1
EndSplineSet
EndChar

StartChar: oslash
Encoding: 248 248 30
Width: 1234
Flags: W
LayerCount: 2
Fore
SplineSet
1179 0 m 1,0,-1
 56 0 l 1,1,-1
 617 1184 l 1,2,-1
 1179 0 l 1,0,-1
EndSplineSet
EndChar

StartChar: yacute
Encoding: 253 253 31
Width: 1234
Flags: W
LayerCount: 2
Fore
SplineSet
56 1184 m 1,0,-1
 1179 1184 l 1,1,-1
 617 0 l 1,2,-1
 56 1184 l 1,0,-1
EndSplineSet
EndChar

StartChar: exclam
Encoding: 33 33 33
Width: 1233
Flags: W
LayerCount: 2
Fore
SplineSet
516 1493 m 1,0,-1
 719 1493 l 1,1,-1
 719 838 l 1,2,-1
 698 481 l 1,3,-1
 537 481 l 1,4,-1
 516 838 l 1,5,-1
 516 1493 l 1,0,-1
516 254 m 1,6,-1
 719 254 l 1,7,-1
 719 0 l 1,8,-1
 516 0 l 1,9,-1
 516 254 l 1,6,-1
EndSplineSet
EndChar

StartChar: quotedbl
Encoding: 34 34 34
Width: 1233
Flags: W
LayerCount: 2
Fore
SplineSet
895 1493 m 1,0,-1
 895 938 l 1,1,-1
 721 938 l 1,2,-1
 721 1493 l 1,3,-1
 895 1493 l 1,0,-1
512 1493 m 1,4,-1
 512 938 l 1,5,-1
 338 938 l 1,6,-1
 338 1493 l 1,7,-1
 512 1493 l 1,4,-1
EndSplineSet
EndChar

StartChar: numbersign
Encoding: 35 35 35
Width: 1233
Flags: W
LayerCount: 2
Fore
SplineSet
684 1470 m 1,0,-1
 580 1055 l 1,1,-1
 825 1055 l 1,2,-1
 930 1470 l 1,3,-1
 1090 1470 l 1,4,-1
 985 1055 l 1,5,-1
 1229 1055 l 1,6,-1
 1229 901 l 1,7,-1
 948 901 l 1,8,-1
 864 567 l 1,9,-1
 1114 567 l 1,10,-1
 1114 414 l 1,11,-1
 825 414 l 1,12,-1
 721 0 l 1,13,-1
 561 0 l 1,14,-1
 666 414 l 1,15,-1
 420 414 l 1,16,-1
 315 0 l 1,17,-1
 156 0 l 1,18,-1
 260 414 l 1,19,-1
 2 414 l 1,20,-1
 2 567 l 1,21,-1
 299 567 l 1,22,-1
 383 901 l 1,23,-1
 117 901 l 1,24,-1
 117 1055 l 1,25,-1
 420 1055 l 1,26,-1
 524 1470 l 1,27,-1
 684 1470 l 1,0,-1
788 901 m 1,28,-1
 543 901 l 1,29,-1
 459 567 l 1,30,-1
 705 567 l 1,31,-1
 788 901 l 1,28,-1
EndSplineSet
EndChar

StartChar: dollar
Encoding: 36 36 36
Width: 1233
Flags: W
LayerCount: 2
Fore
SplineSet
692 580 m 1,0,-1
 692 146 l 1,1,2
 802 149 802 149 864 207 c 128,-1,3
 926 265 926 265 926 365 c 0,4,5
 926 458 926 458 870 509.5 c 128,-1,6
 814 561 814 561 692 580 c 1,0,-1
592 770 m 1,7,-1
 592 1183 l 1,8,9
 488 1179 488 1179 429.5 1123 c 128,-1,10
 371 1067 371 1067 371 973 c 0,11,12
 371 887 371 887 425.5 837 c 128,-1,13
 480 787 480 787 592 770 c 1,7,-1
692 -301 m 1,14,-1
 592 -301 l 1,15,-1
 591 0 l 1,16,17
 489 5 489 5 388.5 28 c 128,-1,18
 288 51 288 51 190 92 c 1,19,-1
 190 272 l 1,20,21
 290 210 290 210 391.5 177 c 128,-1,22
 493 144 493 144 592 142 c 1,23,-1
 592 600 l 1,24,25
 392 631 392 631 291 722 c 128,-1,26
 190 813 190 813 190 963 c 0,27,28
 190 1120 190 1120 295.5 1213.5 c 128,-1,29
 401 1307 401 1307 592 1321 c 1,30,-1
 592 1556 l 1,31,-1
 692 1556 l 1,32,-1
 693 1321 l 1,33,34
 772 1316 772 1316 853 1301 c 128,-1,35
 934 1286 934 1286 1018 1260 c 1,36,-1
 1018 1087 l 1,37,38
 933 1130 933 1130 852.5 1153.5 c 128,-1,39
 772 1177 772 1177 692 1181 c 1,40,-1
 692 750 l 1,41,42
 898 719 898 719 1006 622 c 128,-1,43
 1114 525 1114 525 1114 371 c 256,44,45
 1114 217 1114 217 997.5 114 c 128,-1,46
 881 11 881 11 693 2 c 1,47,-1
 692 -301 l 1,14,-1
EndSplineSet
EndChar

StartChar: percent
Encoding: 37 37 37
Width: 1233
Flags: W
LayerCount: 2
Fore
SplineSet
696 319 m 0,0,1
 696 241 696 241 748.5 188 c 128,-1,2
 801 135 801 135 879 135 c 0,3,4
 956 135 956 135 1009.5 188.5 c 128,-1,5
 1063 242 1063 242 1063 319 c 256,6,7
 1063 396 1063 396 1009 450 c 128,-1,8
 955 504 955 504 879 504 c 0,9,10
 801 504 801 504 748.5 451 c 128,-1,11
 696 398 696 398 696 319 c 0,0,1
561 319 m 0,12,13
 561 454 561 454 653 546.5 c 128,-1,14
 745 639 745 639 879 639 c 0,15,16
 943 639 943 639 1000.5 615 c 128,-1,17
 1058 591 1058 591 1104 545 c 0,18,19
 1150 498 1150 498 1175 440 c 128,-1,20
 1200 382 1200 382 1200 319 c 0,21,22
 1200 186 1200 186 1107 93 c 128,-1,23
 1014 0 1014 0 879 0 c 0,24,25
 743 0 743 0 652 91.5 c 128,-1,26
 561 183 561 183 561 319 c 0,12,13
121 465 m 1,27,-1
 86 561 l 1,28,-1
 1128 979 l 1,29,-1
 1169 883 l 1,30,-1
 121 465 l 1,27,-1
168 1112 m 0,31,32
 168 1033 168 1033 220.5 980.5 c 128,-1,33
 273 928 273 928 352 928 c 0,34,35
 429 928 429 928 483 981.5 c 128,-1,36
 537 1035 537 1035 537 1112 c 256,37,38
 537 1189 537 1189 483 1242.5 c 128,-1,39
 429 1296 429 1296 352 1296 c 256,40,41
 275 1296 275 1296 221.5 1243 c 128,-1,42
 168 1190 168 1190 168 1112 c 0,31,32
33 1112 m 256,43,44
 33 1247 33 1247 125 1339.5 c 128,-1,45
 217 1432 217 1432 352 1432 c 0,46,47
 416 1432 416 1432 474.5 1408 c 128,-1,48
 533 1384 533 1384 578 1339 c 256,49,50
 623 1294 623 1294 647.5 1235.5 c 128,-1,51
 672 1177 672 1177 672 1112 c 0,52,53
 672 978 672 978 579 885.5 c 128,-1,54
 486 793 486 793 352 793 c 0,55,56
 217 793 217 793 125 885 c 128,-1,57
 33 977 33 977 33 1112 c 256,43,44
EndSplineSet
EndChar

StartChar: ampersand
Encoding: 38 38 38
Width: 1233
Flags: W
LayerCount: 2
Fore
SplineSet
547 907 m 2,0,-1
 963 348 l 1,1,2
 1002 397 1002 397 1021 472 c 128,-1,3
 1040 547 1040 547 1040 651 c 0,4,5
 1040 683 1040 683 1037 753 c 1,6,-1
 1036 760 l 1,7,-1
 1200 760 l 1,8,-1
 1200 721 l 2,9,10
 1200 560 1200 560 1163 438.5 c 128,-1,11
 1126 317 1126 317 1051 229 c 1,12,-1
 1221 0 l 1,13,-1
 1008 0 l 1,14,-1
 930 109 l 1,15,16
 847 39 847 39 754 5 c 128,-1,17
 661 -29 661 -29 555 -29 c 0,18,19
 339 -29 339 -29 198 105.5 c 128,-1,20
 57 240 57 240 57 444 c 0,21,22
 57 581 57 581 126 698 c 128,-1,23
 195 815 195 815 334 915 c 1,24,25
 284 987 284 987 260 1056 c 128,-1,26
 236 1125 236 1125 236 1196 c 0,27,28
 236 1346 236 1346 335.5 1433 c 128,-1,29
 435 1520 435 1520 608 1520 c 0,30,31
 673 1520 673 1520 738.5 1508 c 128,-1,32
 804 1496 804 1496 874 1473 c 1,33,-1
 874 1290 l 1,34,35
 815 1329 815 1329 752.5 1347.5 c 128,-1,36
 690 1366 690 1366 621 1366 c 0,37,38
 524 1366 524 1366 468 1320.5 c 128,-1,39
 412 1275 412 1275 412 1198 c 0,40,41
 412 1139 412 1139 441 1074.5 c 128,-1,42
 470 1010 470 1010 547 907 c 2,0,-1
416 803 m 1,43,44
 324 730 324 730 278.5 648.5 c 128,-1,45
 233 567 233 567 233 475 c 0,46,47
 233 324 233 324 333 224.5 c 128,-1,48
 433 125 433 125 588 125 c 0,49,50
 630 125 630 125 676 137 c 128,-1,51
 722 149 722 149 766 172 c 0,52,53
 793 187 793 187 810.5 198.5 c 128,-1,54
 828 210 828 210 844 223 c 1,55,-1
 416 803 l 1,43,44
EndSplineSet
EndChar

StartChar: quotesingle
Encoding: 39 39 39
Width: 1233
Flags: W
LayerCount: 2
Fore
SplineSet
702 1493 m 1,0,-1
 702 938 l 1,1,-1
 528 938 l 1,2,-1
 528 1493 l 1,3,-1
 702 1493 l 1,0,-1
EndSplineSet
EndChar

StartChar: parenleft
Encoding: 40 40 40
Width: 1233
Flags: W
LayerCount: 2
Fore
SplineSet
885 1554 m 1,0,1
 752 1326 752 1326 686.5 1099.5 c 128,-1,2
 621 873 621 873 621 643 c 0,3,4
 621 414 621 414 686.5 187 c 128,-1,5
 752 -40 752 -40 885 -270 c 1,6,-1
 725 -270 l 1,7,8
 574 -32 574 -32 500 193.5 c 128,-1,9
 426 419 426 419 426 643 c 0,10,11
 426 866 426 866 500 1092 c 128,-1,12
 574 1318 574 1318 725 1554 c 1,13,-1
 885 1554 l 1,0,1
EndSplineSet
EndChar

StartChar: parenright
Encoding: 41 41 41
Width: 1233
Flags: W
LayerCount: 2
Fore
SplineSet
348 1554 m 1,0,-1
 508 1554 l 1,1,2
 659 1318 659 1318 733 1092 c 128,-1,3
 807 866 807 866 807 643 c 0,4,5
 807 418 807 418 733 192 c 128,-1,6
 659 -34 659 -34 508 -270 c 1,7,-1
 348 -270 l 1,8,9
 481 -38 481 -38 546.5 189 c 128,-1,10
 612 416 612 416 612 643 c 0,11,12
 612 871 612 871 546.5 1098 c 128,-1,13
 481 1325 481 1325 348 1554 c 1,0,-1
EndSplineSet
EndChar

StartChar: asterisk
Encoding: 42 42 42
Width: 1233
Flags: W
LayerCount: 2
Fore
SplineSet
1067 1247 m 1,0,-1
 709 1053 l 1,1,-1
 1067 858 l 1,2,-1
 1010 760 l 1,3,-1
 674 963 l 1,4,-1
 674 586 l 1,5,-1
 559 586 l 1,6,-1
 559 963 l 1,7,-1
 223 760 l 1,8,-1
 166 858 l 1,9,-1
 524 1053 l 1,10,-1
 166 1247 l 1,11,-1
 223 1346 l 1,12,-1
 559 1143 l 1,13,-1
 559 1520 l 1,14,-1
 674 1520 l 1,15,-1
 674 1143 l 1,16,-1
 1010 1346 l 1,17,-1
 1067 1247 l 1,0,-1
EndSplineSet
EndChar

StartChar: plus
Encoding: 43 43 43
Width: 1233
Flags: W
LayerCount: 2
Fore
SplineSet
700 1171 m 1,0,-1
 700 727 l 1,1,-1
 1145 727 l 1,2,-1
 1145 557 l 1,3,-1
 700 557 l 1,4,-1
 700 113 l 1,5,-1
 532 113 l 1,6,-1
 532 557 l 1,7,-1
 88 557 l 1,8,-1
 88 727 l 1,9,-1
 532 727 l 1,10,-1
 532 1171 l 1,11,-1
 700 1171 l 1,0,-1
EndSplineSet
EndChar

StartChar: comma
Encoding: 44 44 44
Width: 1233
Flags: W
LayerCount: 2
Fore
SplineSet
502 303 m 1,0,-1
 754 303 l 1,1,-1
 754 96 l 1,2,-1
 557 -287 l 1,3,-1
 403 -287 l 1,4,-1
 502 96 l 1,5,-1
 502 303 l 1,0,-1
EndSplineSet
EndChar

StartChar: hyphen
Encoding: 45 45 45
Width: 1233
Flags: W
LayerCount: 2
Fore
SplineSet
356 643 m 1,0,-1
 877 643 l 1,1,-1
 877 479 l 1,2,-1
 356 479 l 1,3,-1
 356 643 l 1,0,-1
EndSplineSet
EndChar

StartChar: period
Encoding: 46 46 46
Width: 1233
Flags: W
LayerCount: 2
Fore
SplineSet
489 305 m 1,0,-1
 741 305 l 1,1,-1
 741 0 l 1,2,-1
 489 0 l 1,3,-1
 489 305 l 1,0,-1
EndSplineSet
EndChar

StartChar: slash
Encoding: 47 47 47
Width: 1233
Flags: W
LayerCount: 2
Fore
SplineSet
889 1493 m 1,0,-1
 1079 1493 l 1,1,-1
 293 -190 l 1,2,-1
 102 -190 l 1,3,-1
 889 1493 l 1,0,-1
EndSplineSet
EndChar

StartChar: zero
Encoding: 48 48 48
Width: 1233
Flags: W
LayerCount: 2
Fore
SplineSet
483 750 m 0,0,1
 483 805 483 805 521.5 845 c 128,-1,2
 560 885 560 885 614 885 c 0,3,4
 670 885 670 885 710 845 c 128,-1,5
 750 805 750 805 750 750 c 0,6,7
 750 694 750 694 710.5 655 c 128,-1,8
 671 616 671 616 614 616 c 0,9,10
 558 616 558 616 520.5 654 c 128,-1,11
 483 692 483 692 483 750 c 0,0,1
616 1360 m 0,12,13
 475 1360 475 1360 405.5 1208 c 128,-1,14
 336 1056 336 1056 336 745 c 0,15,16
 336 435 336 435 405.5 283 c 128,-1,17
 475 131 475 131 616 131 c 0,18,19
 758 131 758 131 827.5 283 c 128,-1,20
 897 435 897 435 897 745 c 0,21,22
 897 1056 897 1056 827.5 1208 c 128,-1,23
 758 1360 758 1360 616 1360 c 0,12,13
616 1520 m 256,24,25
 855 1520 855 1520 977.5 1324 c 128,-1,26
 1100 1128 1100 1128 1100 745 c 0,27,28
 1100 363 1100 363 977.5 167 c 128,-1,29
 855 -29 855 -29 616 -29 c 256,30,31
 377 -29 377 -29 255 167 c 128,-1,32
 133 363 133 363 133 745 c 0,33,34
 133 1128 133 1128 255 1324 c 128,-1,35
 377 1520 377 1520 616 1520 c 256,24,25
EndSplineSet
EndChar

StartChar: one
Encoding: 49 49 49
Width: 1233
Flags: W
LayerCount: 2
Fore
SplineSet
270 170 m 1,0,-1
 584 170 l 1,1,-1
 584 1311 l 1,2,-1
 246 1235 l 1,3,-1
 246 1419 l 1,4,-1
 582 1493 l 1,5,-1
 784 1493 l 1,6,-1
 784 170 l 1,7,-1
 1094 170 l 1,8,-1
 1094 0 l 1,9,-1
 270 0 l 1,10,-1
 270 170 l 1,0,-1
EndSplineSet
EndChar

StartChar: two
Encoding: 50 50 50
Width: 1233
Flags: W
LayerCount: 2
Fore
SplineSet
373 170 m 1,0,-1
 1059 170 l 1,1,-1
 1059 0 l 1,2,-1
 152 0 l 1,3,-1
 152 170 l 1,4,5
 339 367 339 367 479 518 c 128,-1,6
 619 669 619 669 672 731 c 0,7,8
 772 853 772 853 807 928.5 c 128,-1,9
 842 1004 842 1004 842 1083 c 0,10,11
 842 1208 842 1208 768.5 1279 c 128,-1,12
 695 1350 695 1350 567 1350 c 0,13,14
 476 1350 476 1350 376 1317 c 128,-1,15
 276 1284 276 1284 164 1217 c 1,16,-1
 164 1421 l 1,17,18
 267 1470 267 1470 366.5 1495 c 128,-1,19
 466 1520 466 1520 563 1520 c 0,20,21
 782 1520 782 1520 915.5 1403.5 c 128,-1,22
 1049 1287 1049 1287 1049 1098 c 0,23,24
 1049 1002 1049 1002 1004.5 906 c 128,-1,25
 960 810 960 810 860 694 c 0,26,27
 804 629 804 629 697.5 514 c 128,-1,28
 591 399 591 399 373 170 c 1,0,-1
EndSplineSet
EndChar

StartChar: three
Encoding: 51 51 51
Width: 1233
Flags: W
LayerCount: 2
Fore
SplineSet
776 799 m 1,0,1
 923 760 923 760 1001 660.5 c 128,-1,2
 1079 561 1079 561 1079 412 c 0,3,4
 1079 206 1079 206 940.5 88.5 c 128,-1,5
 802 -29 802 -29 557 -29 c 0,6,7
 454 -29 454 -29 347 -10 c 128,-1,8
 240 9 240 9 137 45 c 1,9,-1
 137 246 l 1,10,11
 239 193 239 193 338 167 c 128,-1,12
 437 141 437 141 535 141 c 0,13,14
 701 141 701 141 790 216 c 128,-1,15
 879 291 879 291 879 432 c 0,16,17
 879 562 879 562 790 638.5 c 128,-1,18
 701 715 701 715 549 715 c 2,19,-1
 395 715 l 1,20,-1
 395 881 l 1,21,-1
 549 881 l 2,22,23
 688 881 688 881 766 942 c 128,-1,24
 844 1003 844 1003 844 1112 c 0,25,26
 844 1227 844 1227 771.5 1288.5 c 128,-1,27
 699 1350 699 1350 565 1350 c 0,28,29
 476 1350 476 1350 381 1330 c 128,-1,30
 286 1310 286 1310 182 1270 c 1,31,-1
 182 1456 l 1,32,33
 303 1488 303 1488 397.5 1504 c 128,-1,34
 492 1520 492 1520 565 1520 c 0,35,36
 783 1520 783 1520 913.5 1410.5 c 128,-1,37
 1044 1301 1044 1301 1044 1120 c 0,38,39
 1044 997 1044 997 975.5 915 c 128,-1,40
 907 833 907 833 776 799 c 1,0,1
EndSplineSet
EndChar

StartChar: four
Encoding: 52 52 52
Width: 1233
Flags: W
LayerCount: 2
Fore
SplineSet
735 1309 m 1,0,-1
 264 520 l 1,1,-1
 735 520 l 1,2,-1
 735 1309 l 1,0,-1
702 1493 m 1,3,-1
 936 1493 l 1,4,-1
 936 520 l 1,5,-1
 1135 520 l 1,6,-1
 1135 356 l 1,7,-1
 936 356 l 1,8,-1
 936 0 l 1,9,-1
 735 0 l 1,10,-1
 735 356 l 1,11,-1
 102 356 l 1,12,-1
 102 547 l 1,13,-1
 702 1493 l 1,3,-1
EndSplineSet
EndChar

StartChar: five
Encoding: 53 53 53
Width: 1233
Flags: W
LayerCount: 2
Fore
SplineSet
207 1493 m 1,0,-1
 963 1493 l 1,1,-1
 963 1323 l 1,2,-1
 391 1323 l 1,3,-1
 391 956 l 1,4,5
 434 972 434 972 477.5 979.5 c 128,-1,6
 521 987 521 987 565 987 c 0,7,8
 797 987 797 987 933 850 c 128,-1,9
 1069 713 1069 713 1069 479 c 0,10,11
 1069 243 1069 243 926.5 107 c 128,-1,12
 784 -29 784 -29 537 -29 c 0,13,14
 418 -29 418 -29 319.5 -13 c 128,-1,15
 221 3 221 3 143 35 c 1,16,-1
 143 240 l 1,17,18
 235 190 235 190 328 165.5 c 128,-1,19
 421 141 421 141 518 141 c 0,20,21
 685 141 685 141 775.5 229 c 128,-1,22
 866 317 866 317 866 479 c 0,23,24
 866 639 866 639 772.5 728 c 128,-1,25
 679 817 679 817 512 817 c 0,26,27
 431 817 431 817 354 798.5 c 128,-1,28
 277 780 277 780 207 743 c 1,29,-1
 207 1493 l 1,0,-1
EndSplineSet
EndChar

StartChar: six
Encoding: 54 54 54
Width: 1233
Flags: W
LayerCount: 2
Fore
SplineSet
991 1460 m 1,0,-1
 991 1274 l 1,1,2
 928 1311 928 1311 857 1330.5 c 128,-1,3
 786 1350 786 1350 709 1350 c 0,4,5
 517 1350 517 1350 418 1205.5 c 128,-1,6
 319 1061 319 1061 319 780 c 1,7,8
 367 880 367 880 452 933.5 c 128,-1,9
 537 987 537 987 647 987 c 0,10,11
 863 987 863 987 981.5 854.5 c 128,-1,12
 1100 722 1100 722 1100 479 c 0,13,14
 1100 237 1100 237 978 104 c 128,-1,15
 856 -29 856 -29 635 -29 c 0,16,17
 375 -29 375 -29 254 157.5 c 128,-1,18
 133 344 133 344 133 745 c 0,19,20
 133 1123 133 1123 278.5 1321.5 c 128,-1,21
 424 1520 424 1520 700 1520 c 0,22,23
 774 1520 774 1520 848 1504.5 c 128,-1,24
 922 1489 922 1489 991 1460 c 1,0,-1
631 829 m 0,25,26
 502 829 502 829 428 736 c 128,-1,27
 354 643 354 643 354 479 c 256,28,29
 354 315 354 315 428 222 c 128,-1,30
 502 129 502 129 631 129 c 0,31,32
 765 129 765 129 833 217.5 c 128,-1,33
 901 306 901 306 901 479 c 0,34,35
 901 653 901 653 833 741 c 128,-1,36
 765 829 765 829 631 829 c 0,25,26
EndSplineSet
EndChar

StartChar: seven
Encoding: 55 55 55
Width: 1233
Flags: W
LayerCount: 2
Fore
SplineSet
139 1493 m 1,0,-1
 1079 1493 l 1,1,-1
 1079 1407 l 1,2,-1
 545 0 l 1,3,-1
 334 0 l 1,4,-1
 854 1323 l 1,5,-1
 139 1323 l 1,6,-1
 139 1493 l 1,0,-1
EndSplineSet
EndChar

StartChar: eight
Encoding: 56 56 56
Width: 1233
Flags: W
LayerCount: 2
Fore
SplineSet
616 709 m 0,0,1
 481 709 481 709 407.5 633.5 c 128,-1,2
 334 558 334 558 334 420 c 256,3,4
 334 282 334 282 408.5 205.5 c 128,-1,5
 483 129 483 129 616 129 c 0,6,7
 752 129 752 129 825.5 204.5 c 128,-1,8
 899 280 899 280 899 420 c 0,9,10
 899 557 899 557 824.5 633 c 128,-1,11
 750 709 750 709 616 709 c 0,0,1
440 793 m 1,12,13
 311 826 311 826 238.5 916 c 128,-1,14
 166 1006 166 1006 166 1133 c 0,15,16
 166 1311 166 1311 287 1415.5 c 128,-1,17
 408 1520 408 1520 616 1520 c 0,18,19
 825 1520 825 1520 946 1415.5 c 128,-1,20
 1067 1311 1067 1311 1067 1133 c 0,21,22
 1067 1006 1067 1006 994.5 916 c 128,-1,23
 922 826 922 826 793 793 c 1,24,25
 943 760 943 760 1022.5 660 c 128,-1,26
 1102 560 1102 560 1102 401 c 0,27,28
 1102 199 1102 199 973 85 c 128,-1,29
 844 -29 844 -29 616 -29 c 256,30,31
 388 -29 388 -29 259.5 84.5 c 128,-1,32
 131 198 131 198 131 399 c 0,33,34
 131 559 131 559 210.5 659.5 c 128,-1,35
 290 760 290 760 440 793 c 1,12,13
367 1114 m 0,36,37
 367 994 367 994 431 931 c 128,-1,38
 495 868 495 868 616 868 c 0,39,40
 738 868 738 868 802 931 c 128,-1,41
 866 994 866 994 866 1114 c 0,42,43
 866 1236 866 1236 802.5 1300 c 128,-1,44
 739 1364 739 1364 616 1364 c 0,45,46
 495 1364 495 1364 431 1299.5 c 128,-1,47
 367 1235 367 1235 367 1114 c 0,36,37
EndSplineSet
EndChar

StartChar: nine
Encoding: 57 57 57
Width: 1233
Flags: W
LayerCount: 2
Fore
SplineSet
596 662 m 0,0,1
 725 662 725 662 798.5 755 c 128,-1,2
 872 848 872 848 872 1012 c 256,3,4
 872 1176 872 1176 798.5 1269 c 128,-1,5
 725 1362 725 1362 596 1362 c 0,6,7
 462 1362 462 1362 394 1273.5 c 128,-1,8
 326 1185 326 1185 326 1012 c 0,9,10
 326 838 326 838 393.5 750 c 128,-1,11
 461 662 461 662 596 662 c 0,0,1
236 31 m 1,12,-1
 236 217 l 1,13,14
 299 180 299 180 370 160.5 c 128,-1,15
 441 141 441 141 518 141 c 0,16,17
 710 141 710 141 808.5 285.5 c 128,-1,18
 907 430 907 430 907 711 c 1,19,20
 860 611 860 611 775 557.5 c 128,-1,21
 690 504 690 504 580 504 c 0,22,23
 364 504 364 504 245.5 637 c 128,-1,24
 127 770 127 770 127 1014 c 0,25,26
 127 1255 127 1255 248.5 1387.5 c 128,-1,27
 370 1520 370 1520 592 1520 c 0,28,29
 852 1520 852 1520 973 1333 c 128,-1,30
 1094 1146 1094 1146 1094 745 c 0,31,32
 1094 368 1094 368 948.5 169.5 c 128,-1,33
 803 -29 803 -29 526 -29 c 0,34,35
 453 -29 453 -29 379 -13.5 c 128,-1,36
 305 2 305 2 236 31 c 1,12,-1
EndSplineSet
EndChar

StartChar: colon
Encoding: 58 58 58
Width: 1233
Flags: W
LayerCount: 2
Fore
SplineSet
489 1063 m 1,0,-1
 741 1063 l 1,1,-1
 741 760 l 1,2,-1
 489 760 l 1,3,-1
 489 1063 l 1,0,-1
489 305 m 1,4,-1
 741 305 l 1,5,-1
 741 0 l 1,6,-1
 489 0 l 1,7,-1
 489 305 l 1,4,-1
EndSplineSet
EndChar

StartChar: semicolon
Encoding: 59 59 59
Width: 1233
Flags: W
LayerCount: 2
Fore
SplineSet
502 303 m 1,0,-1
 754 303 l 1,1,-1
 754 96 l 1,2,-1
 557 -287 l 1,3,-1
 403 -287 l 1,4,-1
 502 96 l 1,5,-1
 502 303 l 1,0,-1
489 1063 m 1,6,-1
 741 1063 l 1,7,-1
 741 760 l 1,8,-1
 489 760 l 1,9,-1
 489 1063 l 1,6,-1
EndSplineSet
EndChar

StartChar: less
Encoding: 60 60 60
Width: 1233
Flags: W
LayerCount: 2
Fore
SplineSet
1145 961 m 1,0,-1
 295 641 l 1,1,-1
 1145 324 l 1,2,-1
 1145 141 l 1,3,-1
 88 559 l 1,4,-1
 88 725 l 1,5,-1
 1145 1143 l 1,6,-1
 1145 961 l 1,0,-1
EndSplineSet
EndChar

StartChar: equal
Encoding: 61 61 61
Width: 1233
Flags: W
LayerCount: 2
Fore
SplineSet
88 524 m 1,0,-1
 1145 524 l 1,1,-1
 1145 352 l 1,2,-1
 88 352 l 1,3,-1
 88 524 l 1,0,-1
88 930 m 1,4,-1
 1145 930 l 1,5,-1
 1145 760 l 1,6,-1
 88 760 l 1,7,-1
 88 930 l 1,4,-1
EndSplineSet
EndChar

StartChar: greater
Encoding: 62 62 62
Width: 1233
Flags: W
LayerCount: 2
Fore
SplineSet
88 961 m 1,0,-1
 88 1143 l 1,1,-1
 1145 725 l 1,2,-1
 1145 559 l 1,3,-1
 88 141 l 1,4,-1
 88 324 l 1,5,-1
 938 641 l 1,6,-1
 88 961 l 1,0,-1
EndSplineSet
EndChar

StartChar: question
Encoding: 63 63 63
Width: 1233
Flags: W
LayerCount: 2
Fore
SplineSet
684 401 m 1,0,-1
 494 401 l 1,1,-1
 494 555 l 2,2,3
 494 653 494 653 524.5 721.5 c 128,-1,4
 555 790 555 790 639 872 c 2,5,-1
 729 961 l 2,6,7
 791 1020 791 1020 814.5 1064 c 128,-1,8
 838 1108 838 1108 838 1157 c 0,9,10
 838 1246 838 1246 772.5 1301 c 128,-1,11
 707 1356 707 1356 598 1356 c 0,12,13
 520 1356 520 1356 431 1321.5 c 128,-1,14
 342 1287 342 1287 244 1219 c 1,15,-1
 244 1407 l 1,16,17
 338 1464 338 1464 433.5 1492 c 128,-1,18
 529 1520 529 1520 633 1520 c 0,19,20
 819 1520 819 1520 929.5 1424 c 128,-1,21
 1040 1328 1040 1328 1040 1167 c 0,22,23
 1040 1091 1040 1091 1006.5 1025.5 c 128,-1,24
 973 960 973 960 879 868 c 2,25,-1
 791 782 l 2,26,27
 722 716 722 716 703 674 c 128,-1,28
 684 632 684 632 684 571 c 2,29,-1
 684 524 l 1,30,-1
 684 401 l 1,0,-1
487 254 m 1,31,-1
 690 254 l 1,32,-1
 690 0 l 1,33,-1
 487 0 l 1,34,-1
 487 254 l 1,31,-1
EndSplineSet
EndChar

StartChar: at
Encoding: 64 64 64
Width: 1233
Flags: W
LayerCount: 2
Fore
SplineSet
1038 545 m 0,0,1
 1038 674 1038 674 974 751.5 c 128,-1,2
 910 829 910 829 803 829 c 256,3,4
 696 829 696 829 631.5 751.5 c 128,-1,5
 567 674 567 674 567 545 c 0,6,7
 567 415 567 415 631.5 337.5 c 128,-1,8
 696 260 696 260 803 260 c 256,9,10
 910 260 910 260 974 337.5 c 128,-1,11
 1038 415 1038 415 1038 545 c 0,0,1
1178 135 m 1,12,-1
 1034 135 l 1,13,-1
 1034 246 l 1,14,15
 997 183 997 183 931.5 149 c 128,-1,16
 866 115 866 115 784 115 c 0,17,18
 623 115 623 115 517.5 236 c 128,-1,19
 412 357 412 357 412 545 c 256,20,21
 412 733 412 733 517.5 854 c 128,-1,22
 623 975 623 975 784 975 c 0,23,24
 864 975 864 975 931 940 c 128,-1,25
 998 905 998 905 1034 844 c 1,26,-1
 1034 907 l 2,27,28
 1034 1063 1034 1063 946 1158 c 128,-1,29
 858 1253 858 1253 713 1253 c 0,30,31
 467 1253 467 1253 321.5 1061.5 c 128,-1,32
 176 870 176 870 176 543 c 0,33,34
 176 214 176 214 341 19 c 128,-1,35
 506 -176 506 -176 780 -176 c 0,36,37
 834 -176 834 -176 888 -166 c 128,-1,38
 942 -156 942 -156 999 -135 c 1,39,-1
 1047 -270 l 1,40,41
 984 -295 984 -295 922.5 -307 c 128,-1,42
 861 -319 861 -319 803 -319 c 0,43,44
 446 -319 446 -319 236.5 -86 c 128,-1,45
 27 147 27 147 27 543 c 0,46,47
 27 933 27 933 215 1164 c 128,-1,48
 403 1395 403 1395 719 1395 c 0,49,50
 928 1395 928 1395 1053 1262 c 128,-1,51
 1178 1129 1178 1129 1178 905 c 2,52,-1
 1178 135 l 1,12,-1
EndSplineSet
EndChar

StartChar: A
Encoding: 65 65 65
Width: 1233
Flags: W
LayerCount: 2
Fore
SplineSet
616 1315 m 1,0,-1
 403 551 l 1,1,-1
 829 551 l 1,2,-1
 616 1315 l 1,0,-1
494 1493 m 1,3,-1
 739 1493 l 1,4,-1
 1196 0 l 1,5,-1
 987 0 l 1,6,-1
 877 389 l 1,7,-1
 354 389 l 1,8,-1
 246 0 l 1,9,-1
 37 0 l 1,10,-1
 494 1493 l 1,3,-1
EndSplineSet
EndChar

StartChar: B
Encoding: 66 66 66
Width: 1233
Flags: W
LayerCount: 2
Fore
SplineSet
369 713 m 1,0,-1
 369 166 l 1,1,-1
 608 166 l 2,2,3
 784 166 784 166 859 227.5 c 128,-1,4
 934 289 934 289 934 430 c 0,5,6
 934 576 934 576 855 644.5 c 128,-1,7
 776 713 776 713 608 713 c 2,8,-1
 369 713 l 1,0,-1
369 1327 m 1,9,-1
 369 877 l 1,10,-1
 604 877 l 2,11,12
 750 877 750 877 815.5 933 c 128,-1,13
 881 989 881 989 881 1114 c 0,14,15
 881 1227 881 1227 816.5 1277 c 128,-1,16
 752 1327 752 1327 604 1327 c 2,17,-1
 369 1327 l 1,9,-1
166 1493 m 1,18,-1
 608 1493 l 2,19,20
 837 1493 837 1493 961 1394 c 128,-1,21
 1085 1295 1085 1295 1085 1114 c 0,22,23
 1085 977 1085 977 1019.5 898 c 128,-1,24
 954 819 954 819 823 799 c 1,25,26
 970 777 970 777 1053.5 673.5 c 128,-1,27
 1137 570 1137 570 1137 410 c 0,28,29
 1137 207 1137 207 1004 103.5 c 128,-1,30
 871 0 871 0 608 0 c 2,31,-1
 166 0 l 1,32,-1
 166 1493 l 1,18,-1
EndSplineSet
EndChar

StartChar: C
Encoding: 67 67 67
Width: 1233
Flags: W
LayerCount: 2
Fore
SplineSet
1073 53 m 1,0,1
 996 12 996 12 915 -8.5 c 128,-1,2
 834 -29 834 -29 743 -29 c 0,3,4
 456 -29 456 -29 297.5 174 c 128,-1,5
 139 377 139 377 139 745 c 0,6,7
 139 1111 139 1111 298.5 1315.5 c 128,-1,8
 458 1520 458 1520 743 1520 c 0,9,10
 834 1520 834 1520 915 1499.5 c 128,-1,11
 996 1479 996 1479 1073 1438 c 1,12,-1
 1073 1231 l 1,13,14
 999 1292 999 1292 914 1324 c 128,-1,15
 829 1356 829 1356 743 1356 c 0,16,17
 546 1356 546 1356 448 1204 c 128,-1,18
 350 1052 350 1052 350 745 c 0,19,20
 350 439 350 439 448 287 c 128,-1,21
 546 135 546 135 743 135 c 0,22,23
 831 135 831 135 915.5 167 c 128,-1,24
 1000 199 1000 199 1073 260 c 1,25,-1
 1073 53 l 1,0,1
EndSplineSet
EndChar

StartChar: D
Encoding: 68 68 68
Width: 1233
Flags: W
LayerCount: 2
Fore
SplineSet
436 166 m 2,0,1
 691 166 691 166 792 291.5 c 128,-1,2
 893 417 893 417 893 745 c 0,3,4
 893 1076 893 1076 792.5 1201.5 c 128,-1,5
 692 1327 692 1327 436 1327 c 2,6,-1
 340 1327 l 1,7,-1
 340 166 l 1,8,-1
 436 166 l 2,0,1
440 1493 m 2,9,10
 782 1493 782 1493 944 1311 c 128,-1,11
 1106 1129 1106 1129 1106 745 c 0,12,13
 1106 363 1106 363 944 181.5 c 128,-1,14
 782 0 782 0 440 0 c 2,15,-1
 137 0 l 1,16,-1
 137 1493 l 1,17,-1
 440 1493 l 2,9,10
EndSplineSet
EndChar

StartChar: E
Encoding: 69 69 69
Width: 1233
Flags: W
LayerCount: 2
Fore
SplineSet
197 1493 m 1,0,-1
 1083 1493 l 1,1,-1
 1083 1323 l 1,2,-1
 399 1323 l 1,3,-1
 399 881 l 1,4,-1
 1053 881 l 1,5,-1
 1053 711 l 1,6,-1
 399 711 l 1,7,-1
 399 170 l 1,8,-1
 1102 170 l 1,9,-1
 1102 0 l 1,10,-1
 197 0 l 1,11,-1
 197 1493 l 1,0,-1
EndSplineSet
EndChar

StartChar: F
Encoding: 70 70 70
Width: 1233
Flags: W
LayerCount: 2
Fore
SplineSet
233 1493 m 1,0,-1
 1112 1493 l 1,1,-1
 1112 1323 l 1,2,-1
 436 1323 l 1,3,-1
 436 883 l 1,4,-1
 1049 883 l 1,5,-1
 1049 713 l 1,6,-1
 436 713 l 1,7,-1
 436 0 l 1,8,-1
 233 0 l 1,9,-1
 233 1493 l 1,0,-1
EndSplineSet
EndChar

StartChar: G
Encoding: 71 71 71
Width: 1233
Flags: W
LayerCount: 2
Fore
SplineSet
1104 123 m 1,0,1
 1023 48 1023 48 921.5 9.5 c 128,-1,2
 820 -29 820 -29 702 -29 c 0,3,4
 418 -29 418 -29 260 174.5 c 128,-1,5
 102 378 102 378 102 745 c 0,6,7
 102 1111 102 1111 262 1315.5 c 128,-1,8
 422 1520 422 1520 707 1520 c 0,9,10
 801 1520 801 1520 887 1493.5 c 128,-1,11
 973 1467 973 1467 1053 1413 c 1,12,-1
 1053 1206 l 1,13,14
 972 1283 972 1283 887 1319.5 c 128,-1,15
 802 1356 802 1356 707 1356 c 0,16,17
 510 1356 510 1356 411.5 1203.5 c 128,-1,18
 313 1051 313 1051 313 745 c 0,19,20
 313 434 313 434 408.5 284.5 c 128,-1,21
 504 135 504 135 702 135 c 0,22,23
 769 135 769 135 819.5 150.5 c 128,-1,24
 870 166 870 166 911 199 c 1,25,-1
 911 600 l 1,26,-1
 694 600 l 1,27,-1
 694 766 l 1,28,-1
 1104 766 l 1,29,-1
 1104 123 l 1,0,1
EndSplineSet
EndChar

StartChar: H
Encoding: 72 72 72
Width: 1233
Flags: W
LayerCount: 2
Fore
SplineSet
137 1493 m 1,0,-1
 340 1493 l 1,1,-1
 340 881 l 1,2,-1
 893 881 l 1,3,-1
 893 1493 l 1,4,-1
 1096 1493 l 1,5,-1
 1096 0 l 1,6,-1
 893 0 l 1,7,-1
 893 711 l 1,8,-1
 340 711 l 1,9,-1
 340 0 l 1,10,-1
 137 0 l 1,11,-1
 137 1493 l 1,0,-1
EndSplineSet
EndChar

StartChar: I
Encoding: 73 73 73
Width: 1233
Flags: W
LayerCount: 2
Fore
SplineSet
201 1493 m 1,0,-1
 1030 1493 l 1,1,-1
 1030 1323 l 1,2,-1
 717 1323 l 1,3,-1
 717 170 l 1,4,-1
 1030 170 l 1,5,-1
 1030 0 l 1,6,-1
 201 0 l 1,7,-1
 201 170 l 1,8,-1
 514 170 l 1,9,-1
 514 1323 l 1,10,-1
 201 1323 l 1,11,-1
 201 1493 l 1,0,-1
EndSplineSet
EndChar

StartChar: J
Encoding: 74 74 74
Width: 1233
Flags: W
LayerCount: 2
Fore
SplineSet
109 61 m 1,0,-1
 109 297 l 1,1,2
 200 216 200 216 297 175.5 c 128,-1,3
 394 135 394 135 498 135 c 0,4,5
 641 135 641 135 697.5 209.5 c 128,-1,6
 754 284 754 284 754 487 c 2,7,-1
 754 1323 l 1,8,-1
 373 1323 l 1,9,-1
 373 1493 l 1,10,-1
 956 1493 l 1,11,-1
 956 487 l 2,12,13
 956 205 956 205 850.5 88 c 128,-1,14
 745 -29 745 -29 498 -29 c 0,15,16
 402 -29 402 -29 307 -7 c 128,-1,17
 212 15 212 15 109 61 c 1,0,-1
EndSplineSet
EndChar

StartChar: K
Encoding: 75 75 75
Width: 1233
Flags: W
LayerCount: 2
Fore
SplineSet
137 1493 m 1,0,-1
 340 1493 l 1,1,-1
 340 829 l 1,2,-1
 971 1493 l 1,3,-1
 1208 1493 l 1,4,-1
 627 883 l 1,5,-1
 1225 0 l 1,6,-1
 981 0 l 1,7,-1
 494 748 l 1,8,-1
 340 584 l 1,9,-1
 340 0 l 1,10,-1
 137 0 l 1,11,-1
 137 1493 l 1,0,-1
EndSplineSet
EndChar

StartChar: L
Encoding: 76 76 76
Width: 1233
Flags: W
LayerCount: 2
Fore
SplineSet
215 1493 m 1,0,-1
 418 1493 l 1,1,-1
 418 170 l 1,2,-1
 1139 170 l 1,3,-1
 1139 0 l 1,4,-1
 215 0 l 1,5,-1
 215 1493 l 1,0,-1
EndSplineSet
EndChar

StartChar: M
Encoding: 77 77 77
Width: 1233
Flags: W
LayerCount: 2
Fore
SplineSet
86 1493 m 1,0,-1
 356 1493 l 1,1,-1
 614 733 l 1,2,-1
 874 1493 l 1,3,-1
 1145 1493 l 1,4,-1
 1145 0 l 1,5,-1
 958 0 l 1,6,-1
 958 1319 l 1,7,-1
 692 532 l 1,8,-1
 539 532 l 1,9,-1
 272 1319 l 1,10,-1
 272 0 l 1,11,-1
 86 0 l 1,12,-1
 86 1493 l 1,0,-1
EndSplineSet
EndChar

StartChar: N
Encoding: 78 78 78
Width: 1233
Flags: W
LayerCount: 2
Fore
SplineSet
139 1493 m 1,0,-1
 395 1493 l 1,1,-1
 899 264 l 1,2,-1
 899 1493 l 1,3,-1
 1094 1493 l 1,4,-1
 1094 0 l 1,5,-1
 838 0 l 1,6,-1
 334 1229 l 1,7,-1
 334 0 l 1,8,-1
 139 0 l 1,9,-1
 139 1493 l 1,0,-1
EndSplineSet
EndChar

StartChar: O
Encoding: 79 79 79
Width: 1233
Flags: W
LayerCount: 2
Fore
SplineSet
905 745 m 256,0,1
 905 1074 905 1074 837.5 1215 c 128,-1,2
 770 1356 770 1356 616 1356 c 0,3,4
 463 1356 463 1356 395.5 1215 c 128,-1,5
 328 1074 328 1074 328 745 c 0,6,7
 328 417 328 417 395.5 276 c 128,-1,8
 463 135 463 135 616 135 c 0,9,10
 770 135 770 135 837.5 275.5 c 128,-1,11
 905 416 905 416 905 745 c 256,0,1
1116 745 m 0,12,13
 1116 355 1116 355 992.5 163 c 128,-1,14
 869 -29 869 -29 616 -29 c 256,15,16
 363 -29 363 -29 240 162 c 128,-1,17
 117 353 117 353 117 745 c 0,18,19
 117 1136 117 1136 240.5 1328 c 128,-1,20
 364 1520 364 1520 616 1520 c 0,21,22
 869 1520 869 1520 992.5 1328 c 128,-1,23
 1116 1136 1116 1136 1116 745 c 0,12,13
EndSplineSet
EndChar

StartChar: P
Encoding: 80 80 80
Width: 1233
Flags: W
LayerCount: 2
Fore
SplineSet
399 1327 m 1,0,-1
 399 766 l 1,1,-1
 633 766 l 2,2,3
 773 766 773 766 851.5 840 c 128,-1,4
 930 914 930 914 930 1047 c 256,5,6
 930 1180 930 1180 852 1253.5 c 128,-1,7
 774 1327 774 1327 633 1327 c 2,8,-1
 399 1327 l 1,0,-1
197 1493 m 1,9,-1
 633 1493 l 2,10,11
 883 1493 883 1493 1012 1379.5 c 128,-1,12
 1141 1266 1141 1266 1141 1047 c 0,13,14
 1141 826 1141 826 1012.5 713 c 128,-1,15
 884 600 884 600 633 600 c 2,16,-1
 399 600 l 1,17,-1
 399 0 l 1,18,-1
 197 0 l 1,19,-1
 197 1493 l 1,9,-1
EndSplineSet
EndChar

StartChar: Q
Encoding: 81 81 81
Width: 1233
Flags: W
LayerCount: 2
Fore
SplineSet
655 -27 m 1,0,1
 648 -27 648 -27 635 -28 c 128,-1,2
 622 -29 622 -29 614 -29 c 0,3,4
 364 -29 364 -29 240.5 163 c 128,-1,5
 117 355 117 355 117 745 c 0,6,7
 117 1136 117 1136 240.5 1328 c 128,-1,8
 364 1520 364 1520 616 1520 c 0,9,10
 869 1520 869 1520 992.5 1328 c 128,-1,11
 1116 1136 1116 1136 1116 745 c 0,12,13
 1116 451 1116 451 1047.5 271.5 c 128,-1,14
 979 92 979 92 840 20 c 1,15,-1
 1040 -170 l 1,16,-1
 889 -270 l 1,17,-1
 655 -27 l 1,0,1
905 745 m 256,18,19
 905 1074 905 1074 837.5 1215 c 128,-1,20
 770 1356 770 1356 616 1356 c 0,21,22
 463 1356 463 1356 395.5 1215 c 128,-1,23
 328 1074 328 1074 328 745 c 0,24,25
 328 417 328 417 395.5 276 c 128,-1,26
 463 135 463 135 616 135 c 0,27,28
 770 135 770 135 837.5 275.5 c 128,-1,29
 905 416 905 416 905 745 c 256,18,19
EndSplineSet
EndChar

StartChar: R
Encoding: 82 82 82
Width: 1233
Flags: W
LayerCount: 2
Fore
SplineSet
760 705 m 1,0,1
 838 685 838 685 893 629.5 c 128,-1,2
 948 574 948 574 1030 408 c 2,3,-1
 1233 0 l 1,4,-1
 1016 0 l 1,5,-1
 838 377 l 2,6,7
 761 538 761 538 699.5 584.5 c 128,-1,8
 638 631 638 631 539 631 c 2,9,-1
 346 631 l 1,10,-1
 346 0 l 1,11,-1
 143 0 l 1,12,-1
 143 1493 l 1,13,-1
 559 1493 l 2,14,15
 805 1493 805 1493 936 1382 c 128,-1,16
 1067 1271 1067 1271 1067 1061 c 0,17,18
 1067 913 1067 913 986.5 819.5 c 128,-1,19
 906 726 906 726 760 705 c 1,0,1
346 1327 m 1,20,-1
 346 797 l 1,21,-1
 567 797 l 2,22,23
 712 797 712 797 783 862 c 128,-1,24
 854 927 854 927 854 1061 c 0,25,26
 854 1190 854 1190 778.5 1258.5 c 128,-1,27
 703 1327 703 1327 559 1327 c 2,28,-1
 346 1327 l 1,20,-1
EndSplineSet
EndChar

StartChar: S
Encoding: 83 83 83
Width: 1233
Flags: W
LayerCount: 2
Fore
SplineSet
1012 1442 m 1,0,-1
 1012 1237 l 1,1,2
 920 1296 920 1296 827.5 1326 c 128,-1,3
 735 1356 735 1356 641 1356 c 0,4,5
 498 1356 498 1356 415 1289.5 c 128,-1,6
 332 1223 332 1223 332 1110 c 0,7,8
 332 1011 332 1011 386.5 959 c 128,-1,9
 441 907 441 907 590 872 c 2,10,-1
 696 848 l 2,11,12
 906 799 906 799 1002 694 c 128,-1,13
 1098 589 1098 589 1098 408 c 0,14,15
 1098 195 1098 195 966 83 c 128,-1,16
 834 -29 834 -29 582 -29 c 0,17,18
 477 -29 477 -29 371 -6.5 c 128,-1,19
 265 16 265 16 158 61 c 1,20,-1
 158 276 l 1,21,22
 273 203 273 203 375.5 169 c 128,-1,23
 478 135 478 135 582 135 c 0,24,25
 735 135 735 135 820 203.5 c 128,-1,26
 905 272 905 272 905 395 c 0,27,28
 905 507 905 507 846.5 566 c 128,-1,29
 788 625 788 625 643 657 c 2,30,-1
 535 682 l 2,31,32
 327 729 327 729 233 824 c 128,-1,33
 139 919 139 919 139 1079 c 0,34,35
 139 1279 139 1279 273.5 1399.5 c 128,-1,36
 408 1520 408 1520 631 1520 c 0,37,38
 717 1520 717 1520 812 1500.5 c 128,-1,39
 907 1481 907 1481 1012 1442 c 1,0,-1
EndSplineSet
EndChar

StartChar: T
Encoding: 84 84 84
Width: 1233
Flags: W
LayerCount: 2
Fore
SplineSet
47 1493 m 1,0,-1
 1186 1493 l 1,1,-1
 1186 1323 l 1,2,-1
 719 1323 l 1,3,-1
 719 0 l 1,4,-1
 516 0 l 1,5,-1
 516 1323 l 1,6,-1
 47 1323 l 1,7,-1
 47 1493 l 1,0,-1
EndSplineSet
EndChar

StartChar: U
Encoding: 85 85 85
Width: 1233
Flags: W
LayerCount: 2
Fore
SplineSet
147 573 m 2,0,-1
 147 1493 l 1,1,-1
 350 1493 l 1,2,-1
 350 481 l 2,3,4
 350 372 350 372 356 325.5 c 128,-1,5
 362 279 362 279 377 254 c 0,6,7
 409 195 409 195 469.5 165 c 128,-1,8
 530 135 530 135 616 135 c 0,9,10
 703 135 703 135 763 165 c 128,-1,11
 823 195 823 195 856 254 c 0,12,13
 871 279 871 279 877 325 c 128,-1,14
 883 371 883 371 883 479 c 2,15,-1
 883 573 l 1,16,-1
 883 1493 l 1,17,-1
 1085 1493 l 1,18,-1
 1085 573 l 2,19,20
 1085 344 1085 344 1056.5 247.5 c 128,-1,21
 1028 151 1028 151 958 88 c 0,22,23
 892 29 892 29 807 0 c 128,-1,24
 722 -29 722 -29 616 -29 c 0,25,26
 511 -29 511 -29 426 0 c 128,-1,27
 341 29 341 29 274 88 c 0,28,29
 205 150 205 150 176 248.5 c 128,-1,30
 147 347 147 347 147 573 c 2,0,-1
EndSplineSet
EndChar

StartChar: V
Encoding: 86 86 86
Width: 1233
Flags: W
LayerCount: 2
Fore
SplineSet
616 170 m 1,0,-1
 967 1493 l 1,1,-1
 1176 1493 l 1,2,-1
 739 0 l 1,3,-1
 494 0 l 1,4,-1
 57 1493 l 1,5,-1
 266 1493 l 1,6,-1
 616 170 l 1,0,-1
EndSplineSet
EndChar

StartChar: W
Encoding: 87 87 87
Width: 1233
Flags: W
LayerCount: 2
Fore
SplineSet
0 1493 m 1,0,-1
 197 1493 l 1,1,-1
 340 281 l 1,2,-1
 510 1083 l 1,3,-1
 721 1083 l 1,4,-1
 893 279 l 1,5,-1
 1036 1493 l 1,6,-1
 1233 1493 l 1,7,-1
 1010 0 l 1,8,-1
 819 0 l 1,9,-1
 616 887 l 1,10,-1
 414 0 l 1,11,-1
 223 0 l 1,12,-1
 0 1493 l 1,0,-1
EndSplineSet
EndChar

StartChar: X
Encoding: 88 88 88
Width: 1233
Flags: W
LayerCount: 2
Fore
SplineSet
86 1493 m 1,0,-1
 303 1493 l 1,1,-1
 631 930 l 1,2,-1
 965 1493 l 1,3,-1
 1182 1493 l 1,4,-1
 735 791 l 1,5,-1
 1214 0 l 1,6,-1
 997 0 l 1,7,-1
 631 643 l 1,8,-1
 236 0 l 1,9,-1
 18 0 l 1,10,-1
 518 791 l 1,11,-1
 86 1493 l 1,0,-1
EndSplineSet
EndChar

StartChar: Y
Encoding: 89 89 89
Width: 1233
Flags: W
LayerCount: 2
Fore
SplineSet
37 1493 m 1,0,-1
 252 1493 l 1,1,-1
 616 834 l 1,2,-1
 979 1493 l 1,3,-1
 1196 1493 l 1,4,-1
 717 670 l 1,5,-1
 717 0 l 1,6,-1
 514 0 l 1,7,-1
 514 670 l 1,8,-1
 37 1493 l 1,0,-1
EndSplineSet
EndChar

StartChar: Z
Encoding: 90 90 90
Width: 1233
Flags: W
LayerCount: 2
Fore
SplineSet
178 1493 m 1,0,-1
 1147 1493 l 1,1,-1
 1147 1339 l 1,2,-1
 367 170 l 1,3,-1
 1169 170 l 1,4,-1
 1169 0 l 1,5,-1
 156 0 l 1,6,-1
 156 154 l 1,7,-1
 915 1323 l 1,8,-1
 178 1323 l 1,9,-1
 178 1493 l 1,0,-1
EndSplineSet
EndChar

StartChar: bracketleft
Encoding: 91 91 91
Width: 1233
Flags: W
LayerCount: 2
Fore
SplineSet
463 1556 m 1,0,-1
 887 1556 l 1,1,-1
 887 1413 l 1,2,-1
 647 1413 l 1,3,-1
 647 -127 l 1,4,-1
 887 -127 l 1,5,-1
 887 -270 l 1,6,-1
 463 -270 l 1,7,-1
 463 1556 l 1,0,-1
EndSplineSet
EndChar

StartChar: backslash
Encoding: 92 92 92
Width: 1233
Flags: W
LayerCount: 2
Fore
SplineSet
293 1493 m 1,0,-1
 1079 -190 l 1,1,-1
 889 -190 l 1,2,-1
 102 1493 l 1,3,-1
 293 1493 l 1,0,-1
EndSplineSet
EndChar

StartChar: bracketright
Encoding: 93 93 93
Width: 1233
Flags: W
LayerCount: 2
Fore
SplineSet
770 1556 m 1,0,-1
 770 -270 l 1,1,-1
 346 -270 l 1,2,-1
 346 -127 l 1,3,-1
 586 -127 l 1,4,-1
 586 1413 l 1,5,-1
 346 1413 l 1,6,-1
 346 1556 l 1,7,-1
 770 1556 l 1,0,-1
EndSplineSet
EndChar

StartChar: asciicircum
Encoding: 94 94 94
Width: 1233
Flags: W
LayerCount: 2
Fore
SplineSet
705 1493 m 1,0,-1
 1161 936 l 1,1,-1
 983 936 l 1,2,-1
 616 1331 l 1,3,-1
 250 936 l 1,4,-1
 72 936 l 1,5,-1
 528 1493 l 1,6,-1
 705 1493 l 1,0,-1
EndSplineSet
EndChar

StartChar: underscore
Encoding: 95 95 95
Width: 1233
Flags: W
LayerCount: 2
Fore
SplineSet
1024 -403 m 1,0,-1
 1024 -483 l 1,1,-1
 0 -483 l 1,2,-1
 0 -403 l 1,3,-1
 1024 -403 l 1,0,-1
EndSplineSet
EndChar

StartChar: grave
Encoding: 96 96 96
Width: 1233
Flags: W
LayerCount: 2
Fore
SplineSet
477 1638 m 1,0,-1
 758 1262 l 1,1,-1
 604 1262 l 1,2,-1
 279 1638 l 1,3,-1
 477 1638 l 1,0,-1
EndSplineSet
EndChar

StartChar: a
Encoding: 97 97 97
Width: 1233
Flags: W
LayerCount: 2
Fore
SplineSet
702 563 m 1,0,-1
 641 563 l 2,1,2
 480 563 480 563 398.5 506.5 c 128,-1,3
 317 450 317 450 317 338 c 0,4,5
 317 237 317 237 378 181 c 128,-1,6
 439 125 439 125 547 125 c 0,7,8
 699 125 699 125 786 230.5 c 128,-1,9
 873 336 873 336 874 522 c 2,10,-1
 874 563 l 1,11,-1
 702 563 l 1,0,-1
1059 639 m 2,12,-1
 1059 0 l 1,13,-1
 874 0 l 1,14,-1
 874 166 l 1,15,16
 815 66 815 66 725.5 18.5 c 128,-1,17
 636 -29 636 -29 508 -29 c 0,18,19
 337 -29 337 -29 235 67.5 c 128,-1,20
 133 164 133 164 133 326 c 0,21,22
 133 513 133 513 258.5 610 c 128,-1,23
 384 707 384 707 627 707 c 2,24,-1
 874 707 l 1,25,-1
 874 736 l 2,26,27
 873 870 873 870 806 930.5 c 128,-1,28
 739 991 739 991 592 991 c 0,29,30
 498 991 498 991 402 964 c 128,-1,31
 306 937 306 937 215 885 c 1,32,-1
 215 1069 l 1,33,34
 317 1108 317 1108 410.5 1127.5 c 128,-1,35
 504 1147 504 1147 592 1147 c 0,36,37
 731 1147 731 1147 829.5 1106 c 128,-1,38
 928 1065 928 1065 989 983 c 0,39,40
 1027 933 1027 933 1043 859.5 c 128,-1,41
 1059 786 1059 786 1059 639 c 2,12,-1
EndSplineSet
EndChar

StartChar: b
Encoding: 98 98 98
Width: 1233
Flags: W
LayerCount: 2
Fore
SplineSet
918 559 m 256,0,1
 918 773 918 773 850 882 c 128,-1,2
 782 991 782 991 649 991 c 0,3,4
 515 991 515 991 446 881.5 c 128,-1,5
 377 772 377 772 377 559 c 0,6,7
 377 347 377 347 446 237 c 128,-1,8
 515 127 515 127 649 127 c 0,9,10
 782 127 782 127 850 236 c 128,-1,11
 918 345 918 345 918 559 c 256,0,1
377 977 m 1,12,13
 421 1059 421 1059 498.5 1103 c 128,-1,14
 576 1147 576 1147 678 1147 c 0,15,16
 880 1147 880 1147 996 991.5 c 128,-1,17
 1112 836 1112 836 1112 563 c 0,18,19
 1112 286 1112 286 995.5 128.5 c 128,-1,20
 879 -29 879 -29 676 -29 c 0,21,22
 576 -29 576 -29 499.5 14.5 c 128,-1,23
 423 58 423 58 377 141 c 1,24,-1
 377 0 l 1,25,-1
 193 0 l 1,26,-1
 193 1556 l 1,27,-1
 377 1556 l 1,28,-1
 377 977 l 1,12,13
EndSplineSet
EndChar

StartChar: c
Encoding: 99 99 99
Width: 1233
Flags: W
LayerCount: 2
Fore
SplineSet
1061 57 m 1,0,1
 987 14 987 14 908.5 -7.5 c 128,-1,2
 830 -29 830 -29 748 -29 c 0,3,4
 488 -29 488 -29 341.5 127 c 128,-1,5
 195 283 195 283 195 559 c 256,6,7
 195 835 195 835 341.5 991 c 128,-1,8
 488 1147 488 1147 748 1147 c 0,9,10
 829 1147 829 1147 906 1126 c 128,-1,11
 983 1105 983 1105 1061 1061 c 1,12,-1
 1061 868 l 1,13,14
 988 933 988 933 914.5 962 c 128,-1,15
 841 991 841 991 748 991 c 0,16,17
 575 991 575 991 482 879 c 128,-1,18
 389 767 389 767 389 559 c 0,19,20
 389 352 389 352 482.5 239.5 c 128,-1,21
 576 127 576 127 748 127 c 0,22,23
 844 127 844 127 920 156.5 c 128,-1,24
 996 186 996 186 1061 248 c 1,25,-1
 1061 57 l 1,0,1
EndSplineSet
EndChar

StartChar: d
Encoding: 100 100 100
Width: 1233
Flags: W
LayerCount: 2
Fore
SplineSet
858 977 m 1,0,-1
 858 1556 l 1,1,-1
 1042 1556 l 1,2,-1
 1042 0 l 1,3,-1
 858 0 l 1,4,-1
 858 141 l 1,5,6
 812 58 812 58 735.5 14.5 c 128,-1,7
 659 -29 659 -29 559 -29 c 0,8,9
 356 -29 356 -29 239.5 128.5 c 128,-1,10
 123 286 123 286 123 563 c 0,11,12
 123 836 123 836 240 991.5 c 128,-1,13
 357 1147 357 1147 559 1147 c 0,14,15
 660 1147 660 1147 737 1103.5 c 128,-1,16
 814 1060 814 1060 858 977 c 1,0,-1
317 559 m 256,17,18
 317 345 317 345 385 236 c 128,-1,19
 453 127 453 127 586 127 c 256,20,21
 719 127 719 127 788.5 237 c 128,-1,22
 858 347 858 347 858 559 c 0,23,24
 858 772 858 772 788.5 881.5 c 128,-1,25
 719 991 719 991 586 991 c 256,26,27
 453 991 453 991 385 882 c 128,-1,28
 317 773 317 773 317 559 c 256,17,18
EndSplineSet
EndChar

StartChar: e
Encoding: 101 101 101
Width: 1233
Flags: W
LayerCount: 2
Fore
SplineSet
1112 606 m 2,0,-1
 1112 516 l 1,1,-1
 315 516 l 1,2,-1
 315 510 l 2,3,4
 315 327 315 327 410.5 227 c 128,-1,5
 506 127 506 127 680 127 c 0,6,7
 768 127 768 127 864 155 c 128,-1,8
 960 183 960 183 1069 240 c 1,9,-1
 1069 57 l 1,10,11
 964 14 964 14 866.5 -7.5 c 128,-1,12
 769 -29 769 -29 678 -29 c 0,13,14
 417 -29 417 -29 270 127.5 c 128,-1,15
 123 284 123 284 123 559 c 0,16,17
 123 827 123 827 267 987 c 128,-1,18
 411 1147 411 1147 651 1147 c 0,19,20
 865 1147 865 1147 988.5 1002 c 128,-1,21
 1112 857 1112 857 1112 606 c 2,0,-1
928 660 m 1,22,23
 924 822 924 822 851.5 906.5 c 128,-1,24
 779 991 779 991 643 991 c 0,25,26
 510 991 510 991 424 903 c 128,-1,27
 338 815 338 815 322 659 c 1,28,-1
 928 660 l 1,22,23
EndSplineSet
EndChar

StartChar: f
Encoding: 102 102 102
Width: 1233
Flags: W
LayerCount: 2
Fore
SplineSet
1063 1556 m 1,0,-1
 1063 1403 l 1,1,-1
 854 1403 l 2,2,3
 755 1403 755 1403 716.5 1362.5 c 128,-1,4
 678 1322 678 1322 678 1219 c 2,5,-1
 678 1120 l 1,6,-1
 1063 1120 l 1,7,-1
 1063 977 l 1,8,-1
 678 977 l 1,9,-1
 678 0 l 1,10,-1
 494 0 l 1,11,-1
 494 977 l 1,12,-1
 195 977 l 1,13,-1
 195 1120 l 1,14,-1
 494 1120 l 1,15,-1
 494 1198 l 2,16,17
 494 1382 494 1382 578.5 1469 c 128,-1,18
 663 1556 663 1556 842 1556 c 2,19,-1
 1063 1556 l 1,0,-1
EndSplineSet
EndChar

StartChar: g
Encoding: 103 103 103
Width: 1233
Flags: W
LayerCount: 2
Fore
SplineSet
858 569 m 0,0,1
 858 776 858 776 790.5 883.5 c 128,-1,2
 723 991 723 991 594 991 c 0,3,4
 459 991 459 991 388 883.5 c 128,-1,5
 317 776 317 776 317 569 c 256,6,7
 317 362 317 362 388.5 253.5 c 128,-1,8
 460 145 460 145 596 145 c 0,9,10
 723 145 723 145 790.5 254 c 128,-1,11
 858 363 858 363 858 569 c 0,0,1
1042 72 m 2,12,13
 1042 -180 1042 -180 923 -310 c 128,-1,14
 804 -440 804 -440 573 -440 c 0,15,16
 497 -440 497 -440 414 -426 c 128,-1,17
 331 -412 331 -412 248 -385 c 1,18,-1
 248 -203 l 1,19,20
 346 -249 346 -249 426 -271 c 128,-1,21
 506 -293 506 -293 573 -293 c 0,22,23
 722 -293 722 -293 790 -212 c 128,-1,24
 858 -131 858 -131 858 45 c 2,25,-1
 858 53 l 1,26,-1
 858 178 l 1,27,28
 814 84 814 84 738 38 c 128,-1,29
 662 -8 662 -8 553 -8 c 0,30,31
 357 -8 357 -8 240 149 c 128,-1,32
 123 306 123 306 123 569 c 0,33,34
 123 833 123 833 240 990 c 128,-1,35
 357 1147 357 1147 553 1147 c 0,36,37
 661 1147 661 1147 736 1104 c 128,-1,38
 811 1061 811 1061 858 971 c 1,39,-1
 858 1116 l 1,40,-1
 1042 1116 l 1,41,-1
 1042 72 l 2,12,13
EndSplineSet
EndChar

StartChar: h
Encoding: 104 104 104
Width: 1233
Flags: W
LayerCount: 2
Fore
SplineSet
1051 694 m 2,0,-1
 1051 0 l 1,1,-1
 866 0 l 1,2,-1
 866 694 l 2,3,4
 866 845 866 845 813 916 c 128,-1,5
 760 987 760 987 647 987 c 0,6,7
 518 987 518 987 448.5 895.5 c 128,-1,8
 379 804 379 804 379 633 c 2,9,-1
 379 0 l 1,10,-1
 195 0 l 1,11,-1
 195 1556 l 1,12,-1
 379 1556 l 1,13,-1
 379 952 l 1,14,15
 428 1048 428 1048 512 1097.5 c 128,-1,16
 596 1147 596 1147 711 1147 c 0,17,18
 882 1147 882 1147 966.5 1034.5 c 128,-1,19
 1051 922 1051 922 1051 694 c 2,0,-1
EndSplineSet
EndChar

StartChar: i
Encoding: 105 105 105
Width: 1233
Flags: W
LayerCount: 2
Fore
SplineSet
256 1120 m 1,0,-1
 727 1120 l 1,1,-1
 727 143 l 1,2,-1
 1092 143 l 1,3,-1
 1092 0 l 1,4,-1
 178 0 l 1,5,-1
 178 143 l 1,6,-1
 543 143 l 1,7,-1
 543 977 l 1,8,-1
 256 977 l 1,9,-1
 256 1120 l 1,0,-1
543 1556 m 1,10,-1
 727 1556 l 1,11,-1
 727 1323 l 1,12,-1
 543 1323 l 1,13,-1
 543 1556 l 1,10,-1
EndSplineSet
EndChar

StartChar: j
Encoding: 106 106 106
Width: 1233
Flags: W
LayerCount: 2
Fore
SplineSet
600 -20 m 2,0,-1
 600 977 l 1,1,-1
 283 977 l 1,2,-1
 283 1120 l 1,3,-1
 784 1120 l 1,4,-1
 784 -20 l 2,5,6
 784 -215 784 -215 694.5 -320.5 c 128,-1,7
 605 -426 605 -426 440 -426 c 2,8,-1
 186 -426 l 1,9,-1
 186 -270 l 1,10,-1
 420 -270 l 2,11,12
 510 -270 510 -270 555 -207.5 c 128,-1,13
 600 -145 600 -145 600 -20 c 2,0,-1
600 1556 m 1,14,-1
 784 1556 l 1,15,-1
 784 1323 l 1,16,-1
 600 1323 l 1,17,-1
 600 1556 l 1,14,-1
EndSplineSet
EndChar

StartChar: k
Encoding: 107 107 107
Width: 1233
Flags: W
LayerCount: 2
Fore
SplineSet
236 1556 m 1,0,-1
 426 1556 l 1,1,-1
 426 655 l 1,2,-1
 909 1120 l 1,3,-1
 1133 1120 l 1,4,-1
 692 698 l 1,5,-1
 1202 0 l 1,6,-1
 977 0 l 1,7,-1
 563 578 l 1,8,-1
 426 449 l 1,9,-1
 426 0 l 1,10,-1
 236 0 l 1,11,-1
 236 1556 l 1,0,-1
EndSplineSet
EndChar

StartChar: l
Encoding: 108 108 108
Width: 1233
Flags: W
LayerCount: 2
Fore
SplineSet
639 406 m 2,0,1
 639 282 639 282 684.5 219 c 128,-1,2
 730 156 730 156 819 156 c 2,3,-1
 1034 156 l 1,4,-1
 1034 0 l 1,5,-1
 801 0 l 2,6,7
 636 0 636 0 545.5 106 c 128,-1,8
 455 212 455 212 455 406 c 2,9,-1
 455 1423 l 1,10,-1
 160 1423 l 1,11,-1
 160 1567 l 1,12,-1
 639 1567 l 1,13,-1
 639 406 l 2,0,1
EndSplineSet
EndChar

StartChar: m
Encoding: 109 109 109
Width: 1233
Flags: W
LayerCount: 2
Fore
SplineSet
676 1006 m 1,0,1
 710 1078 710 1078 762.5 1112.5 c 128,-1,2
 815 1147 815 1147 889 1147 c 0,3,4
 1024 1147 1024 1147 1079.5 1042.5 c 128,-1,5
 1135 938 1135 938 1135 649 c 2,6,-1
 1135 0 l 1,7,-1
 967 0 l 1,8,-1
 967 641 l 2,9,10
 967 878 967 878 940.5 935.5 c 128,-1,11
 914 993 914 993 844 993 c 0,12,13
 764 993 764 993 734.5 931.5 c 128,-1,14
 705 870 705 870 705 641 c 2,15,-1
 705 0 l 1,16,-1
 537 0 l 1,17,-1
 537 641 l 2,18,19
 537 881 537 881 508.5 937 c 128,-1,20
 480 993 480 993 406 993 c 0,21,22
 333 993 333 993 304.5 931.5 c 128,-1,23
 276 870 276 870 276 641 c 2,24,-1
 276 0 l 1,25,-1
 109 0 l 1,26,-1
 109 1120 l 1,27,-1
 276 1120 l 1,28,-1
 276 1024 l 1,29,30
 309 1084 309 1084 358.5 1115.5 c 128,-1,31
 408 1147 408 1147 471 1147 c 0,32,33
 547 1147 547 1147 597.5 1112 c 128,-1,34
 648 1077 648 1077 676 1006 c 1,0,1
EndSplineSet
EndChar

StartChar: n
Encoding: 110 110 110
Width: 1233
Flags: W
LayerCount: 2
Fore
SplineSet
1051 694 m 2,0,-1
 1051 0 l 1,1,-1
 866 0 l 1,2,-1
 866 694 l 2,3,4
 866 845 866 845 813 916 c 128,-1,5
 760 987 760 987 647 987 c 0,6,7
 518 987 518 987 448.5 895.5 c 128,-1,8
 379 804 379 804 379 633 c 2,9,-1
 379 0 l 1,10,-1
 195 0 l 1,11,-1
 195 1120 l 1,12,-1
 379 1120 l 1,13,-1
 379 952 l 1,14,15
 428 1048 428 1048 512 1097.5 c 128,-1,16
 596 1147 596 1147 711 1147 c 0,17,18
 882 1147 882 1147 966.5 1034.5 c 128,-1,19
 1051 922 1051 922 1051 694 c 2,0,-1
EndSplineSet
EndChar

StartChar: o
Encoding: 111 111 111
Width: 1233
Flags: W
LayerCount: 2
Fore
SplineSet
616 991 m 0,0,1
 476 991 476 991 404 882 c 128,-1,2
 332 773 332 773 332 559 c 0,3,4
 332 346 332 346 404 236.5 c 128,-1,5
 476 127 476 127 616 127 c 0,6,7
 757 127 757 127 829 236.5 c 128,-1,8
 901 346 901 346 901 559 c 0,9,10
 901 773 901 773 829 882 c 128,-1,11
 757 991 757 991 616 991 c 0,0,1
616 1147 m 256,12,13
 849 1147 849 1147 972.5 996 c 128,-1,14
 1096 845 1096 845 1096 559 c 0,15,16
 1096 272 1096 272 973 121.5 c 128,-1,17
 850 -29 850 -29 616 -29 c 0,18,19
 383 -29 383 -29 260 121.5 c 128,-1,20
 137 272 137 272 137 559 c 0,21,22
 137 845 137 845 260 996 c 128,-1,23
 383 1147 383 1147 616 1147 c 256,12,13
EndSplineSet
EndChar

StartChar: p
Encoding: 112 112 112
Width: 1233
Flags: W
LayerCount: 2
Fore
SplineSet
375 141 m 1,0,-1
 375 -426 l 1,1,-1
 190 -426 l 1,2,-1
 190 1120 l 1,3,-1
 375 1120 l 1,4,-1
 375 977 l 1,5,6
 421 1060 421 1060 497.5 1103.5 c 128,-1,7
 574 1147 574 1147 674 1147 c 0,8,9
 877 1147 877 1147 992.5 990 c 128,-1,10
 1108 833 1108 833 1108 555 c 0,11,12
 1108 282 1108 282 992 126.5 c 128,-1,13
 876 -29 876 -29 674 -29 c 0,14,15
 572 -29 572 -29 495.5 14.5 c 128,-1,16
 419 58 419 58 375 141 c 1,0,-1
915 559 m 256,17,18
 915 773 915 773 847.5 882 c 128,-1,19
 780 991 780 991 647 991 c 0,20,21
 513 991 513 991 444 881.5 c 128,-1,22
 375 772 375 772 375 559 c 0,23,24
 375 347 375 347 444 237 c 128,-1,25
 513 127 513 127 647 127 c 0,26,27
 780 127 780 127 847.5 236 c 128,-1,28
 915 345 915 345 915 559 c 256,17,18
EndSplineSet
EndChar

StartChar: q
Encoding: 113 113 113
Width: 1233
Flags: W
LayerCount: 2
Fore
SplineSet
332 555 m 256,0,1
 332 341 332 341 399.5 232 c 128,-1,2
 467 123 467 123 600 123 c 256,3,4
 733 123 733 123 801.5 232.5 c 128,-1,5
 870 342 870 342 870 555 c 256,6,7
 870 768 870 768 801.5 877.5 c 128,-1,8
 733 987 733 987 600 987 c 256,9,10
 467 987 467 987 399.5 878 c 128,-1,11
 332 769 332 769 332 555 c 256,0,1
870 139 m 1,12,13
 825 56 825 56 748.5 11.5 c 128,-1,14
 672 -33 672 -33 571 -33 c 0,15,16
 370 -33 370 -33 253.5 122.5 c 128,-1,17
 137 278 137 278 137 551 c 0,18,19
 137 829 137 829 253 986 c 128,-1,20
 369 1143 369 1143 571 1143 c 0,21,22
 671 1143 671 1143 747.5 1099.5 c 128,-1,23
 824 1056 824 1056 870 973 c 1,24,-1
 870 1116 l 1,25,-1
 1055 1116 l 1,26,-1
 1055 -430 l 1,27,-1
 870 -430 l 1,28,-1
 870 139 l 1,12,13
EndSplineSet
EndChar

StartChar: r
Encoding: 114 114 114
Width: 1233
Flags: W
LayerCount: 2
Fore
SplineSet
1155 889 m 1,0,1
 1096 935 1096 935 1035 956 c 128,-1,2
 974 977 974 977 901 977 c 0,3,4
 729 977 729 977 638 869 c 128,-1,5
 547 761 547 761 547 557 c 2,6,-1
 547 0 l 1,7,-1
 362 0 l 1,8,-1
 362 1120 l 1,9,-1
 547 1120 l 1,10,-1
 547 901 l 1,11,12
 593 1020 593 1020 688.5 1083.5 c 128,-1,13
 784 1147 784 1147 915 1147 c 0,14,15
 983 1147 983 1147 1042 1130 c 128,-1,16
 1101 1113 1101 1113 1155 1077 c 1,17,-1
 1155 889 l 1,0,1
EndSplineSet
EndChar

StartChar: s
Encoding: 115 115 115
Width: 1233
Flags: W
LayerCount: 2
Fore
SplineSet
973 1081 m 1,0,-1
 973 901 l 1,1,2
 894 947 894 947 814 970 c 128,-1,3
 734 993 734 993 651 993 c 0,4,5
 526 993 526 993 464.5 952.5 c 128,-1,6
 403 912 403 912 403 829 c 0,7,8
 403 754 403 754 449 717 c 128,-1,9
 495 680 495 680 678 645 c 2,10,-1
 752 631 l 2,11,12
 889 605 889 605 959.5 527 c 128,-1,13
 1030 449 1030 449 1030 324 c 0,14,15
 1030 158 1030 158 912 64.5 c 128,-1,16
 794 -29 794 -29 584 -29 c 0,17,18
 501 -29 501 -29 410 -11.5 c 128,-1,19
 319 6 319 6 213 41 c 1,20,-1
 213 231 l 1,21,22
 316 178 316 178 410 151.5 c 128,-1,23
 504 125 504 125 588 125 c 0,24,25
 710 125 710 125 777 174.5 c 128,-1,26
 844 224 844 224 844 313 c 0,27,28
 844 441 844 441 599 490 c 1,29,-1
 591 492 l 1,30,-1
 522 506 l 2,31,32
 363 537 363 537 290 610.5 c 128,-1,33
 217 684 217 684 217 811 c 0,34,35
 217 972 217 972 326 1059.5 c 128,-1,36
 435 1147 435 1147 637 1147 c 0,37,38
 727 1147 727 1147 810 1130.5 c 128,-1,39
 893 1114 893 1114 973 1081 c 1,0,-1
EndSplineSet
EndChar

StartChar: t
Encoding: 116 116 116
Width: 1233
Flags: W
LayerCount: 2
Fore
SplineSet
614 1438 m 1,0,-1
 614 1120 l 1,1,-1
 1032 1120 l 1,2,-1
 1032 977 l 1,3,-1
 614 977 l 1,4,-1
 614 369 l 2,5,6
 614 245 614 245 661 196 c 128,-1,7
 708 147 708 147 825 147 c 2,8,-1
 1032 147 l 1,9,-1
 1032 0 l 1,10,-1
 807 0 l 2,11,12
 600 0 600 0 515 83 c 128,-1,13
 430 166 430 166 430 369 c 2,14,-1
 430 977 l 1,15,-1
 131 977 l 1,16,-1
 131 1120 l 1,17,-1
 430 1120 l 1,18,-1
 430 1438 l 1,19,-1
 614 1438 l 1,0,-1
EndSplineSet
EndChar

StartChar: u
Encoding: 117 117 117
Width: 1233
Flags: W
LayerCount: 2
Fore
SplineSet
195 424 m 2,0,-1
 195 1118 l 1,1,-1
 379 1118 l 1,2,-1
 379 424 l 2,3,4
 379 273 379 273 432.5 202 c 128,-1,5
 486 131 486 131 598 131 c 0,6,7
 728 131 728 131 797 222.5 c 128,-1,8
 866 314 866 314 866 485 c 2,9,-1
 866 1118 l 1,10,-1
 1051 1118 l 1,11,-1
 1051 0 l 1,12,-1
 866 0 l 1,13,-1
 866 168 l 1,14,15
 817 71 817 71 732.5 21 c 128,-1,16
 648 -29 648 -29 535 -29 c 0,17,18
 363 -29 363 -29 279 83.5 c 128,-1,19
 195 196 195 196 195 424 c 2,0,-1
EndSplineSet
EndChar

StartChar: v
Encoding: 118 118 118
Width: 1233
Flags: W
LayerCount: 2
Fore
SplineSet
100 1120 m 1,0,-1
 291 1120 l 1,1,-1
 616 180 l 1,2,-1
 942 1120 l 1,3,-1
 1133 1120 l 1,4,-1
 735 0 l 1,5,-1
 498 0 l 1,6,-1
 100 1120 l 1,0,-1
EndSplineSet
EndChar

StartChar: w
Encoding: 119 119 119
Width: 1233
Flags: W
LayerCount: 2
Fore
SplineSet
0 1120 m 1,0,-1
 182 1120 l 1,1,-1
 377 215 l 1,2,-1
 537 793 l 1,3,-1
 694 793 l 1,4,-1
 856 215 l 1,5,-1
 1051 1120 l 1,6,-1
 1233 1120 l 1,7,-1
 971 0 l 1,8,-1
 795 0 l 1,9,-1
 616 614 l 1,10,-1
 438 0 l 1,11,-1
 262 0 l 1,12,-1
 0 1120 l 1,0,-1
EndSplineSet
EndChar

StartChar: x
Encoding: 120 120 120
Width: 1233
Flags: W
LayerCount: 2
Fore
SplineSet
1118 1120 m 1,0,-1
 717 584 l 1,1,-1
 1157 0 l 1,2,-1
 944 0 l 1,3,-1
 616 449 l 1,4,-1
 289 0 l 1,5,-1
 76 0 l 1,6,-1
 516 584 l 1,7,-1
 115 1120 l 1,8,-1
 319 1120 l 1,9,-1
 616 715 l 1,10,-1
 911 1120 l 1,11,-1
 1118 1120 l 1,0,-1
EndSplineSet
EndChar

StartChar: y
Encoding: 121 121 121
Width: 1233
Flags: W
LayerCount: 2
Fore
SplineSet
858 360 m 2,0,1
 812 243 812 243 741 52 c 0,2,3
 642 -212 642 -212 608 -270 c 0,4,5
 562 -348 562 -348 493 -387 c 128,-1,6
 424 -426 424 -426 332 -426 c 2,7,-1
 184 -426 l 1,8,-1
 184 -272 l 1,9,-1
 293 -272 l 2,10,11
 374 -272 374 -272 420 -225 c 128,-1,12
 466 -178 466 -178 537 18 c 1,13,-1
 104 1120 l 1,14,-1
 299 1120 l 1,15,-1
 631 244 l 1,16,-1
 958 1120 l 1,17,-1
 1153 1120 l 1,18,-1
 858 360 l 2,0,1
EndSplineSet
EndChar

StartChar: z
Encoding: 122 122 122
Width: 1233
Flags: W
LayerCount: 2
Fore
SplineSet
227 1122 m 1,0,-1
 1040 1122 l 1,1,-1
 1040 954 l 1,2,-1
 397 150 l 1,3,-1
 1040 150 l 1,4,-1
 1040 0 l 1,5,-1
 203 0 l 1,6,-1
 203 170 l 1,7,-1
 846 975 l 1,8,-1
 227 975 l 1,9,-1
 227 1122 l 1,0,-1
EndSplineSet
EndChar

StartChar: braceleft
Encoding: 123 123 123
Width: 1233
Flags: W
LayerCount: 2
Fore
SplineSet
1012 -190 m 1,0,-1
 1012 -334 l 1,1,-1
 948 -334 l 2,2,3
 699 -334 699 -334 614.5 -260 c 128,-1,4
 530 -186 530 -186 530 35 c 2,5,-1
 530 274 l 2,6,7
 530 425 530 425 476.5 483 c 128,-1,8
 423 541 423 541 283 541 c 2,9,-1
 221 541 l 1,10,-1
 221 684 l 1,11,-1
 283 684 l 2,12,13
 424 684 424 684 477 741 c 128,-1,14
 530 798 530 798 530 948 c 2,15,-1
 530 1188 l 2,16,17
 530 1409 530 1409 614.5 1482.5 c 128,-1,18
 699 1556 699 1556 948 1556 c 2,19,-1
 1012 1556 l 1,20,-1
 1012 1413 l 1,21,-1
 942 1413 l 2,22,23
 802 1413 802 1413 759.5 1369.5 c 128,-1,24
 717 1326 717 1326 717 1184 c 2,25,-1
 717 936 l 2,26,27
 717 779 717 779 671.5 708 c 128,-1,28
 626 637 626 637 516 612 c 1,29,30
 627 585 627 585 672 514 c 128,-1,31
 717 443 717 443 717 287 c 2,32,-1
 717 39 l 2,33,34
 717 -104 717 -104 759.5 -147 c 128,-1,35
 802 -190 802 -190 942 -190 c 2,36,-1
 1012 -190 l 1,0,-1
EndSplineSet
EndChar

StartChar: bar
Encoding: 124 124 124
Width: 1233
Flags: W
LayerCount: 2
Fore
SplineSet
702 1565 m 1,0,-1
 702 -483 l 1,1,-1
 530 -483 l 1,2,-1
 530 1565 l 1,3,-1
 702 1565 l 1,0,-1
EndSplineSet
EndChar

StartChar: braceright
Encoding: 125 125 125
Width: 1233
Flags: W
LayerCount: 2
Fore
SplineSet
221 -190 m 1,0,-1
 289 -190 l 2,1,2
 430 -190 430 -190 473 -146 c 128,-1,3
 516 -102 516 -102 516 39 c 2,4,-1
 516 287 l 2,5,6
 516 443 516 443 561 514 c 128,-1,7
 606 585 606 585 717 612 c 1,8,9
 607 637 607 637 561.5 708 c 128,-1,10
 516 779 516 779 516 936 c 2,11,-1
 516 1184 l 2,12,13
 516 1325 516 1325 473 1369 c 128,-1,14
 430 1413 430 1413 289 1413 c 2,15,-1
 221 1413 l 1,16,-1
 221 1556 l 1,17,-1
 283 1556 l 2,18,19
 532 1556 532 1556 616 1482.5 c 128,-1,20
 700 1409 700 1409 700 1188 c 2,21,-1
 700 948 l 2,22,23
 700 798 700 798 753.5 741 c 128,-1,24
 807 684 807 684 948 684 c 2,25,-1
 1012 684 l 1,26,-1
 1012 541 l 1,27,-1
 948 541 l 2,28,29
 807 541 807 541 753.5 483 c 128,-1,30
 700 425 700 425 700 274 c 2,31,-1
 700 35 l 2,32,33
 700 -186 700 -186 616 -260 c 128,-1,34
 532 -334 532 -334 283 -334 c 2,35,-1
 221 -334 l 1,36,-1
 221 -190 l 1,0,-1
EndSplineSet
EndChar

StartChar: asciitilde
Encoding: 126 126 126
Width: 1233
Flags: W
LayerCount: 2
Fore
SplineSet
1145 780 m 1,0,-1
 1145 606 l 1,1,2
 1070 547 1070 547 998.5 519.5 c 128,-1,3
 927 492 927 492 848 492 c 0,4,5
 758 492 758 492 645 543 c 0,6,7
 623 553 623 553 612 557 c 0,8,9
 535 590 535 590 483.5 602 c 128,-1,10
 432 614 432 614 381 614 c 0,11,12
 302 614 302 614 231.5 584.5 c 128,-1,13
 161 555 161 555 88 492 c 1,14,-1
 88 666 l 1,15,16
 166 726 166 726 239 753 c 128,-1,17
 312 780 312 780 395 780 c 0,18,19
 448 780 448 780 498 769 c 128,-1,20
 548 758 548 758 622 727 c 0,21,22
 634 722 634 722 655 712 c 0,23,24
 771 657 771 657 864 657 c 0,25,26
 934 657 934 657 1002.5 687.5 c 128,-1,27
 1071 718 1071 718 1145 780 c 1,0,-1
EndSplineSet
EndChar

StartChar: uni007F
Encoding: 127 127 127
Width: 1234
Flags: W
LayerCount: 2
Fore
SplineSet
1098 0 m 1,0,-1
 136 0 l 1,1,-1
 136 703 l 1,2,-1
 617 1184 l 1,3,-1
 1098 703 l 1,4,-1
 1098 0 l 1,0,-1
950 148 m 1,5,-1
 950 643 l 1,6,-1
 617 976 l 1,7,-1
 284 643 l 1,8,-1
 284 148 l 1,9,-1
 950 148 l 1,5,-1
EndSplineSet
EndChar

StartChar: uni0081
Encoding: 129 129 128
Width: 1234
Flags: W
LayerCount: 2
Fore
SplineSet
1234 666 m 1,1,-1
 1234 518 l 1,2,3
 691 518 691 518 691 -484 c 1,4,-1
 543 -484 l 1,5,0
 543 666 543 666 1234 666 c 1,1,-1
EndSplineSet
EndChar

StartChar: uni008A
Encoding: 138 138 129
Width: 1234
Flags: W
LayerCount: 2
Fore
SplineSet
-3 -327 m 1,0,1
 189 -92 189 -92 335 -262.5 c 128,-1,2
 481 -433 481 -433 625 -446.5 c 128,-1,3
 769 -460 769 -460 871.5 -439 c 128,-1,4
 974 -418 974 -418 1110 -187 c 1,5,-1
 1103 -1 l 1,6,7
 762 -460 762 -460 500 -176 c 1,8,9
 224 93 224 93 8 -126 c 1,10,-1
 -3 -327 l 1,0,1
-18 377 m 1,11,12
 174 612 174 612 320 441.5 c 128,-1,13
 466 271 466 271 610 257.5 c 128,-1,14
 754 244 754 244 856.5 265 c 128,-1,15
 959 286 959 286 1095 517 c 1,16,-1
 1087 703 l 1,17,18
 746 244 746 244 485 529 c 1,19,20
 208 798 208 798 -7 578 c 1,21,-1
 -18 377 l 1,11,12
-3 -1 m 1,22,23
 189 233 189 233 335 63 c 128,-1,24
 481 -107 481 -107 625 -120.5 c 128,-1,25
 769 -134 769 -134 871.5 -113 c 128,-1,26
 974 -92 974 -92 1110 138 c 1,27,-1
 1103 324 l 1,28,29
 762 -134 762 -134 500 150 c 1,30,31
 224 419 224 419 8 199 c 1,32,-1
 -3 -1 l 1,22,23
-7 726 m 1,33,34
 186 960 186 960 331.5 789.5 c 128,-1,35
 477 619 477 619 621 606 c 128,-1,36
 765 593 765 593 867.5 614 c 128,-1,37
 970 635 970 635 1106 866 c 1,38,-1
 1099 1051 l 1,39,40
 758 593 758 593 496 877 c 1,41,42
 220 1146 220 1146 4 926 c 1,43,-1
 -7 726 l 1,33,34
-16 1074 m 1,44,45
 177 1309 177 1309 323 1138.5 c 128,-1,46
 469 968 469 968 612.5 954.5 c 128,-1,47
 756 941 756 941 858.5 962 c 128,-1,48
 961 983 961 983 1097 1214 c 1,49,-1
 1090 1400 l 1,50,51
 749 941 749 941 487 1225 c 1,52,53
 211 1494 211 1494 -5 1274 c 1,54,-1
 -16 1074 l 1,44,45
-7 1413 m 1,55,56
 186 1648 186 1648 331.5 1477.5 c 128,-1,57
 477 1307 477 1307 621 1293.5 c 128,-1,58
 765 1280 765 1280 867.5 1301 c 128,-1,59
 970 1322 970 1322 1106 1553 c 1,60,-1
 1099 1739 l 1,61,62
 758 1280 758 1280 496 1565 c 1,63,64
 220 1834 220 1834 4 1614 c 1,65,-1
 -7 1413 l 1,55,56
EndSplineSet
EndChar

StartChar: dagger
Encoding: 8224 8224 130
Width: 1234
Flags: W
LayerCount: 2
Fore
SplineSet
228 443 m 1,0,-1
 728 943 l 1,1,-1
 1228 443 l 1,2,-1
 1128 443 l 1,3,-1
 728 843 l 1,4,-1
 328 443 l 1,5,-1
 228 443 l 1,0,-1
4 -250 m 1,6,-1
 504 249 l 1,7,-1
 1004 -250 l 1,8,-1
 904 -250 l 1,9,-1
 504 149 l 1,10,-1
 104 -250 l 1,11,-1
 4 -250 l 1,6,-1
EndSplineSet
EndChar

StartChar: cent
Encoding: 65537 -1 131
Width: 1233
Flags: W
LayerCount: 2
Fore
SplineSet
1061 1077 m 1,0,-1
 1061 905 l 1,1,2
 994 945 994 945 929 967 c 128,-1,3
 864 989 864 989 801 993 c 1,4,-1
 801 123 l 1,5,6
 864 128 864 128 929.5 150.5 c 128,-1,7
 995 173 995 173 1061 213 c 1,8,-1
 1061 41 l 1,9,10
 988 10 988 10 923 -7 c 128,-1,11
 858 -24 858 -24 801 -27 c 1,12,-1
 801 -313 l 1,13,-1
 698 -313 l 1,14,-1
 698 -27 l 1,15,16
 473 -5 473 -5 343 151.5 c 128,-1,17
 213 308 213 308 213 559 c 0,18,19
 213 809 213 809 344.5 967.5 c 128,-1,20
 476 1126 476 1126 698 1145 c 1,21,-1
 698 1432 l 1,22,-1
 801 1432 l 1,23,-1
 801 1145 l 1,24,25
 858 1142 858 1142 923 1125 c 128,-1,26
 988 1108 988 1108 1061 1077 c 1,0,-1
698 127 m 1,27,-1
 698 991 l 1,28,29
 566 979 566 979 486 861 c 128,-1,30
 406 743 406 743 406 559 c 256,31,32
 406 375 406 375 486 257.5 c 128,-1,33
 566 140 566 140 698 127 c 1,27,-1
EndSplineSet
EndChar

StartChar: notequal
Encoding: 8800 8800 132
Width: 1233
Flags: W
LayerCount: 2
Fore
SplineSet
88 930 m 1,0,-1
 735 930 l 1,1,-1
 981 1245 l 1,2,-1
 1106 1143 l 1,3,-1
 942 930 l 1,4,-1
 1145 930 l 1,5,-1
 1145 760 l 1,6,-1
 811 760 l 1,7,-1
 627 524 l 1,8,-1
 1145 524 l 1,9,-1
 1145 352 l 1,10,-1
 498 352 l 1,11,-1
 250 37 l 1,12,-1
 125 141 l 1,13,-1
 289 352 l 1,14,-1
 88 352 l 1,15,-1
 88 524 l 1,16,-1
 418 524 l 1,17,-1
 602 760 l 1,18,-1
 88 760 l 1,19,-1
 88 930 l 1,0,-1
EndSplineSet
EndChar

StartChar: infinity
Encoding: 8734 8734 133
Width: 1233
Flags: W
LayerCount: 2
Fore
SplineSet
694 627 m 1,0,1
 751 491 751 491 796.5 441 c 128,-1,2
 842 391 842 391 903 391 c 0,3,4
 974 391 974 391 1019.5 458 c 128,-1,5
 1065 525 1065 525 1065 633 c 0,6,7
 1065 740 1065 740 1023 804 c 128,-1,8
 981 868 981 868 911 868 c 0,9,10
 845 868 845 868 792.5 809.5 c 128,-1,11
 740 751 740 751 694 627 c 1,0,1
537 635 m 1,12,13
 481 769 481 769 435 818.5 c 128,-1,14
 389 868 389 868 328 868 c 0,15,16
 257 868 257 868 211.5 801.5 c 128,-1,17
 166 735 166 735 166 629 c 0,18,19
 166 520 166 520 207.5 455.5 c 128,-1,20
 249 391 249 391 317 391 c 0,21,22
 384 391 384 391 437 450 c 128,-1,23
 490 509 490 509 537 635 c 1,12,13
616 764 m 1,24,25
 663 881 663 881 736.5 944.5 c 128,-1,26
 810 1008 810 1008 901 1008 c 0,27,28
 1020 1008 1020 1008 1106 898.5 c 128,-1,29
 1192 789 1192 789 1192 629 c 0,30,31
 1192 462 1192 462 1110.5 356 c 128,-1,32
 1029 250 1029 250 903 250 c 0,33,34
 820 250 820 250 756 300 c 128,-1,35
 692 350 692 350 614 481 c 1,36,37
 549 357 549 357 483 303.5 c 128,-1,38
 417 250 417 250 332 250 c 0,39,40
 207 250 207 250 124 357 c 128,-1,41
 41 464 41 464 41 629 c 0,42,43
 41 802 41 802 119.5 905 c 128,-1,44
 198 1008 198 1008 330 1008 c 0,45,46
 424 1008 424 1008 492 950.5 c 128,-1,47
 560 893 560 893 616 764 c 1,24,25
EndSplineSet
EndChar

StartChar: lessequal
Encoding: 8804 8804 134
Width: 1233
Flags: W
LayerCount: 2
Fore
SplineSet
1143 438 m 1,0,-1
 1143 256 l 1,1,-1
 86 588 l 1,2,-1
 86 756 l 1,3,-1
 1143 1087 l 1,4,-1
 1143 903 l 1,5,-1
 342 672 l 1,6,-1
 1143 438 l 1,0,-1
1143 170 m 1,7,-1
 1143 0 l 1,8,-1
 86 0 l 1,9,-1
 86 170 l 1,10,-1
 1143 170 l 1,7,-1
EndSplineSet
EndChar

StartChar: greaterequal
Encoding: 8805 8805 135
Width: 1233
Flags: W
LayerCount: 2
Fore
SplineSet
88 438 m 1,0,-1
 891 672 l 1,1,-1
 88 903 l 1,2,-1
 88 1087 l 1,3,-1
 1145 756 l 1,4,-1
 1145 588 l 1,5,-1
 88 256 l 1,6,-1
 88 438 l 1,0,-1
88 170 m 1,7,-1
 1145 170 l 1,8,-1
 1145 0 l 1,9,-1
 88 0 l 1,10,-1
 88 170 l 1,7,-1
EndSplineSet
EndChar

StartChar: partialdiff
Encoding: 8706 8706 136
Width: 1233
Flags: W
LayerCount: 2
Fore
SplineSet
842 621 m 1,0,1
 857 708 857 708 864.5 789.5 c 128,-1,2
 872 871 872 871 872 946 c 0,3,4
 872 1075 872 1075 835.5 1140.5 c 128,-1,5
 799 1206 799 1206 727 1206 c 0,6,7
 672 1206 672 1206 600 1148 c 128,-1,8
 528 1090 528 1090 492 1090 c 256,9,10
 456 1090 456 1090 432 1112 c 128,-1,11
 408 1134 408 1134 408 1165 c 0,12,13
 408 1227 408 1227 480 1276 c 128,-1,14
 552 1325 552 1325 653 1325 c 0,15,16
 833 1325 833 1325 940 1170 c 128,-1,17
 1047 1015 1047 1015 1047 752 c 0,18,19
 1047 417 1047 417 902.5 196 c 128,-1,20
 758 -25 758 -25 545 -25 c 0,21,22
 393 -25 393 -25 291.5 83 c 128,-1,23
 190 191 190 191 190 354 c 0,24,25
 190 552 190 552 300.5 680.5 c 128,-1,26
 411 809 411 809 573 809 c 0,27,28
 674 809 674 809 739 763.5 c 128,-1,29
 804 718 804 718 842 621 c 1,0,1
793 494 m 0,30,31
 793 610 793 610 749.5 672.5 c 128,-1,32
 706 735 706 735 627 735 c 0,33,34
 518 735 518 735 447.5 606 c 128,-1,35
 377 477 377 477 377 270 c 0,36,37
 377 154 377 154 420 92.5 c 128,-1,38
 463 31 463 31 543 31 c 0,39,40
 652 31 652 31 722.5 161 c 128,-1,41
 793 291 793 291 793 494 c 0,30,31
EndSplineSet
EndChar

StartChar: summation
Encoding: 8721 8721 137
Width: 1233
Flags: W
LayerCount: 2
Fore
SplineSet
332 -299 m 1,0,-1
 1085 -299 l 1,1,-1
 1085 -436 l 1,2,-1
 143 -436 l 1,3,-1
 143 -344 l 1,4,-1
 692 575 l 1,5,-1
 143 1423 l 1,6,-1
 143 1518 l 1,7,-1
 1065 1518 l 1,8,-1
 1065 1378 l 1,9,-1
 332 1378 l 1,10,-1
 854 575 l 1,11,-1
 332 -299 l 1,0,-1
EndSplineSet
EndChar

StartChar: product
Encoding: 8719 8719 138
Width: 1233
Flags: W
LayerCount: 2
Fore
SplineSet
152 -436 m 1,0,-1
 152 1518 l 1,1,-1
 1081 1518 l 1,2,-1
 1081 -436 l 1,3,-1
 926 -436 l 1,4,-1
 926 1386 l 1,5,-1
 307 1386 l 1,6,-1
 307 -436 l 1,7,-1
 152 -436 l 1,0,-1
EndSplineSet
EndChar

StartChar: pi
Encoding: 960 960 139
Width: 1233
Flags: W
LayerCount: 2
Fore
SplineSet
80 1100 m 1,0,-1
 1153 1100 l 1,1,-1
 1153 952 l 1,2,-1
 1012 952 l 1,3,-1
 1012 248 l 2,4,5
 1012 176 1012 176 1036.5 144.5 c 128,-1,6
 1061 113 1061 113 1116 113 c 0,7,8
 1131 113 1131 113 1153 115.5 c 128,-1,9
 1175 118 1175 118 1182 119 c 1,10,-1
 1182 -14 l 1,11,12
 1147 -27 1147 -27 1110 -33 c 128,-1,13
 1073 -39 1073 -39 1036 -39 c 0,14,15
 923 -39 923 -39 877 26.5 c 128,-1,16
 831 92 831 92 831 268 c 2,17,-1
 831 952 l 1,18,-1
 403 952 l 1,19,-1
 403 0 l 1,20,-1
 223 0 l 1,21,-1
 223 952 l 1,22,-1
 80 952 l 1,23,-1
 80 1100 l 1,0,-1
EndSplineSet
EndChar

StartChar: integral
Encoding: 8747 8747 140
Width: 1233
Flags: W
LayerCount: 2
Fore
SplineSet
393 -262 m 0,0,1
 499 -262 499 -262 513 426 c 0,2,3
 515 534 515 534 516 591 c 0,4,5
 528 1106 528 1106 623 1328 c 128,-1,6
 718 1550 718 1550 920 1550 c 0,7,8
 1000 1550 1000 1550 1050 1508 c 128,-1,9
 1100 1466 1100 1466 1100 1401 c 0,10,11
 1100 1347 1100 1347 1068 1315.5 c 128,-1,12
 1036 1284 1036 1284 981 1284 c 0,13,14
 939 1284 939 1284 910.5 1303 c 128,-1,15
 882 1322 882 1322 871 1357 c 0,16,17
 865 1372 865 1372 860.5 1408 c 128,-1,18
 856 1444 856 1444 840 1444 c 0,19,20
 733 1444 733 1444 719 825 c 0,21,22
 715 632 715 632 711 522 c 0,23,24
 694 43 694 43 599.5 -164 c 128,-1,25
 505 -371 505 -371 309 -371 c 0,26,27
 230 -371 230 -371 179.5 -329.5 c 128,-1,28
 129 -288 129 -288 129 -223 c 0,29,30
 129 -167 129 -167 163 -135.5 c 128,-1,31
 197 -104 197 -104 258 -104 c 0,32,33
 291 -104 291 -104 315 -118.5 c 128,-1,34
 339 -133 339 -133 354 -161 c 0,35,36
 363 -178 363 -178 368.5 -220 c 128,-1,37
 374 -262 374 -262 393 -262 c 0,0,1
EndSplineSet
EndChar

StartChar: Omega
Encoding: 937 937 141
Width: 1233
Flags: W
LayerCount: 2
Fore
SplineSet
74 0 m 1,0,-1
 74 172 l 1,1,-1
 319 172 l 1,2,3
 196 306 196 306 141 450 c 128,-1,4
 86 594 86 594 86 782 c 0,5,6
 86 1093 86 1093 230 1276.5 c 128,-1,7
 374 1460 374 1460 614 1460 c 0,8,9
 856 1460 856 1460 1000.5 1277 c 128,-1,10
 1145 1094 1145 1094 1145 782 c 0,11,12
 1145 594 1145 594 1089.5 449.5 c 128,-1,13
 1034 305 1034 305 911 172 c 1,14,-1
 1159 172 l 1,15,-1
 1159 0 l 1,16,-1
 696 0 l 1,17,-1
 696 172 l 1,18,19
 816 248 816 248 883 412.5 c 128,-1,20
 950 577 950 577 950 799 c 0,21,22
 950 1029 950 1029 860 1161.5 c 128,-1,23
 770 1294 770 1294 616 1294 c 256,24,25
 462 1294 462 1294 372.5 1161.5 c 128,-1,26
 283 1029 283 1029 283 799 c 0,27,28
 283 577 283 577 350 412.5 c 128,-1,29
 417 248 417 248 537 172 c 1,30,-1
 537 0 l 1,31,-1
 74 0 l 1,0,-1
EndSplineSet
EndChar

StartChar: radical
Encoding: 8730 8730 142
Width: 1233
Flags: W
LayerCount: 2
Fore
SplineSet
100 733 m 1,0,-1
 59 858 l 1,1,-1
 350 956 l 1,2,-1
 569 225 l 1,3,-1
 1036 1696 l 1,4,-1
 1184 1696 l 1,5,-1
 1184 1565 l 1,6,-1
 1137 1565 l 1,7,-1
 631 -39 l 1,8,-1
 504 -39 l 1,9,-1
 258 786 l 1,10,-1
 100 733 l 1,0,-1
EndSplineSet
EndChar

StartChar: florin
Encoding: 402 402 143
Width: 1234
Flags: W
LayerCount: 2
Fore
SplineSet
541 1902 m 1,0,-1
 689 1902 l 1,1,2
 691 666 691 666 1377 670 c 1,3,-1
 1377 522 l 1,4,5
 543 518 543 518 541 1902 c 1,0,-1
EndSplineSet
EndChar

StartChar: approxequal
Encoding: 8776 8776 144
Width: 1233
Flags: W
LayerCount: 2
Fore
SplineSet
1145 963 m 1,0,-1
 1145 788 l 1,1,2
 1070 729 1070 729 998.5 701.5 c 128,-1,3
 927 674 927 674 848 674 c 0,4,5
 758 674 758 674 645 725 c 0,6,7
 623 735 623 735 612 739 c 0,8,9
 535 773 535 773 483.5 785 c 128,-1,10
 432 797 432 797 381 797 c 0,11,12
 302 797 302 797 231.5 767.5 c 128,-1,13
 161 738 161 738 88 674 c 1,14,-1
 88 848 l 1,15,16
 166 908 166 908 239 935.5 c 128,-1,17
 312 963 312 963 395 963 c 0,18,19
 448 963 448 963 498 952 c 128,-1,20
 548 941 548 941 623 909 c 0,21,22
 633 905 633 905 655 894 c 0,23,24
 771 840 771 840 864 840 c 0,25,26
 934 840 934 840 1002.5 870 c 128,-1,27
 1071 900 1071 900 1145 963 c 1,0,-1
1145 596 m 1,28,-1
 1145 420 l 1,29,30
 1070 361 1070 361 998.5 333 c 128,-1,31
 927 305 927 305 848 305 c 0,32,33
 758 305 758 305 645 356 c 0,34,35
 623 366 623 366 612 371 c 0,36,37
 529 407 529 407 479.5 418.5 c 128,-1,38
 430 430 430 430 381 430 c 0,39,40
 303 430 303 430 232.5 400 c 128,-1,41
 162 370 162 370 88 305 c 1,42,-1
 88 479 l 1,43,44
 167 541 167 541 240 568.5 c 128,-1,45
 313 596 313 596 395 596 c 0,46,47
 491 596 491 596 621 541 c 1,48,-1
 622 541 l 1,49,50
 633 536 633 536 655 526 c 0,51,52
 771 471 771 471 864 471 c 0,53,54
 932 471 932 471 1001 501.5 c 128,-1,55
 1070 532 1070 532 1145 596 c 1,28,-1
EndSplineSet
EndChar

StartChar: Delta
Encoding: 8710 8710 145
Width: 1233
Flags: W
LayerCount: 2
Fore
SplineSet
-6 0 m 1,0,-1
 512 1423 l 1,1,-1
 721 1423 l 1,2,-1
 1241 0 l 1,3,-1
 -6 0 l 1,0,-1
616 1219 m 1,4,-1
 248 172 l 1,5,-1
 985 172 l 1,6,-1
 616 1219 l 1,4,-1
EndSplineSet
EndChar

StartChar: ellipsis
Encoding: 8230 8230 146
Width: 1234
Flags: W
LayerCount: 2
Fore
SplineSet
308 1180 m 1,0,-1
 308 1326 l 1,1,2
 747 1911 747 1911 1186 1326 c 1,3,-1
 1186 1180 l 1,4,5
 747 1696 747 1696 308 1180 c 1,0,-1
-45 80 m 1,6,-1
 -45 226 l 1,7,8
 393 811 393 811 832 226 c 1,9,-1
 832 80 l 1,10,11
 393 596 393 596 -45 80 c 1,6,-1
EndSplineSet
EndChar

StartChar: OE
Encoding: 338 338 147
Width: 1234
Flags: W
LayerCount: 2
Fore
SplineSet
300 1200 m 1,0,-1
 300 1400 l 1,1,-1
 600 1400 l 1,2,-1
 600 1200 l 1,3,-1
 300 1200 l 1,0,-1
1100 700 m 1,4,-1
 1100 900 l 1,5,-1
 1400 900 l 1,6,-1
 1400 700 l 1,7,-1
 1100 700 l 1,4,-1
300 200 m 1,8,-1
 300 400 l 1,9,-1
 600 400 l 1,10,-1
 600 200 l 1,11,-1
 300 200 l 1,8,-1
1100 -300 m 1,12,-1
 1100 -100 l 1,13,-1
 1400 -100 l 1,14,-1
 1400 -300 l 1,15,-1
 1100 -300 l 1,12,-1
EndSplineSet
EndChar

StartChar: lozenge
Encoding: 9674 9674 148
Width: 1233
Flags: W
LayerCount: 2
Fore
SplineSet
616 1409 m 1,0,-1
 231 592 l 1,1,-1
 616 -233 l 1,2,-1
 1001 592 l 1,3,-1
 616 1409 l 1,0,-1
616 1653 m 1,4,-1
 1116 592 l 1,5,-1
 616 -477 l 1,6,-1
 117 592 l 1,7,-1
 616 1653 l 1,4,-1
EndSplineSet
EndChar

StartChar: fraction
Encoding: 8725 8725 149
Width: 1233
Flags: W
LayerCount: 2
Fore
SplineSet
889 1493 m 1,0,-1
 1079 1493 l 1,1,-1
 293 -190 l 1,2,-1
 102 -190 l 1,3,-1
 889 1493 l 1,0,-1
EndSplineSet
EndChar

StartChar: guilsinglleft
Encoding: 8249 8249 150
Width: 1234
Flags: W
LayerCount: 2
Fore
SplineSet
401 -200 m 1,0,-1
 599 -200 l 1,1,-1
 599 196 l 1,2,-1
 974 196 l 1,3,-1
 513 988 l 1,4,-1
 51 196 l 1,5,-1
 401 196 l 1,6,-1
 401 -200 l 1,0,-1
936 493 m 1,7,-1
 1081 493 l 1,8,-1
 1081 781 l 1,9,-1
 1354 781 l 1,10,-1
 1018 1357 l 1,11,-1
 681 781 l 1,12,-1
 936 781 l 1,13,-1
 936 493 l 1,7,-1
EndSplineSet
EndChar

StartChar: fi
Encoding: 64257 64257 151
Width: 1233
Flags: W
LayerCount: 2
Fore
SplineSet
895 1554 m 1,0,-1
 1079 1554 l 1,1,-1
 1079 1321 l 1,2,-1
 895 1321 l 1,3,-1
 895 1554 l 1,0,-1
776 1556 m 1,4,-1
 776 1403 l 1,5,-1
 596 1403 l 2,6,7
 497 1403 497 1403 458.5 1362.5 c 128,-1,8
 420 1322 420 1322 420 1219 c 2,9,-1
 420 1118 l 1,10,-1
 1079 1118 l 1,11,-1
 1079 0 l 1,12,-1
 895 0 l 1,13,-1
 895 977 l 1,14,-1
 420 977 l 1,15,-1
 420 0 l 1,16,-1
 236 0 l 1,17,-1
 236 977 l 1,18,-1
 35 977 l 1,19,-1
 35 1120 l 1,20,-1
 236 1120 l 1,21,-1
 236 1198 l 2,22,23
 236 1382 236 1382 320.5 1469 c 128,-1,24
 405 1556 405 1556 584 1556 c 2,25,-1
 776 1556 l 1,4,-1
EndSplineSet
EndChar

StartChar: fl
Encoding: 64258 64258 152
Width: 1233
Flags: W
LayerCount: 2
Fore
SplineSet
1079 1556 m 1,0,-1
 1079 0 l 1,1,-1
 895 0 l 1,2,-1
 895 1403 l 1,3,-1
 596 1403 l 2,4,5
 497 1403 497 1403 458.5 1362.5 c 128,-1,6
 420 1322 420 1322 420 1219 c 2,7,-1
 420 1118 l 1,8,-1
 713 1118 l 1,9,-1
 713 977 l 1,10,-1
 420 977 l 1,11,-1
 420 0 l 1,12,-1
 236 0 l 1,13,-1
 236 977 l 1,14,-1
 35 977 l 1,15,-1
 35 1120 l 1,16,-1
 236 1120 l 1,17,-1
 236 1198 l 2,18,19
 236 1382 236 1382 320.5 1469 c 128,-1,20
 405 1556 405 1556 584 1556 c 2,21,-1
 1079 1556 l 1,0,-1
EndSplineSet
EndChar

StartChar: daggerdbl
Encoding: 8225 8225 153
Width: 1234
Flags: W
LayerCount: 2
Fore
SplineSet
100 1500 m 1,0,-1
 100 1400 l 1,1,-1
 300 1400 l 1,2,-1
 300 100 l 1,3,-1
 100 100 l 1,4,-1
 100 0 l 1,5,-1
 400 0 l 1,6,-1
 400 1500 l 1,7,-1
 100 1500 l 1,0,-1
1200 1500 m 1,8,-1
 900 1500 l 1,9,-1
 900 0 l 1,10,-1
 1200 0 l 1,11,-1
 1200 100 l 1,12,-1
 1000 100 l 1,13,-1
 1000 1400 l 1,14,-1
 1200 1400 l 1,15,-1
 1200 1500 l 1,8,-1
EndSplineSet
EndChar

StartChar: quotesinglbase
Encoding: 8218 8218 154
Width: 1234
Flags: W
LayerCount: 2
Fore
SplineSet
0 518 m 1,0,-1
 0 666 l 1,1,2
 543 666 543 666 541 1900 c 1,3,-1
 689 1900 l 1,4,5
 691 518 691 518 0 518 c 1,0,-1
EndSplineSet
EndChar

StartChar: quotedblbase
Encoding: 8222 8222 155
Width: 1234
Flags: W
LayerCount: 2
Fore
SplineSet
236 -400 m 1,0,-1
 236 -22 l 1,1,2
 0 -26 0 -26 0 257 c 128,-1,3
 0 540 0 540 324.5 540 c 128,-1,4
 649 540 649 540 649 257 c 128,-1,5
 649 -26 649 -26 395 -22 c 1,6,-1
 395 -400 l 1,7,-1
 236 -400 l 1,0,-1
758 523 m 1,8,-1
 758 959 l 1,9,10
 505 954 505 954 505 1280.5 c 128,-1,11
 505 1607 505 1607 852.5 1607 c 128,-1,12
 1200 1607 1200 1607 1200 1280.5 c 128,-1,13
 1200 954 1200 954 928 959 c 1,14,-1
 928 523 l 1,15,-1
 758 523 l 1,8,-1
EndSplineSet
EndChar

StartChar: perthousand
Encoding: 8240 8240 156
Width: 1234
Flags: W
LayerCount: 2
Fore
SplineSet
200 -100 m 1,0,-1
 200 45 l 1,1,2
 676 317 676 317 1212 52 c 1,3,-1
 1212 -100 l 1,4,5
 676 198 676 198 200 -100 c 1,0,-1
500 200 m 1,6,-1
 100 500 l 1,7,-1
 300 600 l 1,8,-1
 600 300 l 1,9,-1
 500 200 l 1,6,-1
600 300 m 1,10,-1
 600 700 l 1,11,-1
 800 700 l 1,12,-1
 800 300 l 1,13,-1
 600 300 l 1,10,-1
900 200 m 1,14,-1
 800 300 l 1,15,-1
 1100 600 l 1,16,-1
 1300 500 l 1,17,-1
 900 200 l 1,14,-1
EndSplineSet
EndChar

StartChar: dotlessi
Encoding: 305 305 157
Width: 1233
Flags: W
LayerCount: 2
Fore
SplineSet
256 1120 m 1,0,-1
 727 1120 l 1,1,-1
 727 143 l 1,2,-1
 1092 143 l 1,3,-1
 1092 0 l 1,4,-1
 178 0 l 1,5,-1
 178 143 l 1,6,-1
 543 143 l 1,7,-1
 543 977 l 1,8,-1
 256 977 l 1,9,-1
 256 1120 l 1,0,-1
EndSplineSet
EndChar

StartChar: circumflex
Encoding: 710 710 158
Width: 1234
Flags: W
LayerCount: 2
Fore
SplineSet
1300 1100 m 1,0,-1
 1200 1100 l 1,1,-1
 1200 900 l 1,2,-1
 200 900 l 1,3,-1
 200 1100 l 1,4,-1
 100 1100 l 1,5,-1
 100 800 l 1,6,-1
 1300 800 l 1,7,-1
 1300 1100 l 1,0,-1
1300 -48 m 1,8,-1
 1200 -48 l 1,9,-1
 1200 252 l 1,10,-1
 200 252 l 1,11,-1
 200 -48 l 1,12,-1
 100 -48 l 1,13,-1
 100 352 l 1,14,-1
 1300 352 l 1,15,-1
 1300 -48 l 1,8,-1
EndSplineSet
EndChar

StartChar: breve
Encoding: 728 728 159
Width: 1233
Flags: W
LayerCount: 2
Fore
SplineSet
303 1608 m 1,0,-1
 422 1608 l 1,1,2
 433 1532 433 1532 481 1495 c 128,-1,3
 529 1458 529 1458 616 1458 c 0,4,5
 701 1458 701 1458 749 1495 c 128,-1,6
 797 1532 797 1532 811 1608 c 1,7,-1
 930 1608 l 1,8,9
 919 1465 919 1465 840 1393 c 128,-1,10
 761 1321 761 1321 616 1321 c 0,11,12
 472 1321 472 1321 393 1393 c 128,-1,13
 314 1465 314 1465 303 1608 c 1,0,-1
EndSplineSet
EndChar

StartChar: dotaccent
Encoding: 729 729 160
Width: 1233
Flags: W
LayerCount: 2
Fore
SplineSet
514 1552 m 1,0,-1
 719 1552 l 1,1,-1
 719 1348 l 1,2,-1
 514 1348 l 1,3,-1
 514 1552 l 1,0,-1
EndSplineSet
EndChar

StartChar: ring
Encoding: 730 730 161
Width: 1233
Flags: W
LayerCount: 2
Fore
SplineSet
891 1524 m 256,0,1
 891 1409 891 1409 811.5 1329 c 128,-1,2
 732 1249 732 1249 616 1249 c 0,3,4
 501 1249 501 1249 421.5 1329 c 128,-1,5
 342 1409 342 1409 342 1524 c 256,6,7
 342 1639 342 1639 421.5 1718.5 c 128,-1,8
 501 1798 501 1798 616 1798 c 0,9,10
 732 1798 732 1798 811.5 1718.5 c 128,-1,11
 891 1639 891 1639 891 1524 c 256,0,1
768 1524 m 0,12,13
 768 1587 768 1587 724 1631 c 128,-1,14
 680 1675 680 1675 616 1675 c 256,15,16
 552 1675 552 1675 508.5 1631.5 c 128,-1,17
 465 1588 465 1588 465 1524 c 0,18,19
 465 1459 465 1459 508.5 1415.5 c 128,-1,20
 552 1372 552 1372 616 1372 c 256,21,22
 680 1372 680 1372 724 1416 c 128,-1,23
 768 1460 768 1460 768 1524 c 0,12,13
EndSplineSet
EndChar

StartChar: hungarumlaut
Encoding: 733 733 162
Width: 1233
Flags: W
LayerCount: 2
Fore
SplineSet
535 1638 m 1,0,-1
 705 1638 l 1,1,-1
 481 1262 l 1,2,-1
 344 1262 l 1,3,-1
 535 1638 l 1,0,-1
868 1638 m 1,4,-1
 1047 1638 l 1,5,-1
 799 1262 l 1,6,-1
 664 1262 l 1,7,-1
 868 1638 l 1,4,-1
EndSplineSet
EndChar

StartChar: ogonek
Encoding: 731 731 163
Width: 1233
Flags: W
LayerCount: 2
Fore
SplineSet
528 0 m 1,0,-1
 647 0 l 1,1,2
 602 -61 602 -61 580.5 -105 c 128,-1,3
 559 -149 559 -149 559 -180 c 0,4,5
 559 -226 559 -226 586.5 -249 c 128,-1,6
 614 -272 614 -272 668 -272 c 0,7,8
 700 -272 700 -272 731 -264.5 c 128,-1,9
 762 -257 762 -257 793 -242 c 1,10,-1
 793 -375 l 1,11,12
 755 -385 755 -385 721 -390 c 128,-1,13
 687 -395 687 -395 657 -395 c 0,14,15
 535 -395 535 -395 477.5 -351.5 c 128,-1,16
 420 -308 420 -308 420 -215 c 0,17,18
 420 -167 420 -167 446.5 -114.5 c 128,-1,19
 473 -62 473 -62 528 0 c 1,0,-1
EndSplineSet
EndChar

StartChar: caron
Encoding: 711 711 164
Width: 1233
Flags: W
LayerCount: 2
Fore
SplineSet
543 1262 m 1,0,-1
 297 1638 l 1,1,-1
 436 1638 l 1,2,-1
 616 1393 l 1,3,-1
 797 1638 l 1,4,-1
 936 1638 l 1,5,-1
 690 1262 l 1,6,-1
 543 1262 l 1,0,-1
EndSplineSet
EndChar

StartChar: Lslash
Encoding: 321 321 165
Width: 1233
Flags: W
LayerCount: 2
Fore
SplineSet
215 1493 m 1,0,-1
 418 1493 l 1,1,-1
 418 877 l 1,2,-1
 733 1096 l 1,3,-1
 811 985 l 1,4,-1
 418 711 l 1,5,-1
 418 170 l 1,6,-1
 1139 170 l 1,7,-1
 1139 0 l 1,8,-1
 215 0 l 1,9,-1
 215 571 l 1,10,-1
 70 465 l 1,11,-1
 -10 575 l 1,12,-1
 215 733 l 1,13,-1
 215 1493 l 1,0,-1
EndSplineSet
EndChar

StartChar: lslash
Encoding: 322 322 166
Width: 1233
Flags: W
LayerCount: 2
Fore
SplineSet
639 406 m 2,0,1
 639 282 639 282 684.5 219 c 128,-1,2
 730 156 730 156 819 156 c 2,3,-1
 1034 156 l 1,4,-1
 1034 0 l 1,5,-1
 801 0 l 2,6,7
 636 0 636 0 545.5 106 c 128,-1,8
 455 212 455 212 455 406 c 2,9,-1
 455 698 l 1,10,-1
 156 489 l 1,11,-1
 76 600 l 1,12,-1
 455 864 l 1,13,-1
 455 1423 l 1,14,-1
 160 1423 l 1,15,-1
 160 1567 l 1,16,-1
 639 1567 l 1,17,-1
 639 989 l 1,18,-1
 954 1208 l 1,19,-1
 1034 1098 l 1,20,-1
 639 823 l 1,21,-1
 639 406 l 2,0,1
EndSplineSet
EndChar

StartChar: minus
Encoding: 8722 8722 167
Width: 1233
Flags: W
LayerCount: 2
Fore
SplineSet
88 727 m 1,0,-1
 1145 727 l 1,1,-1
 1145 557 l 1,2,-1
 88 557 l 1,3,-1
 88 727 l 1,0,-1
EndSplineSet
EndChar

StartChar: Gbreve
Encoding: 286 286 168
Width: 1233
Flags: W
LayerCount: 2
Fore
SplineSet
1104 123 m 1,0,1
 1023 48 1023 48 921.5 9.5 c 128,-1,2
 820 -29 820 -29 702 -29 c 0,3,4
 418 -29 418 -29 260 174.5 c 128,-1,5
 102 378 102 378 102 745 c 0,6,7
 102 1111 102 1111 262 1315.5 c 128,-1,8
 422 1520 422 1520 707 1520 c 0,9,10
 801 1520 801 1520 887 1493.5 c 128,-1,11
 973 1467 973 1467 1053 1413 c 1,12,-1
 1053 1206 l 1,13,14
 972 1283 972 1283 887 1319.5 c 128,-1,15
 802 1356 802 1356 707 1356 c 0,16,17
 510 1356 510 1356 411.5 1203.5 c 128,-1,18
 313 1051 313 1051 313 745 c 0,19,20
 313 434 313 434 408.5 284.5 c 128,-1,21
 504 135 504 135 702 135 c 0,22,23
 769 135 769 135 819.5 150.5 c 128,-1,24
 870 166 870 166 911 199 c 1,25,-1
 911 600 l 1,26,-1
 694 600 l 1,27,-1
 694 766 l 1,28,-1
 1104 766 l 1,29,-1
 1104 123 l 1,0,1
303 1901 m 1,30,-1
 422 1901 l 1,31,32
 434 1847 434 1847 484 1818.5 c 128,-1,33
 534 1790 534 1790 616 1790 c 0,34,35
 699 1790 699 1790 747.5 1817.5 c 128,-1,36
 796 1845 796 1845 811 1901 c 1,37,-1
 930 1901 l 1,38,39
 919 1782 919 1782 839.5 1720.5 c 128,-1,40
 760 1659 760 1659 616 1659 c 256,41,42
 472 1659 472 1659 393 1720 c 128,-1,43
 314 1781 314 1781 303 1901 c 1,30,-1
EndSplineSet
EndChar

StartChar: Idotaccent
Encoding: 304 304 170
Width: 1233
Flags: W
LayerCount: 2
Fore
SplineSet
201 1493 m 1,0,-1
 1030 1493 l 1,1,-1
 1030 1323 l 1,2,-1
 717 1323 l 1,3,-1
 717 170 l 1,4,-1
 1030 170 l 1,5,-1
 1030 0 l 1,6,-1
 201 0 l 1,7,-1
 201 170 l 1,8,-1
 514 170 l 1,9,-1
 514 1323 l 1,10,-1
 201 1323 l 1,11,-1
 201 1493 l 1,0,-1
514 1872 m 1,12,-1
 719 1872 l 1,13,-1
 719 1667 l 1,14,-1
 514 1667 l 1,15,-1
 514 1872 l 1,12,-1
EndSplineSet
EndChar

StartChar: Scedilla
Encoding: 350 350 171
Width: 1233
Flags: W
LayerCount: 2
Fore
SplineSet
1012 1442 m 1,0,-1
 1012 1237 l 1,1,2
 920 1296 920 1296 827.5 1326 c 128,-1,3
 735 1356 735 1356 641 1356 c 0,4,5
 498 1356 498 1356 415 1289.5 c 128,-1,6
 332 1223 332 1223 332 1110 c 0,7,8
 332 1011 332 1011 386.5 959 c 128,-1,9
 441 907 441 907 590 872 c 2,10,-1
 696 848 l 2,11,12
 906 799 906 799 1002 694 c 128,-1,13
 1098 589 1098 589 1098 408 c 0,14,15
 1098 195 1098 195 966 83 c 128,-1,16
 834 -29 834 -29 582 -29 c 0,17,18
 477 -29 477 -29 371 -6.5 c 128,-1,19
 265 16 265 16 158 61 c 1,20,-1
 158 276 l 1,21,22
 273 203 273 203 375.5 169 c 128,-1,23
 478 135 478 135 582 135 c 0,24,25
 735 135 735 135 820 203.5 c 128,-1,26
 905 272 905 272 905 395 c 0,27,28
 905 507 905 507 846.5 566 c 128,-1,29
 788 625 788 625 643 657 c 2,30,-1
 535 682 l 2,31,32
 327 729 327 729 233 824 c 128,-1,33
 139 919 139 919 139 1079 c 0,34,35
 139 1279 139 1279 273.5 1399.5 c 128,-1,36
 408 1520 408 1520 631 1520 c 0,37,38
 717 1520 717 1520 812 1500.5 c 128,-1,39
 907 1481 907 1481 1012 1442 c 1,0,-1
700 0 m 1,40,41
 756 -62 756 -62 782.5 -114.5 c 128,-1,42
 809 -167 809 -167 809 -215 c 0,43,44
 809 -304 809 -304 749 -349.5 c 128,-1,45
 689 -395 689 -395 571 -395 c 0,46,47
 526 -395 526 -395 482.5 -389 c 128,-1,48
 439 -383 439 -383 395 -371 c 1,49,-1
 395 -240 l 1,50,51
 429 -257 429 -257 466.5 -264.5 c 128,-1,52
 504 -272 504 -272 551 -272 c 0,53,54
 609 -272 609 -272 639.5 -248 c 128,-1,55
 670 -224 670 -224 670 -178 c 0,56,57
 670 -148 670 -148 648 -104.5 c 128,-1,58
 626 -61 626 -61 582 0 c 1,59,-1
 700 0 l 1,40,41
EndSplineSet
EndChar

StartChar: scedilla
Encoding: 351 351 172
Width: 1233
Flags: W
LayerCount: 2
Fore
SplineSet
973 1081 m 1,0,-1
 973 901 l 1,1,2
 894 947 894 947 814 970 c 128,-1,3
 734 993 734 993 651 993 c 0,4,5
 526 993 526 993 464.5 952.5 c 128,-1,6
 403 912 403 912 403 829 c 0,7,8
 403 754 403 754 449 717 c 128,-1,9
 495 680 495 680 678 645 c 2,10,-1
 752 631 l 2,11,12
 889 605 889 605 959.5 527 c 128,-1,13
 1030 449 1030 449 1030 324 c 0,14,15
 1030 158 1030 158 912 64.5 c 128,-1,16
 794 -29 794 -29 584 -29 c 0,17,18
 501 -29 501 -29 410 -11.5 c 128,-1,19
 319 6 319 6 213 41 c 1,20,-1
 213 231 l 1,21,22
 316 178 316 178 410 151.5 c 128,-1,23
 504 125 504 125 588 125 c 0,24,25
 710 125 710 125 777 174.5 c 128,-1,26
 844 224 844 224 844 313 c 0,27,28
 844 441 844 441 599 490 c 1,29,-1
 591 492 l 1,30,-1
 522 506 l 2,31,32
 363 537 363 537 290 610.5 c 128,-1,33
 217 684 217 684 217 811 c 0,34,35
 217 972 217 972 326 1059.5 c 128,-1,36
 435 1147 435 1147 637 1147 c 0,37,38
 727 1147 727 1147 810 1130.5 c 128,-1,39
 893 1114 893 1114 973 1081 c 1,0,-1
700 0 m 1,40,41
 756 -62 756 -62 782.5 -114.5 c 128,-1,42
 809 -167 809 -167 809 -215 c 0,43,44
 809 -304 809 -304 749 -349.5 c 128,-1,45
 689 -395 689 -395 571 -395 c 0,46,47
 526 -395 526 -395 482.5 -389 c 128,-1,48
 439 -383 439 -383 395 -371 c 1,49,-1
 395 -240 l 1,50,51
 429 -257 429 -257 466.5 -264.5 c 128,-1,52
 504 -272 504 -272 551 -272 c 0,53,54
 609 -272 609 -272 639.5 -248 c 128,-1,55
 670 -224 670 -224 670 -178 c 0,56,57
 670 -148 670 -148 648 -104.5 c 128,-1,58
 626 -61 626 -61 582 0 c 1,59,-1
 700 0 l 1,40,41
EndSplineSet
EndChar

StartChar: Cacute
Encoding: 262 262 173
Width: 1233
Flags: W
LayerCount: 2
Fore
SplineSet
1073 53 m 1,0,1
 996 12 996 12 915 -8.5 c 128,-1,2
 834 -29 834 -29 743 -29 c 0,3,4
 456 -29 456 -29 297.5 174 c 128,-1,5
 139 377 139 377 139 745 c 0,6,7
 139 1111 139 1111 298.5 1315.5 c 128,-1,8
 458 1520 458 1520 743 1520 c 0,9,10
 834 1520 834 1520 915 1499.5 c 128,-1,11
 996 1479 996 1479 1073 1438 c 1,12,-1
 1073 1231 l 1,13,14
 999 1292 999 1292 914 1324 c 128,-1,15
 829 1356 829 1356 743 1356 c 0,16,17
 546 1356 546 1356 448 1204 c 128,-1,18
 350 1052 350 1052 350 745 c 0,19,20
 350 439 350 439 448 287 c 128,-1,21
 546 135 546 135 743 135 c 0,22,23
 831 135 831 135 915.5 167 c 128,-1,24
 1000 199 1000 199 1073 260 c 1,25,-1
 1073 53 l 1,0,1
762 1899 m 1,26,-1
 948 1899 l 1,27,-1
 719 1635 l 1,28,-1
 565 1635 l 1,29,-1
 762 1899 l 1,26,-1
EndSplineSet
EndChar

StartChar: cacute
Encoding: 263 263 174
Width: 1233
Flags: W
LayerCount: 2
Fore
SplineSet
1061 57 m 1,0,1
 987 14 987 14 908.5 -7.5 c 128,-1,2
 830 -29 830 -29 748 -29 c 0,3,4
 488 -29 488 -29 341.5 127 c 128,-1,5
 195 283 195 283 195 559 c 256,6,7
 195 835 195 835 341.5 991 c 128,-1,8
 488 1147 488 1147 748 1147 c 0,9,10
 829 1147 829 1147 906 1126 c 128,-1,11
 983 1105 983 1105 1061 1061 c 1,12,-1
 1061 868 l 1,13,14
 988 933 988 933 914.5 962 c 128,-1,15
 841 991 841 991 748 991 c 0,16,17
 575 991 575 991 482 879 c 128,-1,18
 389 767 389 767 389 559 c 0,19,20
 389 352 389 352 482.5 239.5 c 128,-1,21
 576 127 576 127 748 127 c 0,22,23
 844 127 844 127 920 156.5 c 128,-1,24
 996 186 996 186 1061 248 c 1,25,-1
 1061 57 l 1,0,1
846 1638 m 1,26,-1
 1044 1638 l 1,27,-1
 719 1262 l 1,28,-1
 565 1262 l 1,29,-1
 846 1638 l 1,26,-1
EndSplineSet
EndChar

StartChar: Ccaron
Encoding: 268 268 175
Width: 1233
Flags: W
LayerCount: 2
Fore
SplineSet
1073 53 m 1,0,1
 996 12 996 12 915 -8.5 c 128,-1,2
 834 -29 834 -29 743 -29 c 0,3,4
 456 -29 456 -29 297.5 174 c 128,-1,5
 139 377 139 377 139 745 c 0,6,7
 139 1111 139 1111 298.5 1315.5 c 128,-1,8
 458 1520 458 1520 743 1520 c 0,9,10
 834 1520 834 1520 915 1499.5 c 128,-1,11
 996 1479 996 1479 1073 1438 c 1,12,-1
 1073 1231 l 1,13,14
 999 1292 999 1292 914 1324 c 128,-1,15
 829 1356 829 1356 743 1356 c 0,16,17
 546 1356 546 1356 448 1204 c 128,-1,18
 350 1052 350 1052 350 745 c 0,19,20
 350 439 350 439 448 287 c 128,-1,21
 546 135 546 135 743 135 c 0,22,23
 831 135 831 135 915.5 167 c 128,-1,24
 1000 199 1000 199 1073 260 c 1,25,-1
 1073 53 l 1,0,1
612 1635 m 1,26,-1
 401 1901 l 1,27,-1
 541 1901 l 1,28,-1
 706 1723 l 1,29,-1
 872 1901 l 1,30,-1
 1012 1901 l 1,31,-1
 801 1635 l 1,32,-1
 612 1635 l 1,26,-1
EndSplineSet
EndChar

StartChar: dcroat
Encoding: 273 273 177
Width: 1233
Flags: W
LayerCount: 2
Fore
SplineSet
858 977 m 1,0,-1
 858 1286 l 1,1,-1
 553 1286 l 1,2,-1
 553 1407 l 1,3,-1
 858 1407 l 1,4,-1
 858 1556 l 1,5,-1
 1042 1556 l 1,6,-1
 1042 1407 l 1,7,-1
 1233 1407 l 1,8,-1
 1233 1286 l 1,9,-1
 1042 1286 l 1,10,-1
 1042 0 l 1,11,-1
 858 0 l 1,12,-1
 858 141 l 1,13,14
 812 58 812 58 735.5 14.5 c 128,-1,15
 659 -29 659 -29 559 -29 c 0,16,17
 356 -29 356 -29 239.5 128.5 c 128,-1,18
 123 286 123 286 123 563 c 0,19,20
 123 836 123 836 240 991.5 c 128,-1,21
 357 1147 357 1147 559 1147 c 0,22,23
 660 1147 660 1147 737 1103.5 c 128,-1,24
 814 1060 814 1060 858 977 c 1,0,-1
317 559 m 256,25,26
 317 345 317 345 385 236 c 128,-1,27
 453 127 453 127 586 127 c 256,28,29
 719 127 719 127 788.5 237 c 128,-1,30
 858 347 858 347 858 559 c 0,31,32
 858 772 858 772 788.5 881.5 c 128,-1,33
 719 991 719 991 586 991 c 256,34,35
 453 991 453 991 385 882 c 128,-1,36
 317 773 317 773 317 559 c 256,25,26
EndSplineSet
EndChar

StartChar: periodcentered
Encoding: 8729 8729 178
Width: 1233
Flags: W
LayerCount: 2
Fore
SplineSet
489 864 m 1,0,-1
 741 864 l 1,1,-1
 741 559 l 1,2,-1
 489 559 l 1,3,-1
 489 864 l 1,0,-1
EndSplineSet
EndChar

StartChar: Euro
Encoding: 8364 8364 179
Width: 1235
Flags: W
LayerCount: 2
Fore
SplineSet
0 518 m 1,0,-1
 0 666 l 1,1,2
 691 666 691 666 691 -484 c 1,3,-1
 543 -484 l 1,4,5
 543 518 543 518 0 518 c 1,0,-1
EndSplineSet
EndChar

StartChar: uni008D
Encoding: 141 141 180
Width: 1234
Flags: W
LayerCount: 2
Fore
SplineSet
0 0 m 1,0,-1
 0 635 l 1,1,2
 79 754 79 754 158.5 893 c 128,-1,3
 238 1032 238 1032 317 635 c 1,4,5
 476 318 476 318 635 397 c 128,-1,6
 794 476 794 476 833.5 754 c 128,-1,7
 873 1032 873 1032 952.5 1032 c 128,-1,8
 1032 1032 1032 1032 1032 873 c 128,-1,9
 1032 714 1032 714 1111 476 c 1,10,-1
 1111 0 l 1,11,-1
 0 0 l 1,0,-1
EndSplineSet
EndChar

StartChar: Zcaron
Encoding: 381 381 181
Width: 1234
Flags: W
LayerCount: 2
Fore
SplineSet
495 438 m 1,0,-1
 495 905 l 1,1,-1
 309 906 l 1,2,-1
 309 999 l 1,3,-1
 496 999 l 1,4,-1
 496 1186 l 1,5,-1
 589 1186 l 1,6,-1
 589 999 l 1,7,-1
 776 999 l 1,8,-1
 776 906 l 1,9,-1
 589 906 l 1,10,-1
 589 438 l 1,11,-1
 495 438 l 1,0,-1
719 0 m 1,12,13
 719 556 719 556 957 556 c 128,-1,14
 1195 556 1195 556 1195 0 c 1,15,-1
 719 0 l 1,12,13
EndSplineSet
EndChar

StartChar: uni008F
Encoding: 143 143 182
Width: 1234
Flags: W
LayerCount: 2
Fore
SplineSet
617 290 m 256,0,1
 494 290 494 290 407.5 376.5 c 128,-1,2
 321 463 321 463 321 586 c 256,3,4
 321 709 321 709 407.5 795.5 c 128,-1,5
 494 882 494 882 617 882 c 256,6,7
 740 882 740 882 826.5 795.5 c 128,-1,8
 913 709 913 709 913 586 c 256,9,10
 913 463 913 463 826.5 376.5 c 128,-1,11
 740 290 740 290 617 290 c 256,0,1
EndSplineSet
EndChar

StartChar: uni0090
Encoding: 144 144 183
Width: 1234
Flags: W
LayerCount: 2
Fore
SplineSet
291 0 m 1,0,-1
 291 394 l 1,1,2
 0 390 0 390 0 685 c 128,-1,3
 0 980 0 980 400.5 980 c 128,-1,4
 801 980 801 980 801 685 c 128,-1,5
 801 390 801 390 488 394 c 1,6,-1
 488 0 l 1,7,-1
 291 0 l 1,0,-1
983 541 m 1,8,-1
 983 921 l 1,9,10
 695 921 695 921 695 1205.5 c 128,-1,11
 695 1490 695 1490 1082 1490 c 128,-1,12
 1469 1490 1469 1490 1469 1205.5 c 128,-1,13
 1469 921 1469 921 1167 921 c 1,14,-1
 1167 541 l 1,15,-1
 983 541 l 1,8,-1
EndSplineSet
EndChar

StartChar: quoteleft
Encoding: 8216 8216 184
Width: 1234
Flags: W
LayerCount: 2
Fore
SplineSet
0 1422 m 1,0,-1
 0 1657 l 1,1,-1
 204 1657 l 1,2,-1
 204 1422 l 1,3,-1
 0 1422 l 1,0,-1
0 944 m 1,4,-1
 0 1180 l 1,5,-1
 204 1180 l 1,6,-1
 204 944 l 1,7,-1
 0 944 l 1,4,-1
0 468 m 1,8,-1
 0 704 l 1,9,-1
 204 704 l 1,10,-1
 204 468 l 1,11,-1
 0 468 l 1,8,-1
0 -8 m 1,12,-1
 0 227 l 1,13,-1
 204 227 l 1,14,-1
 204 -8 l 1,15,-1
 0 -8 l 1,12,-1
0 -485 m 1,16,-1
 0 -249 l 1,17,-1
 204 -249 l 1,18,-1
 204 -485 l 1,19,-1
 0 -485 l 1,16,-1
206 1659 m 1,20,-1
 206 1895 l 1,21,-1
 410 1895 l 1,22,-1
 410 1659 l 1,23,-1
 206 1659 l 1,20,-1
206 1184 m 1,24,-1
 206 1419 l 1,25,-1
 410 1419 l 1,26,-1
 410 1184 l 1,27,-1
 206 1184 l 1,24,-1
206 706 m 1,28,-1
 206 942 l 1,29,-1
 410 942 l 1,30,-1
 410 706 l 1,31,-1
 206 706 l 1,28,-1
206 230 m 1,32,-1
 206 466 l 1,33,-1
 410 466 l 1,34,-1
 410 230 l 1,35,-1
 206 230 l 1,32,-1
206 -246 m 1,36,-1
 206 -10 l 1,37,-1
 410 -10 l 1,38,-1
 410 -246 l 1,39,-1
 206 -246 l 1,36,-1
412 1422 m 1,40,-1
 412 1657 l 1,41,-1
 616 1657 l 1,42,-1
 616 1422 l 1,43,-1
 412 1422 l 1,40,-1
412 944 m 1,44,-1
 412 1180 l 1,45,-1
 616 1180 l 1,46,-1
 616 944 l 1,47,-1
 412 944 l 1,44,-1
412 468 m 1,48,-1
 412 704 l 1,49,-1
 616 704 l 1,50,-1
 616 468 l 1,51,-1
 412 468 l 1,48,-1
412 -8 m 1,52,-1
 412 227 l 1,53,-1
 616 227 l 1,54,-1
 616 -8 l 1,55,-1
 412 -8 l 1,52,-1
412 -485 m 1,56,-1
 412 -249 l 1,57,-1
 616 -249 l 1,58,-1
 616 -485 l 1,59,-1
 412 -485 l 1,56,-1
618 1659 m 1,60,-1
 618 1895 l 1,61,-1
 822 1895 l 1,62,-1
 822 1659 l 1,63,-1
 618 1659 l 1,60,-1
618 1184 m 1,64,-1
 618 1419 l 1,65,-1
 822 1419 l 1,66,-1
 822 1184 l 1,67,-1
 618 1184 l 1,64,-1
618 706 m 1,68,-1
 618 942 l 1,69,-1
 822 942 l 1,70,-1
 822 706 l 1,71,-1
 618 706 l 1,68,-1
618 230 m 1,72,-1
 618 466 l 1,73,-1
 822 466 l 1,74,-1
 822 230 l 1,75,-1
 618 230 l 1,72,-1
618 -246 m 1,76,-1
 618 -10 l 1,77,-1
 822 -10 l 1,78,-1
 822 -246 l 1,79,-1
 618 -246 l 1,76,-1
824 1422 m 1,80,-1
 824 1657 l 1,81,-1
 1028 1657 l 1,82,-1
 1028 1422 l 1,83,-1
 824 1422 l 1,80,-1
824 944 m 1,84,-1
 824 1180 l 1,85,-1
 1028 1180 l 1,86,-1
 1028 944 l 1,87,-1
 824 944 l 1,84,-1
824 468 m 1,88,-1
 824 704 l 1,89,-1
 1028 704 l 1,90,-1
 1028 468 l 1,91,-1
 824 468 l 1,88,-1
824 -8 m 1,92,-1
 824 227 l 1,93,-1
 1028 227 l 1,94,-1
 1028 -8 l 1,95,-1
 824 -8 l 1,92,-1
824 -485 m 1,96,-1
 824 -249 l 1,97,-1
 1028 -249 l 1,98,-1
 1028 -485 l 1,99,-1
 824 -485 l 1,96,-1
1030 1659 m 1,100,-1
 1030 1895 l 1,101,-1
 1234 1895 l 1,102,-1
 1234 1659 l 1,103,-1
 1030 1659 l 1,100,-1
1030 1184 m 1,104,-1
 1030 1419 l 1,105,-1
 1234 1419 l 1,106,-1
 1234 1184 l 1,107,-1
 1030 1184 l 1,104,-1
1030 706 m 1,108,-1
 1030 942 l 1,109,-1
 1234 942 l 1,110,-1
 1234 706 l 1,111,-1
 1030 706 l 1,108,-1
1030 230 m 1,112,-1
 1030 466 l 1,113,-1
 1234 466 l 1,114,-1
 1234 230 l 1,115,-1
 1030 230 l 1,112,-1
1030 -246 m 1,116,-1
 1030 -10 l 1,117,-1
 1234 -10 l 1,118,-1
 1234 -246 l 1,119,-1
 1030 -246 l 1,116,-1
EndSplineSet
EndChar

StartChar: quoteright
Encoding: 8217 8217 185
Width: 1234
Flags: W
LayerCount: 2
Fore
SplineSet
0 960 m 1,0,-1
 0 1089 l 1,1,2
 617 1612 617 1612 1234 1083 c 1,3,-1
 1234 954 l 1,4,5
 617 1524 617 1524 0 960 c 1,0,-1
EndSplineSet
EndChar

StartChar: quotedblleft
Encoding: 8220 8220 186
Width: 1234
Flags: W
LayerCount: 2
Fore
SplineSet
-12 1106 m 1,0,-1
 -12 1232 l 1,1,2
 593 1744 593 1744 1198 1226 c 1,3,-1
 1198 1100 l 1,4,5
 593 1658 593 1658 -12 1106 c 1,0,-1
300 0 m 1,6,-1
 300 1116 l 1,7,-1
 884 1116 l 1,8,-1
 884 0 l 1,9,-1
 300 0 l 1,6,-1
EndSplineSet
EndChar

StartChar: quotedblright
Encoding: 8221 8221 187
Width: 1234
Flags: W
LayerCount: 2
Fore
SplineSet
-12 1105 m 1,0,-1
 -12 1215 l 1,1,2
 515 1661 515 1661 1041 1210 c 1,3,-1
 1041 1100 l 1,4,5
 515 1586 515 1586 -12 1105 c 1,0,-1
300 -436 m 1,6,-1
 300 1000 l 1,7,-1
 691 1000 l 1,8,-1
 691 -436 l 1,9,-1
 300 -436 l 1,6,-1
EndSplineSet
EndChar

StartChar: bullet
Encoding: 8226 8226 188
Width: 1234
Flags: W
LayerCount: 2
Fore
SplineSet
400 1912 m 1,0,-1
 0 1489 l 1,1,-1
 400 1066 l 1,2,-1
 0 655 l 1,3,-1
 400 233 l 1,4,-1
 0 -124 l 1,5,-1
 400 -482 l 1,6,-1
 560 -482 l 1,7,-1
 160 -124 l 1,8,-1
 560 233 l 1,9,-1
 160 655 l 1,10,-1
 560 1066 l 1,11,-1
 160 1489 l 1,12,-1
 554 1911 l 1,13,-1
 400 1912 l 1,0,-1
1062 1913 m 1,14,-1
 653 1490 l 1,15,-1
 1062 1067 l 1,16,-1
 653 657 l 1,17,-1
 1062 234 l 1,18,-1
 653 -122 l 1,19,-1
 1062 -479 l 1,20,-1
 1225 -479 l 1,21,-1
 817 -122 l 1,22,-1
 1225 234 l 1,23,-1
 817 657 l 1,24,-1
 1225 1067 l 1,25,-1
 817 1490 l 1,26,-1
 1237 1913 l 1,27,-1
 1062 1913 l 1,14,-1
EndSplineSet
EndChar

StartChar: uni0096
Encoding: 150 150 189
Width: 1234
Flags: W
LayerCount: 2
Fore
SplineSet
0 1908 m 1,0,-1
 1234 1908 l 1,1,-1
 1234 -487 l 1,2,-1
 0 -487 l 1,3,-1
 0 1908 l 1,0,-1
EndSplineSet
EndChar

StartChar: emdash
Encoding: 8212 8212 190
Width: 1234
Flags: W
LayerCount: 2
Fore
SplineSet
0 6 m 1,0,-1
 0 135 l 1,1,2
 617 658 617 658 1234 129 c 1,3,-1
 1234 0 l 1,4,5
 617 570 617 570 0 6 c 1,0,-1
EndSplineSet
EndChar

StartChar: tilde
Encoding: 732 732 191
Width: 1234
Flags: W
LayerCount: 2
Fore
SplineSet
0 0 m 1,0,-1
 0 596 l 1,1,2
 75 708 75 708 149.5 838.5 c 128,-1,3
 224 969 224 969 224 75 c 1,4,5
 447 -44 447 -44 596.5 30 c 128,-1,6
 746 104 746 104 766.5 201 c 128,-1,7
 787 298 787 298 861.5 298 c 128,-1,8
 936 298 936 298 952.5 484.5 c 128,-1,9
 969 671 969 671 1044 447 c 1,10,-1
 1044 0 l 1,11,-1
 0 0 l 1,0,-1
EndSplineSet
EndChar

StartChar: trademark
Encoding: 8482 8482 192
Width: 1234
Flags: W
LayerCount: 2
Fore
SplineSet
1177 452 m 1,0,-1
 -19 452 l 1,1,-1
 -19 495 l 1,2,-1
 1177 495 l 1,3,-1
 1177 452 l 1,0,-1
221 361 m 256,4,5
 241 361 241 361 260 351 c 128,-1,6
 279 341 279 341 289.5 322 c 128,-1,7
 300 303 300 303 300 282 c 0,8,9
 300 262 300 262 289.5 243 c 128,-1,10
 279 224 279 224 260.5 213.5 c 128,-1,11
 242 203 242 203 221 203 c 256,12,13
 200 203 200 203 181.5 213.5 c 128,-1,14
 163 224 163 224 152.5 243 c 128,-1,15
 142 262 142 262 142 282 c 0,16,17
 142 303 142 303 152.5 322 c 128,-1,18
 163 341 163 341 182 351 c 128,-1,19
 201 361 201 361 221 361 c 256,4,5
508 361 m 256,20,21
 528 361 528 361 547 351 c 128,-1,22
 566 341 566 341 576.5 322 c 128,-1,23
 587 303 587 303 587 282 c 0,24,25
 587 262 587 262 577 243 c 128,-1,26
 567 224 567 224 548 213.5 c 128,-1,27
 529 203 529 203 508 203 c 0,28,29
 488 203 488 203 469 213.5 c 128,-1,30
 450 224 450 224 439.5 243 c 128,-1,31
 429 262 429 262 429 282 c 0,32,33
 429 303 429 303 440 322 c 128,-1,34
 451 341 451 341 469.5 351 c 128,-1,35
 488 361 488 361 508 361 c 256,20,21
794 363 m 0,36,37
 813 363 813 363 832 353 c 128,-1,38
 851 343 851 343 862 324 c 128,-1,39
 873 305 873 305 873 284 c 0,40,41
 873 264 873 264 862.5 245 c 128,-1,42
 852 226 852 226 833 215.5 c 128,-1,43
 814 205 814 205 794 205 c 0,44,45
 773 205 773 205 754 215.5 c 128,-1,46
 735 226 735 226 725 245 c 128,-1,47
 715 264 715 264 715 284 c 0,48,49
 715 305 715 305 725.5 324 c 128,-1,50
 736 343 736 343 754.5 353 c 128,-1,51
 773 363 773 363 794 363 c 0,36,37
1061 361 m 0,52,53
 1080 361 1080 361 1099.5 351 c 128,-1,54
 1119 341 1119 341 1129.5 322 c 128,-1,55
 1140 303 1140 303 1140 282 c 0,56,57
 1140 262 1140 262 1129.5 243 c 128,-1,58
 1119 224 1119 224 1100 213.5 c 128,-1,59
 1081 203 1081 203 1061 203 c 0,60,61
 1040 203 1040 203 1021 213.5 c 128,-1,62
 1002 224 1002 224 992 243 c 128,-1,63
 982 262 982 262 982 282 c 0,64,65
 982 303 982 303 992.5 322 c 128,-1,66
 1003 341 1003 341 1022 351 c 128,-1,67
 1041 361 1041 361 1061 361 c 0,52,53
EndSplineSet
EndChar

StartChar: scaron
Encoding: 353 353 193
Width: 1234
Flags: W
LayerCount: 2
Fore
SplineSet
924 -193 m 1,0,-1
 -100 -193 l 1,1,-1
 -100 0 l 1,2,-1
 924 0 l 1,3,-1
 924 -193 l 1,0,-1
-100 0 m 1,4,-1
 451 429 l 1,5,-1
 100 752 l 1,6,-1
 200 900 l 1,7,-1
 500 600 l 1,8,-1
 500 1000 l 1,9,-1
 700 1000 l 1,10,-1
 642 600 l 1,11,-1
 900 900 l 1,12,-1
 959 700 l 1,13,-1
 800 473 l 1,14,-1
 941 300 l 1,15,-1
 838 100 l 1,16,-1
 654 336 l 1,17,-1
 200 0 l 1,18,-1
 -100 0 l 1,4,-1
EndSplineSet
EndChar

StartChar: guilsinglright
Encoding: 8250 8250 194
Width: 1234
Flags: W
LayerCount: 2
Fore
SplineSet
373.5 432 m 128,-1,1
 519 432 519 432 519 293.5 c 128,-1,2
 519 155 519 155 373.5 155 c 128,-1,3
 228 155 228 155 228 293.5 c 128,-1,0
 228 432 228 432 373.5 432 c 128,-1,1
737 100 m 1,4,-1
 737 600 l 1,5,-1
 538 961 l 1,6,-1
 682 961 l 1,7,-1
 827 700 l 1,8,-1
 969 961 l 1,9,-1
 1112 961 l 1,10,-1
 900 600 l 1,11,-1
 900 100 l 1,12,-1
 737 100 l 1,4,-1
188.5 1353 m 128,-1,14
 334 1353 334 1353 334 1214.5 c 128,-1,15
 334 1076 334 1076 188.5 1076 c 128,-1,16
 43 1076 43 1076 43 1214.5 c 128,-1,13
 43 1353 43 1353 188.5 1353 c 128,-1,14
EndSplineSet
EndChar

StartChar: oe
Encoding: 339 339 195
Width: 1234
Flags: W
LayerCount: 2
Fore
SplineSet
0 -486 m 1,0,-1
 0 199 l 1,1,-1
 212 199 l 1,2,-1
 212 -486 l 1,3,-1
 0 -486 l 1,0,-1
0 1317 m 1,4,-1
 0 1896 l 1,5,-1
 212 1896 l 1,6,-1
 212 1317 l 1,7,-1
 0 1317 l 1,4,-1
330 782 m 1,8,-1
 330 1803 l 1,9,-1
 542 1803 l 1,10,-1
 542 782 l 1,11,-1
 330 782 l 1,8,-1
330 -396 m 1,12,-1
 330 669 l 1,13,-1
 542 669 l 1,14,-1
 542 -396 l 1,15,-1
 330 -396 l 1,12,-1
655 -486 m 1,16,-1
 655 199 l 1,17,-1
 867 199 l 1,18,-1
 867 -486 l 1,19,-1
 655 -486 l 1,16,-1
0 326 m 1,20,-1
 0 1185 l 1,21,-1
 211 1185 l 1,22,-1
 211 326 l 1,23,-1
 0 326 l 1,20,-1
649 1317 m 1,24,-1
 649 1898 l 1,25,-1
 860 1898 l 1,26,-1
 860 1317 l 1,27,-1
 649 1317 l 1,24,-1
650 322 m 1,28,-1
 650 1185 l 1,29,-1
 862 1185 l 1,30,-1
 862 322 l 1,31,-1
 650 322 l 1,28,-1
958 809 m 1,32,-1
 958 1795 l 1,33,-1
 1169 1795 l 1,34,-1
 1169 809 l 1,35,-1
 958 809 l 1,32,-1
958 -401 m 1,36,-1
 958 673 l 1,37,-1
 1169 673 l 1,38,-1
 1169 -401 l 1,39,-1
 958 -401 l 1,36,-1
EndSplineSet
EndChar

StartChar: uni009D
Encoding: 157 157 196
Width: 1234
Flags: W
LayerCount: 2
Fore
SplineSet
1000 1400 m 1,0,-1
 1000 1600 l 1,1,2
 101 1700 101 1700 100.5 1222.5 c 128,-1,3
 100 745 100 745 533.5 698.5 c 128,-1,4
 967 652 967 652 918.5 326 c 128,-1,5
 870 0 870 0 100 136 c 1,6,-1
 100 0 l 1,7,8
 1045 -157 1045 -157 1087 321.5 c 128,-1,9
 1129 800 1129 800 687.5 846.5 c 128,-1,10
 246 893 246 893 246.5 1196.5 c 128,-1,11
 247 1500 247 1500 1000 1400 c 1,0,-1
358 1800 m 1,12,-1
 355 -207 l 1,13,-1
 500 -204 l 1,14,-1
 503 1800 l 1,15,-1
 358 1800 l 1,12,-1
713 1800 m 1,16,-1
 700 -203 l 1,17,-1
 855 -200 l 1,18,-1
 858 1800 l 1,19,-1
 713 1800 l 1,16,-1
EndSplineSet
EndChar

StartChar: zcaron
Encoding: 382 382 197
Width: 1236
Flags: W
LayerCount: 2
Fore
SplineSet
1233 660 m 1,0,-1
 1233 853 l 1,1,2
 898 460 898 460 603 760 c 128,-1,3
 308 1060 308 1060 -1 860 c 1,4,-1
 -1 660 l 1,5,6
 308 860 308 860 600 556 c 128,-1,7
 892 252 892 252 1233 660 c 1,0,-1
1232 39 m 1,8,-1
 1232 232 l 1,9,10
 898 -160 898 -160 602.5 139.5 c 128,-1,11
 307 439 307 439 -1 239 c 1,12,-1
 -1 39 l 1,13,14
 307 239 307 239 599 -64.5 c 128,-1,15
 891 -368 891 -368 1232 39 c 1,8,-1
1233 1286 m 1,16,-1
 1233 1479 l 1,17,18
 898 1086 898 1086 603 1386 c 128,-1,19
 308 1686 308 1686 0 1486 c 1,20,-1
 0 1286 l 1,21,22
 308 1486 308 1486 600 1182 c 128,-1,23
 892 878 892 878 1233 1286 c 1,16,-1
EndSplineSet
EndChar

StartChar: Ydieresis
Encoding: 376 376 198
Width: 1234
Flags: W
LayerCount: 2
Fore
SplineSet
600 0 m 1,0,-1
 800 0 l 1,1,-1
 800 400 l 1,2,-1
 1200 800 l 1,3,-1
 1000 800 l 1,4,-1
 800 600 l 1,5,-1
 800 1000 l 1,6,7
 900 1000 900 1000 920.5 1177.5 c 128,-1,8
 941 1355 941 1355 693 1355 c 128,-1,9
 445 1355 445 1355 472.5 1177.5 c 128,-1,10
 500 1000 500 1000 600 1000 c 1,11,-1
 600 600 l 1,12,-1
 400 800 l 1,13,-1
 200 800 l 1,14,-1
 600 400 l 1,15,-1
 600 0 l 1,0,-1
870 1383 m 1,16,-1
 1100 1500 l 1,17,-1
 1200 1400 l 1,18,-1
 962 1300 l 1,19,-1
 870 1383 l 1,16,-1
300 1500 m 1,20,-1
 500 1400 l 1,21,-1
 400 1300 l 1,22,-1
 200 1400 l 1,23,-1
 300 1500 l 1,20,-1
645 1400 m 1,24,-1
 645 1600 l 1,25,-1
 800 1600 l 1,26,-1
 800 1400 l 1,27,-1
 645 1400 l 1,24,-1
1000 1200 m 1,28,-1
 1200 1200 l 1,29,-1
 1200 1100 l 1,30,-1
 956 1100 l 1,31,-1
 1000 1200 l 1,28,-1
200 1200 m 1,32,-1
 400 1200 l 1,33,-1
 400 1100 l 1,34,-1
 200 1100 l 1,35,-1
 200 1200 l 1,32,-1
200 938 m 1,36,-1
 430 1056 l 1,37,-1
 530 956 l 1,38,-1
 292 856 l 1,39,-1
 200 938 l 1,36,-1
950 1060 m 1,40,-1
 1150 960 l 1,41,-1
 1050 860 l 1,42,-1
 850 960 l 1,43,-1
 950 1060 l 1,40,-1
EndSplineSet
EndChar

StartChar: uni00A0
Encoding: 160 160 199
Width: 1234
Flags: W
LayerCount: 2
Fore
SplineSet
200 -100 m 1,0,-1
 200 41 l 1,1,2
 665 307 665 307 1188 48 c 1,3,-1
 1188 -100 l 1,4,5
 665 191 665 191 200 -100 c 1,0,-1
444 200 m 1,6,-1
 200 383 l 1,7,-1
 322 444 l 1,8,-1
 505 261 l 1,9,-1
 444 200 l 1,6,-1
692 300 m 1,10,-1
 692 517 l 1,11,-1
 800 517 l 1,12,-1
 800 300 l 1,13,-1
 692 300 l 1,10,-1
1006 206 m 1,14,-1
 958 255 l 1,15,-1
 1103 400 l 1,16,-1
 1200 352 l 1,17,-1
 1006 206 l 1,14,-1
EndSplineSet
EndChar

StartChar: exclamdown
Encoding: 161 161 200
Width: 1234
Flags: W
LayerCount: 2
Fore
SplineSet
609 0 m 1,0,-1
 609 309 l 1,1,-1
 300 541 l 1,2,-1
 377 618 l 1,3,-1
 686 386 l 1,4,-1
 841 618 l 1,5,-1
 918 541 l 1,6,-1
 764 309 l 1,7,-1
 764 0 l 1,8,-1
 609 0 l 1,0,-1
400 0 m 1,9,-1
 316 0 l 1,10,-1
 316 251 l 1,11,-1
 91 580 l 1,12,-1
 149 668 l 1,13,-1
 400 334 l 1,14,-1
 400 0 l 1,9,-1
900 0 m 1,15,-1
 900 290 l 1,16,-1
 1045 363 l 1,17,-1
 1118 290 l 1,18,-1
 973 218 l 1,19,-1
 973 0 l 1,20,-1
 900 0 l 1,15,-1
EndSplineSet
EndChar

StartChar: sterling
Encoding: 163 163 201
Width: 1235
Flags: W
LayerCount: 2
Fore
SplineSet
486 2140 m 1,0,-1
 286 1840 l 1,1,-1
 418 1638 l 1,2,-1
 484 1510 l 1,3,-1
 218 1438 l 1,4,-1
 118 1338 l 1,5,-1
 18 1038 l 1,6,-1
 218 1138 l 1,7,-1
 318 1238 l 1,8,-1
 448 1238 l 1,9,-1
 448 938 l 1,10,-1
 561 706 l 1,11,-1
 712 601 l 1,12,-1
 918 538 l 1,13,-1
 1018 538 l 1,14,-1
 918 638 l 1,15,-1
 718 738 l 1,16,-1
 648 938 l 1,17,-1
 648 1238 l 1,18,-1
 771 1238 l 1,19,-1
 871 1138 l 1,20,-1
 1071 1054 l 1,21,-1
 929 1396 l 1,22,-1
 813 1449 l 1,23,-1
 597 1522 l 1,24,-1
 618 1638 l 1,25,-1
 686 1840 l 1,26,-1
 486 2140 l 1,0,-1
432 1933 m 1,27,-1
 474 1855 l 1,28,-1
 432 1771 l 1,29,-1
 360 1849 l 1,30,-1
 432 1933 l 1,27,-1
563 1951 m 1,31,-1
 635 1843 l 1,32,-1
 563 1777 l 1,33,-1
 510 1873 l 1,34,-1
 563 1951 l 1,31,-1
EndSplineSet
EndChar

StartChar: currency
Encoding: 164 164 202
Width: 1234
Flags: W
LayerCount: 2
Fore
SplineSet
0 200 m 1,0,-1
 100 200 l 1,1,-1
 300 200 l 2,2,3
 500 200 500 200 600 400 c 1,4,-1
 600 700 l 1,5,-1
 600 900 l 1,6,-1
 600 1100 l 1,7,8
 400 1400 400 1400 600 1600 c 1,9,10
 800 1600 800 1600 800 1550 c 128,-1,11
 800 1500 800 1500 1000 1500 c 1,12,-1
 1093 1347 l 1,13,14
 800 1400 800 1400 800 1200 c 1,15,-1
 924 1145 l 1,16,-1
 1075 1151 l 1,17,18
 1100 1000 1100 1000 800 1100 c 1,19,-1
 800 900 l 1,20,-1
 800 700 l 1,21,-1
 800 400 l 1,22,23
 700 100 700 100 338 -39 c 1,24,-1
 97 -69 l 1,25,-1
 -6 -63 l 1,26,-1
 0 200 l 1,0,-1
672 1543 m 0,27,28
 642 1543 642 1543 621 1522 c 128,-1,29
 600 1501 600 1501 600 1472 c 0,30,31
 600 1442 600 1442 621 1421 c 128,-1,32
 642 1400 642 1400 672 1400 c 0,33,34
 701 1400 701 1400 722 1421 c 128,-1,35
 743 1442 743 1442 743 1472 c 0,36,37
 743 1501 743 1501 722 1522 c 128,-1,38
 701 1543 701 1543 672 1543 c 0,27,28
EndSplineSet
EndChar

StartChar: yen
Encoding: 165 165 203
Width: 1234
Flags: W
LayerCount: 2
Fore
SplineSet
0 200 m 1,0,-1
 514 653 l 1,1,-1
 0 1200 l 1,2,-1
 200 1400 l 1,3,-1
 634 808 l 1,4,-1
 1000 1400 l 1,5,-1
 1200 1200 l 1,6,-1
 727 681 l 1,7,-1
 1200 200 l 1,8,-1
 985 0 l 1,9,-1
 606 522 l 1,10,-1
 203 0 l 1,11,-1
 0 200 l 1,0,-1
EndSplineSet
EndChar

StartChar: brokenbar
Encoding: 166 166 204
Width: 1234
Flags: W
LayerCount: 2
Fore
SplineSet
7 3 m 1,0,-1
 7 191 l 1,1,2
 101 600 101 600 285.5 500 c 128,-1,3
 470 400 470 400 483.5 262 c 128,-1,4
 497 124 497 124 800 200 c 1,5,6
 866 400 866 400 976.5 396.5 c 128,-1,7
 1087 393 1087 393 1200 200 c 1,8,-1
 1200 0 l 1,9,-1
 7 3 l 1,0,-1
EndSplineSet
EndChar

StartChar: section
Encoding: 167 167 205
Width: 1234
Flags: W
LayerCount: 2
Fore
SplineSet
0 1427 m 1,0,-1
 0 1662 l 1,1,-1
 204 1662 l 1,2,-1
 204 1427 l 1,3,-1
 0 1427 l 1,0,-1
0 949 m 1,4,-1
 0 1185 l 1,5,-1
 204 1185 l 1,6,-1
 204 949 l 1,7,-1
 0 949 l 1,4,-1
0 472 m 1,8,-1
 0 708 l 1,9,-1
 204 708 l 1,10,-1
 204 472 l 1,11,-1
 0 472 l 1,8,-1
0 -5 m 1,12,-1
 0 231 l 1,13,-1
 204 231 l 1,14,-1
 204 -5 l 1,15,-1
 0 -5 l 1,12,-1
0 -483 m 1,16,-1
 0 -246 l 1,17,-1
 204 -246 l 1,18,-1
 204 -483 l 1,19,-1
 0 -483 l 1,16,-1
206 1665 m 1,20,-1
 206 1901 l 1,21,-1
 410 1901 l 1,22,-1
 410 1665 l 1,23,-1
 206 1665 l 1,20,-1
206 1189 m 1,24,-1
 206 1424 l 1,25,-1
 410 1424 l 1,26,-1
 410 1189 l 1,27,-1
 206 1189 l 1,24,-1
206 710 m 1,28,-1
 206 946 l 1,29,-1
 410 946 l 1,30,-1
 410 710 l 1,31,-1
 206 710 l 1,28,-1
206 233 m 1,32,-1
 206 469 l 1,33,-1
 410 469 l 1,34,-1
 410 233 l 1,35,-1
 206 233 l 1,32,-1
206 -244 m 1,36,-1
 206 -8 l 1,37,-1
 410 -8 l 1,38,-1
 410 -244 l 1,39,-1
 206 -244 l 1,36,-1
412 1427 m 1,40,-1
 412 1662 l 1,41,-1
 616 1662 l 1,42,-1
 616 1427 l 1,43,-1
 412 1427 l 1,40,-1
412 949 m 1,44,-1
 412 1185 l 1,45,-1
 616 1185 l 1,46,-1
 616 949 l 1,47,-1
 412 949 l 1,44,-1
412 472 m 1,48,-1
 412 708 l 1,49,-1
 616 708 l 1,50,-1
 616 472 l 1,51,-1
 412 472 l 1,48,-1
412 -5 m 1,52,-1
 412 231 l 1,53,-1
 616 231 l 1,54,-1
 616 -5 l 1,55,-1
 412 -5 l 1,52,-1
412 -483 m 1,56,-1
 412 -246 l 1,57,-1
 616 -246 l 1,58,-1
 616 -483 l 1,59,-1
 412 -483 l 1,56,-1
618 1665 m 1,60,-1
 618 1901 l 1,61,-1
 822 1901 l 1,62,-1
 822 1665 l 1,63,-1
 618 1665 l 1,60,-1
618 1189 m 1,64,-1
 618 1424 l 1,65,-1
 822 1424 l 1,66,-1
 822 1189 l 1,67,-1
 618 1189 l 1,64,-1
618 710 m 1,68,-1
 618 946 l 1,69,-1
 822 946 l 1,70,-1
 822 710 l 1,71,-1
 618 710 l 1,68,-1
618 233 m 1,72,-1
 618 469 l 1,73,-1
 822 469 l 1,74,-1
 822 233 l 1,75,-1
 618 233 l 1,72,-1
618 -244 m 1,76,-1
 618 -8 l 1,77,-1
 822 -8 l 1,78,-1
 822 -244 l 1,79,-1
 618 -244 l 1,76,-1
824 1427 m 1,80,-1
 824 1662 l 1,81,-1
 1028 1662 l 1,82,-1
 1028 1427 l 1,83,-1
 824 1427 l 1,80,-1
824 949 m 1,84,-1
 824 1185 l 1,85,-1
 1028 1185 l 1,86,-1
 1028 949 l 1,87,-1
 824 949 l 1,84,-1
824 472 m 1,88,-1
 824 708 l 1,89,-1
 1028 708 l 1,90,-1
 1028 472 l 1,91,-1
 824 472 l 1,88,-1
824 -5 m 1,92,-1
 824 231 l 1,93,-1
 1028 231 l 1,94,-1
 1028 -5 l 1,95,-1
 824 -5 l 1,92,-1
824 -483 m 1,96,-1
 824 -246 l 1,97,-1
 1028 -246 l 1,98,-1
 1028 -483 l 1,99,-1
 824 -483 l 1,96,-1
1030 1665 m 1,100,-1
 1030 1901 l 1,101,-1
 1234 1901 l 1,102,-1
 1234 1665 l 1,103,-1
 1030 1665 l 1,100,-1
1030 1189 m 1,104,-1
 1030 1424 l 1,105,-1
 1234 1424 l 1,106,-1
 1234 1189 l 1,107,-1
 1030 1189 l 1,104,-1
1030 710 m 1,108,-1
 1030 946 l 1,109,-1
 1234 946 l 1,110,-1
 1234 710 l 1,111,-1
 1030 710 l 1,108,-1
1030 233 m 1,112,-1
 1030 469 l 1,113,-1
 1234 469 l 1,114,-1
 1234 233 l 1,115,-1
 1030 233 l 1,112,-1
1030 -244 m 1,116,-1
 1030 -8 l 1,117,-1
 1234 -8 l 1,118,-1
 1234 -244 l 1,119,-1
 1030 -244 l 1,116,-1
EndSplineSet
EndChar

StartChar: dieresis
Encoding: 168 168 206
Width: 1234
Flags: W
LayerCount: 2
Fore
SplineSet
0 0 m 1,0,-1
 0 190 l 1,1,2
 616 569 616 569 1232 190 c 1,3,-1
 1232 0 l 1,4,5
 616 379 616 379 0 0 c 1,0,-1
622 1188 m 256,6,7
 678 1188 678 1188 731 1159.5 c 128,-1,8
 784 1131 784 1131 814 1077.5 c 128,-1,9
 844 1024 844 1024 844 966 c 0,10,11
 844 909 844 909 814.5 856 c 128,-1,12
 785 803 785 803 732.5 774 c 128,-1,13
 680 745 680 745 622 745 c 256,14,15
 564 745 564 745 511.5 774 c 128,-1,16
 459 803 459 803 429.5 856 c 128,-1,17
 400 909 400 909 400 966 c 0,18,19
 400 1024 400 1024 430 1077.5 c 128,-1,20
 460 1131 460 1131 513 1159.5 c 128,-1,21
 566 1188 566 1188 622 1188 c 256,6,7
400 855 m 1,22,-1
 200 655 l 1,23,-1
 300 555 l 1,24,-1
 500 755 l 1,25,-1
 400 855 l 1,22,-1
845 850 m 1,26,-1
 745 750 l 1,27,-1
 945 550 l 1,28,-1
 1045 640 l 1,29,-1
 845 850 l 1,26,-1
300 1400 m 1,30,-1
 200 1300 l 1,31,-1
 400 1100 l 1,32,-1
 500 1200 l 1,33,-1
 300 1400 l 1,30,-1
900 1400 m 1,34,-1
 700 1200 l 1,35,-1
 800 1143 l 1,36,-1
 1000 1300 l 1,37,-1
 900 1400 l 1,34,-1
EndSplineSet
EndChar

StartChar: copyright
Encoding: 169 169 207
Width: 1234
Flags: W
LayerCount: 2
Fore
SplineSet
0 0 m 1,0,-1
 0 500 l 1,1,2
 200 500 200 500 200 200 c 1,3,4
 400 200 400 200 400 500 c 1,5,6
 600 500 600 500 600 200 c 1,7,8
 800 200 800 200 800 500 c 1,9,10
 1000 500 1000 500 1000 200 c 1,11,-1
 1200 200 l 1,12,-1
 1200 0 l 1,13,-1
 0 0 l 1,0,-1
EndSplineSet
EndChar

StartChar: ordfeminine
Encoding: 170 170 208
Width: 1234
Flags: W
LayerCount: 2
Fore
SplineSet
281 0 m 1,0,-1
 86 0 l 1,1,-1
 86 554 l 2,2,3
 86 753 86 753 239 901.5 c 128,-1,4
 392 1050 392 1050 598 1050 c 0,5,6
 805 1050 805 1050 958 901.5 c 128,-1,7
 1111 753 1111 753 1111 554 c 2,8,-1
 1111 0 l 1,9,-1
 917 0 l 1,10,-1
 918 429 l 2,11,12
 918 568 918 568 836 675 c 128,-1,13
 754 782 754 782 608 782 c 0,14,15
 463 782 463 782 371.5 675 c 128,-1,16
 280 568 280 568 280 429 c 2,17,-1
 281 0 l 1,0,-1
EndSplineSet
EndChar

StartChar: guillemotleft
Encoding: 171 171 209
Width: 1234
Flags: W
LayerCount: 2
Fore
SplineSet
265 0 m 1,0,-1
 265 889 l 1,1,-1
 43 889 l 1,2,-1
 599 1334 l 1,3,-1
 1155 889 l 1,4,-1
 933 889 l 1,5,-1
 933 0 l 1,6,-1
 265 0 l 1,0,-1
400 500 m 1,7,-1
 400 0 l 1,8,-1
 600 0 l 1,9,-1
 600 500 l 1,10,-1
 400 500 l 1,7,-1
637 853 m 1,11,-1
 637 653 l 1,12,-1
 837 655 l 1,13,-1
 837 853 l 1,14,-1
 637 853 l 1,11,-1
EndSplineSet
EndChar

StartChar: logicalnot
Encoding: 172 172 210
Width: 1234
Flags: W
LayerCount: 2
Fore
SplineSet
300 100 m 1,0,-1
 300 0 l 1,1,-1
 912 0 l 1,2,-1
 912 100 l 1,3,-1
 712 100 l 1,4,-1
 700 500 l 1,5,-1
 1000 500 l 1,6,-1
 1012 400 l 1,7,-1
 1112 400 l 1,8,-1
 1100 700 l 1,9,-1
 1000 700 l 1,10,-1
 1000 600 l 1,11,-1
 700 600 l 1,12,-1
 700 900 l 1,13,-1
 500 900 l 1,14,-1
 500 600 l 1,15,-1
 200 600 l 1,16,-1
 200 700 l 1,17,-1
 100 700 l 1,18,-1
 100 400 l 1,19,-1
 200 400 l 1,20,-1
 200 500 l 1,21,-1
 500 500 l 1,22,-1
 500 100 l 1,23,-1
 300 100 l 1,0,-1
605 1509 m 256,24,25
 682 1509 682 1509 754.5 1469.5 c 128,-1,26
 827 1430 827 1430 868.5 1357 c 128,-1,27
 910 1284 910 1284 910 1204 c 0,28,29
 910 1125 910 1125 870 1052.5 c 128,-1,30
 830 980 830 980 757 940 c 128,-1,31
 684 900 684 900 605 900 c 256,32,33
 526 900 526 900 453 940 c 128,-1,34
 380 980 380 980 340 1052.5 c 128,-1,35
 300 1125 300 1125 300 1204 c 0,36,37
 300 1284 300 1284 341 1357 c 128,-1,38
 382 1430 382 1430 455 1469.5 c 128,-1,39
 528 1509 528 1509 605 1509 c 256,24,25
600 1444 m 1,41,42
 400 1425 400 1425 361 1200 c 1,43,44
 400 961 400 961 600 966 c 0,45,46
 800 969 800 969 846 1200 c 1,47,40
 800 1429 800 1429 600 1444 c 1,41,42
EndSplineSet
EndChar

StartChar: uni00AD
Encoding: 173 173 211
Width: 1234
Flags: W
LayerCount: 2
Fore
SplineSet
234 0 m 1,0,-1
 86 0 l 1,1,-1
 86 573 l 2,2,3
 86 779 86 779 244.5 932.5 c 128,-1,4
 403 1086 403 1086 616 1086 c 0,5,6
 830 1086 830 1086 988.5 932.5 c 128,-1,7
 1147 779 1147 779 1147 573 c 2,8,-1
 1147 0 l 1,9,-1
 999 0 l 1,10,-1
 999 573 l 2,11,12
 999 717 999 717 883 827.5 c 128,-1,13
 767 938 767 938 616 938 c 256,14,15
 465 938 465 938 349.5 827.5 c 128,-1,16
 234 717 234 717 234 573 c 2,17,-1
 234 0 l 1,0,-1
EndSplineSet
EndChar

StartChar: registered
Encoding: 174 174 212
Width: 1234
Flags: W
LayerCount: 2
Fore
SplineSet
299 197 m 1,0,-1
 448 197 l 1,1,-1
 448 869 l 1,2,3
 560 1052 560 1052 747 794 c 1,4,-1
 747 944 l 1,5,6
 635 1085 635 1085 448 1058 c 1,7,-1
 362 983 l 1,8,-1
 273 1069 l 1,9,10
 108 1093 108 1093 0 944 c 1,11,-1
 0 794 l 1,12,13
 183 1059 183 1059 299 869 c 1,14,-1
 299 197 l 1,0,-1
775 -370 m 1,15,-1
 925 -370 l 1,16,-1
 925 301 l 1,17,18
 1037 484 1037 484 1224 227 c 1,19,-1
 1224 376 l 1,20,21
 1112 518 1112 518 925 490 c 1,22,-1
 839 416 l 1,23,-1
 749 502 l 1,24,25
 585 525 585 525 477 376 c 1,26,-1
 477 227 l 1,27,28
 660 492 660 492 775 301 c 1,29,-1
 775 -370 l 1,15,-1
EndSplineSet
EndChar

StartChar: macron
Encoding: 175 175 213
Width: 1234
Flags: W
LayerCount: 2
Fore
SplineSet
7 3 m 1,0,-1
 7 191 l 1,1,2
 101 600 101 600 285.5 500 c 128,-1,3
 470 400 470 400 483.5 262 c 128,-1,4
 497 124 497 124 800 200 c 1,5,6
 866 400 866 400 976.5 396.5 c 128,-1,7
 1087 393 1087 393 1200 200 c 1,8,-1
 1200 0 l 1,9,-1
 7 3 l 1,0,-1
EndSplineSet
EndChar

StartChar: degree
Encoding: 176 176 214
Width: 1234
Flags: W
LayerCount: 2
Fore
SplineSet
0 1672 m 1,0,-1
 0 1915 l 1,1,-1
 206 1915 l 1,2,-1
 206 1672 l 1,3,-1
 0 1672 l 1,0,-1
0 1186 m 1,4,-1
 0 1430 l 1,5,-1
 206 1430 l 1,6,-1
 206 1186 l 1,7,-1
 0 1186 l 1,4,-1
0 700 m 1,8,-1
 0 943 l 1,9,-1
 206 943 l 1,10,-1
 206 700 l 1,11,-1
 0 700 l 1,8,-1
0 215 m 1,12,-1
 0 457 l 1,13,-1
 206 457 l 1,14,-1
 206 215 l 1,15,-1
 0 215 l 1,12,-1
0 -272 m 1,16,-1
 0 -28 l 1,17,-1
 206 -28 l 1,18,-1
 206 -272 l 1,19,-1
 0 -272 l 1,16,-1
399 1418 m 1,20,-1
 399 1662 l 1,21,-1
 605 1662 l 1,22,-1
 605 1418 l 1,23,-1
 399 1418 l 1,20,-1
399 933 m 1,24,-1
 399 1176 l 1,25,-1
 605 1176 l 1,26,-1
 605 933 l 1,27,-1
 399 933 l 1,24,-1
399 447 m 1,28,-1
 399 690 l 1,29,-1
 605 690 l 1,30,-1
 605 447 l 1,31,-1
 399 447 l 1,28,-1
399 -38 m 1,32,-1
 399 203 l 1,33,-1
 605 203 l 1,34,-1
 605 -38 l 1,35,-1
 399 -38 l 1,32,-1
399 -492 m 1,36,-1
 399 -282 l 1,37,-1
 605 -282 l 1,38,-1
 605 -492 l 1,39,-1
 399 -492 l 1,36,-1
799 1662 m 1,40,-1
 799 1905 l 1,41,-1
 1005 1905 l 1,42,-1
 1005 1662 l 1,43,-1
 799 1662 l 1,40,-1
799 1177 m 1,44,-1
 799 1420 l 1,45,-1
 1005 1420 l 1,46,-1
 1005 1177 l 1,47,-1
 799 1177 l 1,44,-1
799 690 m 1,48,-1
 799 933 l 1,49,-1
 1005 933 l 1,50,-1
 1005 690 l 1,51,-1
 799 690 l 1,48,-1
799 205 m 1,52,-1
 799 447 l 1,53,-1
 1005 447 l 1,54,-1
 1005 205 l 1,55,-1
 799 205 l 1,52,-1
799 -281 m 1,56,-1
 799 -38 l 1,57,-1
 1005 -38 l 1,58,-1
 1005 -281 l 1,59,-1
 799 -281 l 1,56,-1
399 1876 m 1,60,-1
 399 1915 l 1,61,-1
 605 1915 l 1,62,-1
 605 1876 l 1,63,-1
 399 1876 l 1,60,-1
EndSplineSet
EndChar

StartChar: plusminus
Encoding: 177 177 215
Width: 1234
Flags: W
LayerCount: 2
Fore
SplineSet
0 1427 m 1,0,-1
 0 1662 l 1,1,-1
 204 1662 l 1,2,-1
 204 1427 l 1,3,-1
 0 1427 l 1,0,-1
0 948 m 1,4,-1
 0 1185 l 1,5,-1
 204 1185 l 1,6,-1
 204 948 l 1,7,-1
 0 948 l 1,4,-1
0 470 m 1,8,-1
 0 707 l 1,9,-1
 204 707 l 1,10,-1
 204 470 l 1,11,-1
 0 470 l 1,8,-1
0 -7 m 1,12,-1
 0 229 l 1,13,-1
 204 229 l 1,14,-1
 204 -7 l 1,15,-1
 0 -7 l 1,12,-1
0 -485 m 1,16,-1
 0 -248 l 1,17,-1
 204 -248 l 1,18,-1
 204 -485 l 1,19,-1
 0 -485 l 1,16,-1
206 1664 m 1,20,-1
 206 1901 l 1,21,-1
 410 1901 l 1,22,-1
 410 1664 l 1,23,-1
 206 1664 l 1,20,-1
206 1188 m 1,24,-1
 206 1423 l 1,25,-1
 410 1423 l 1,26,-1
 410 1188 l 1,27,-1
 206 1188 l 1,24,-1
206 709 m 1,28,-1
 206 946 l 1,29,-1
 410 946 l 1,30,-1
 410 709 l 1,31,-1
 206 709 l 1,28,-1
206 231 m 1,32,-1
 206 468 l 1,33,-1
 410 468 l 1,34,-1
 410 231 l 1,35,-1
 206 231 l 1,32,-1
206 -246 m 1,36,-1
 206 -9 l 1,37,-1
 410 -9 l 1,38,-1
 410 -246 l 1,39,-1
 206 -246 l 1,36,-1
412 1427 m 1,40,-1
 412 1662 l 1,41,-1
 616 1662 l 1,42,-1
 616 1427 l 1,43,-1
 412 1427 l 1,40,-1
412 948 m 1,44,-1
 412 1185 l 1,45,-1
 616 1185 l 1,46,-1
 616 948 l 1,47,-1
 412 948 l 1,44,-1
412 470 m 1,48,-1
 412 707 l 1,49,-1
 616 707 l 1,50,-1
 616 470 l 1,51,-1
 412 470 l 1,48,-1
412 -7 m 1,52,-1
 412 229 l 1,53,-1
 616 229 l 1,54,-1
 616 -7 l 1,55,-1
 412 -7 l 1,52,-1
412 -485 m 1,56,-1
 412 -248 l 1,57,-1
 616 -248 l 1,58,-1
 616 -485 l 1,59,-1
 412 -485 l 1,56,-1
618 1664 m 1,60,-1
 618 1901 l 1,61,-1
 822 1901 l 1,62,-1
 822 1664 l 1,63,-1
 618 1664 l 1,60,-1
618 1188 m 1,64,-1
 618 1423 l 1,65,-1
 822 1423 l 1,66,-1
 822 1188 l 1,67,-1
 618 1188 l 1,64,-1
618 709 m 1,68,-1
 618 946 l 1,69,-1
 822 946 l 1,70,-1
 822 709 l 1,71,-1
 618 709 l 1,68,-1
618 231 m 1,72,-1
 618 468 l 1,73,-1
 822 468 l 1,74,-1
 822 231 l 1,75,-1
 618 231 l 1,72,-1
618 -246 m 1,76,-1
 618 -9 l 1,77,-1
 822 -9 l 1,78,-1
 822 -246 l 1,79,-1
 618 -246 l 1,76,-1
824 1427 m 1,80,-1
 824 1662 l 1,81,-1
 1028 1662 l 1,82,-1
 1028 1427 l 1,83,-1
 824 1427 l 1,80,-1
824 948 m 1,84,-1
 824 1185 l 1,85,-1
 1028 1185 l 1,86,-1
 1028 948 l 1,87,-1
 824 948 l 1,84,-1
824 470 m 1,88,-1
 824 707 l 1,89,-1
 1028 707 l 1,90,-1
 1028 470 l 1,91,-1
 824 470 l 1,88,-1
824 -7 m 1,92,-1
 824 229 l 1,93,-1
 1028 229 l 1,94,-1
 1028 -7 l 1,95,-1
 824 -7 l 1,92,-1
824 -485 m 1,96,-1
 824 -248 l 1,97,-1
 1028 -248 l 1,98,-1
 1028 -485 l 1,99,-1
 824 -485 l 1,96,-1
1030 1664 m 1,100,-1
 1030 1901 l 1,101,-1
 1234 1901 l 1,102,-1
 1234 1664 l 1,103,-1
 1030 1664 l 1,100,-1
1030 1188 m 1,104,-1
 1030 1423 l 1,105,-1
 1234 1423 l 1,106,-1
 1234 1188 l 1,107,-1
 1030 1188 l 1,104,-1
1030 709 m 1,108,-1
 1030 946 l 1,109,-1
 1234 946 l 1,110,-1
 1234 709 l 1,111,-1
 1030 709 l 1,108,-1
1030 231 m 1,112,-1
 1030 468 l 1,113,-1
 1234 468 l 1,114,-1
 1234 231 l 1,115,-1
 1030 231 l 1,112,-1
1030 -246 m 1,116,-1
 1030 -9 l 1,117,-1
 1234 -9 l 1,118,-1
 1234 -246 l 1,119,-1
 1030 -246 l 1,116,-1
EndSplineSet
EndChar

StartChar: uni00B2
Encoding: 178 178 216
Width: 1234
Flags: W
LayerCount: 2
Fore
SplineSet
0 -486 m 1,0,-1
 0 1895 l 1,1,-1
 1234 1895 l 1,2,-1
 1234 1656 l 1,3,-1
 1028 1656 l 1,4,-1
 1028 1419 l 1,5,-1
 1234 1419 l 1,6,-1
 1234 1181 l 1,7,-1
 1028 1181 l 1,8,-1
 1028 943 l 1,9,-1
 1234 943 l 1,10,-1
 1234 704 l 1,11,-1
 1028 704 l 1,12,-1
 1028 466 l 1,13,-1
 1234 466 l 1,14,-1
 1234 229 l 1,15,-1
 1028 229 l 1,16,-1
 1028 -9 l 1,17,-1
 1234 -9 l 1,18,-1
 1234 -247 l 1,19,-1
 1028 -247 l 1,20,-1
 1028 -486 l 1,21,-1
 822 -486 l 1,22,-1
 822 -247 l 1,23,-1
 617 -247 l 1,24,-1
 617 -486 l 1,25,-1
 411 -486 l 1,26,-1
 411 -247 l 1,27,-1
 205 -247 l 1,28,-1
 205 -486 l 1,29,-1
 0 -486 l 1,0,-1
200 1411 m 1,30,-1
 406 1411 l 1,31,-1
 406 1648 l 1,32,-1
 200 1648 l 1,33,-1
 200 1411 l 1,30,-1
205 943 m 1,34,-1
 411 943 l 1,35,-1
 411 1181 l 1,36,-1
 205 1181 l 1,37,-1
 205 943 l 1,34,-1
205 466 m 1,38,-1
 411 466 l 1,39,-1
 411 704 l 1,40,-1
 205 704 l 1,41,-1
 205 466 l 1,38,-1
205 -9 m 1,42,-1
 411 -9 l 1,43,-1
 411 228 l 1,44,-1
 205 228 l 1,45,-1
 205 -9 l 1,42,-1
600 1174 m 1,46,-1
 805 1174 l 1,47,-1
 805 1411 l 1,48,-1
 600 1411 l 1,49,-1
 600 1174 l 1,46,-1
600 708 m 1,50,-1
 805 708 l 1,51,-1
 805 946 l 1,52,-1
 600 946 l 1,53,-1
 600 708 l 1,50,-1
600 244 m 1,54,-1
 805 244 l 1,55,-1
 805 481 l 1,56,-1
 600 481 l 1,57,-1
 600 244 l 1,54,-1
600 1661 m 1,58,-1
 805 1661 l 1,59,-1
 805 1898 l 1,60,-1
 600 1898 l 1,61,-1
 600 1661 l 1,58,-1
615 -484 m 1,62,-1
 820 -484 l 1,63,-1
 820 -247 l 1,64,-1
 615 -247 l 1,65,-1
 615 -484 l 1,62,-1
619 -250 m 1,66,-1
 824 -250 l 1,67,-1
 824 -12 l 1,68,-1
 619 -12 l 1,69,-1
 619 -250 l 1,66,-1
EndSplineSet
EndChar

StartChar: uni00B3
Encoding: 179 179 217
Width: 1234
Flags: W
LayerCount: 2
Fore
SplineSet
543 1903 m 1,0,-1
 691 1903 l 1,1,-1
 691 -480 l 1,2,-1
 543 -480 l 1,3,-1
 543 1903 l 1,0,-1
EndSplineSet
EndChar

StartChar: acute
Encoding: 180 180 218
Width: 1234
Flags: W
LayerCount: 2
Fore
SplineSet
0 518 m 1,0,-1
 0 666 l 1,1,-1
 543 666 l 1,2,-1
 543 1898 l 1,3,-1
 691 1898 l 1,4,-1
 691 -488 l 1,5,-1
 543 -488 l 1,6,-1
 543 518 l 1,7,-1
 0 518 l 1,0,-1
EndSplineSet
EndChar

StartChar: mu
Encoding: 181 181 219
Width: 1234
Flags: W
LayerCount: 2
Fore
SplineSet
0 666 m 1,0,-1
 0 814 l 1,1,-1
 543 814 l 1,2,-1
 543 1902 l 1,3,-1
 691 1902 l 1,4,-1
 691 -484 l 1,5,-1
 543 -484 l 1,6,-1
 543 370 l 1,7,-1
 0 370 l 1,8,-1
 0 518 l 1,9,-1
 543 518 l 1,10,-1
 543 666 l 1,11,-1
 0 666 l 1,0,-1
EndSplineSet
EndChar

StartChar: paragraph
Encoding: 182 182 220
Width: 1234
Flags: W
LayerCount: 2
Fore
SplineSet
395 -479 m 1,0,-1
 395 518 l 1,1,-1
 0 518 l 1,2,-1
 0 666 l 1,3,-1
 395 666 l 1,4,-1
 395 1907 l 1,5,-1
 543 1907 l 1,6,-1
 543 -479 l 1,7,-1
 395 -479 l 1,0,-1
691 -479 m 1,8,-1
 691 1907 l 1,9,-1
 839 1907 l 1,10,-1
 839 -479 l 1,11,-1
 691 -479 l 1,8,-1
EndSplineSet
EndChar

StartChar: glyph221
Encoding: 183 183 221
Width: 1234
Flags: W
LayerCount: 2
Fore
SplineSet
395 -484 m 1,0,-1
 395 518 l 1,1,-1
 0 518 l 1,2,-1
 0 666 l 1,3,-1
 839 666 l 1,4,-1
 839 -484 l 1,5,-1
 691 -484 l 1,6,-1
 691 518 l 1,7,-1
 543 518 l 1,8,-1
 543 -484 l 1,9,-1
 395 -484 l 1,0,-1
EndSplineSet
EndChar

StartChar: cedilla
Encoding: 184 184 222
Width: 1234
Flags: W
LayerCount: 2
Fore
SplineSet
0 666 m 1,0,-1
 0 814 l 1,1,-1
 691 814 l 1,2,-1
 691 -484 l 1,3,-1
 543 -484 l 1,4,-1
 543 370 l 1,5,-1
 0 370 l 1,6,-1
 0 518 l 1,7,-1
 543 518 l 1,8,-1
 543 666 l 1,9,-1
 0 666 l 1,0,-1
EndSplineSet
EndChar

StartChar: uni00B9
Encoding: 185 185 223
Width: 1234
Flags: W
LayerCount: 2
Fore
SplineSet
0 370 m 1,0,-1
 0 518 l 1,1,-1
 543 518 l 1,2,-1
 543 -479 l 1,3,-1
 395 -479 l 1,4,-1
 395 370 l 1,5,-1
 0 370 l 1,0,-1
0 666 m 1,6,-1
 0 814 l 1,7,-1
 395 814 l 1,8,-1
 395 1903 l 1,9,-1
 543 1903 l 1,10,-1
 543 666 l 1,11,-1
 0 666 l 1,6,-1
691 1903 m 1,12,-1
 839 1903 l 1,13,-1
 839 -479 l 1,14,-1
 691 -479 l 1,15,-1
 691 1903 l 1,12,-1
EndSplineSet
EndChar

StartChar: ordmasculine
Encoding: 186 186 224
Width: 1234
Flags: W
LayerCount: 2
Fore
SplineSet
395 -488 m 1,0,-1
 395 1906 l 1,1,-1
 543 1906 l 1,2,-1
 543 -488 l 1,3,-1
 395 -488 l 1,0,-1
691 -488 m 1,4,-1
 691 1906 l 1,5,-1
 839 1906 l 1,6,-1
 839 -488 l 1,7,-1
 691 -488 l 1,4,-1
EndSplineSet
EndChar

StartChar: guillemotright
Encoding: 187 187 225
Width: 1234
Flags: W
LayerCount: 2
Fore
SplineSet
-5 370 m 1,0,-1
 -5 518 l 1,1,-1
 543 518 l 1,2,-1
 543 -484 l 1,3,-1
 395 -484 l 1,4,-1
 395 370 l 1,5,-1
 -5 370 l 1,0,-1
-5 666 m 1,6,-1
 -5 814 l 1,7,-1
 839 814 l 1,8,-1
 839 -484 l 1,9,-1
 691 -484 l 1,10,-1
 691 666 l 1,11,-1
 -5 666 l 1,6,-1
EndSplineSet
EndChar

StartChar: onequarter
Encoding: 188 188 226
Width: 1234
Flags: W
LayerCount: 2
Fore
SplineSet
0 666 m 1,0,-1
 0 814 l 1,1,-1
 395 814 l 1,2,-1
 395 1900 l 1,3,-1
 543 1900 l 1,4,-1
 543 666 l 1,5,-1
 0 666 l 1,0,-1
0 370 m 1,6,-1
 0 518 l 1,7,-1
 691 518 l 1,8,-1
 691 1900 l 1,9,-1
 839 1900 l 1,10,-1
 839 370 l 1,11,-1
 0 370 l 1,6,-1
EndSplineSet
EndChar

StartChar: onehalf
Encoding: 189 189 227
Width: 1234
Flags: W
LayerCount: 2
Fore
SplineSet
395 1900 m 1,0,-1
 543 1900 l 1,1,-1
 543 666 l 1,2,-1
 691 666 l 1,3,-1
 691 1900 l 1,4,-1
 839 1900 l 1,5,-1
 839 518 l 1,6,-1
 0 518 l 1,7,-1
 0 666 l 1,8,-1
 395 666 l 1,9,-1
 395 1900 l 1,0,-1
EndSplineSet
EndChar

StartChar: threequarters
Encoding: 190 190 228
Width: 1234
Flags: W
LayerCount: 2
Fore
SplineSet
0 666 m 1,0,-1
 0 814 l 1,1,-1
 543 814 l 1,2,-1
 543 1902 l 1,3,-1
 691 1902 l 1,4,-1
 691 370 l 1,5,-1
 0 370 l 1,6,-1
 0 518 l 1,7,-1
 543 518 l 1,8,-1
 543 666 l 1,9,-1
 0 666 l 1,0,-1
EndSplineSet
EndChar

StartChar: questiondown
Encoding: 191 191 229
Width: 1234
Flags: W
LayerCount: 2
Fore
SplineSet
0 518 m 1,0,-1
 0 666 l 1,1,-1
 691 666 l 1,2,-1
 691 -484 l 1,3,-1
 543 -484 l 1,4,-1
 543 518 l 1,5,-1
 0 518 l 1,0,-1
EndSplineSet
EndChar

StartChar: Agrave
Encoding: 192 192 230
Width: 1234
Flags: W
LayerCount: 2
Fore
SplineSet
543 1902 m 1,0,-1
 691 1902 l 1,1,-1
 691 666 l 1,2,-1
 1234 666 l 1,3,-1
 1234 518 l 1,4,-1
 543 518 l 1,5,-1
 543 1902 l 1,0,-1
EndSplineSet
EndChar

StartChar: Aacute
Encoding: 193 193 231
Width: 1234
Flags: W
LayerCount: 2
Fore
SplineSet
0 518 m 1,0,-1
 0 666 l 1,1,-1
 543 666 l 1,2,-1
 543 1904 l 1,3,-1
 691 1904 l 1,4,-1
 691 666 l 1,5,-1
 1234 666 l 1,6,-1
 1234 518 l 1,7,-1
 0 518 l 1,0,-1
EndSplineSet
EndChar

StartChar: Acircumflex
Encoding: 194 194 232
Width: 1234
Flags: W
LayerCount: 2
Fore
SplineSet
0 518 m 1,0,-1
 0 666 l 1,1,-1
 1234 666 l 1,2,-1
 1234 518 l 1,3,-1
 691 518 l 1,4,-1
 691 -486 l 1,5,-1
 543 -486 l 1,6,-1
 543 518 l 1,7,-1
 0 518 l 1,0,-1
EndSplineSet
EndChar

StartChar: Atilde
Encoding: 195 195 233
Width: 1234
Flags: W
LayerCount: 2
Fore
SplineSet
1077 1902 m 1,0,-1
 1225 1902 l 1,1,-1
 1225 666 l 1,2,-1
 1768 666 l 1,3,-1
 1768 518 l 1,4,-1
 1225 518 l 1,5,-1
 1225 -480 l 1,6,-1
 1077 -480 l 1,7,-1
 1077 1902 l 1,0,-1
EndSplineSet
EndChar

StartChar: Adieresis
Encoding: 196 196 234
Width: 1234
Flags: W
LayerCount: 2
Fore
SplineSet
0 518 m 1,0,-1
 0 666 l 1,1,-1
 1234 666 l 1,2,-1
 1234 518 l 1,3,-1
 0 518 l 1,0,-1
EndSplineSet
EndChar

StartChar: Aring
Encoding: 197 197 235
Width: 1234
Flags: W
LayerCount: 2
Fore
SplineSet
0 518 m 1,0,-1
 0 666 l 1,1,-1
 543 666 l 1,2,-1
 543 1898 l 1,3,-1
 691 1898 l 1,4,-1
 691 666 l 1,5,-1
 1234 666 l 1,6,-1
 1234 518 l 1,7,-1
 691 518 l 1,8,-1
 691 -480 l 1,9,-1
 543 -480 l 1,10,-1
 543 518 l 1,11,-1
 0 518 l 1,0,-1
EndSplineSet
EndChar

StartChar: AE
Encoding: 198 198 236
Width: 1234
Flags: W
LayerCount: 2
Fore
SplineSet
543 1898 m 1,0,-1
 691 1898 l 1,1,-1
 691 814 l 1,2,-1
 1234 814 l 1,3,-1
 1234 666 l 1,4,-1
 691 666 l 1,5,-1
 691 518 l 1,6,-1
 1234 518 l 1,7,-1
 1234 370 l 1,8,-1
 691 370 l 1,9,-1
 691 -480 l 1,10,-1
 543 -480 l 1,11,-1
 543 1898 l 1,0,-1
EndSplineSet
EndChar

StartChar: Ccedilla
Encoding: 199 199 237
Width: 1234
Flags: W
LayerCount: 2
Fore
SplineSet
395 -480 m 1,0,-1
 395 1902 l 1,1,-1
 543 1902 l 1,2,-1
 543 -480 l 1,3,-1
 395 -480 l 1,0,-1
691 -480 m 1,4,-1
 691 1902 l 1,5,-1
 839 1902 l 1,6,-1
 839 666 l 1,7,-1
 1234 666 l 1,8,-1
 1234 518 l 1,9,-1
 839 518 l 1,10,-1
 839 -480 l 1,11,-1
 691 -480 l 1,4,-1
EndSplineSet
EndChar

StartChar: Egrave
Encoding: 200 200 238
Width: 1234
Flags: W
LayerCount: 2
Fore
SplineSet
1236 666 m 1,0,-1
 691 666 l 1,1,-1
 691 1900 l 1,2,-1
 839 1900 l 1,3,-1
 839 814 l 1,4,-1
 1236 814 l 1,5,-1
 1236 666 l 1,0,-1
1236 370 m 1,6,-1
 395 370 l 1,7,-1
 395 1900 l 1,8,-1
 543 1900 l 1,9,-1
 543 518 l 1,10,-1
 1236 518 l 1,11,-1
 1236 370 l 1,6,-1
EndSplineSet
EndChar

StartChar: Eacute
Encoding: 201 201 239
Width: 1234
Flags: W
LayerCount: 2
Fore
SplineSet
1231 816 m 1,0,-1
 1231 668 l 1,1,-1
 543 666 l 1,2,-1
 543 -482 l 1,3,-1
 395 -482 l 1,4,-1
 395 814 l 1,5,-1
 1231 816 l 1,0,-1
1231 372 m 1,6,-1
 839 370 l 1,7,-1
 839 -482 l 1,8,-1
 691 -482 l 1,9,-1
 691 518 l 1,10,-1
 1231 520 l 1,11,-1
 1231 372 l 1,6,-1
EndSplineSet
EndChar

StartChar: Ecircumflex
Encoding: 202 202 240
Width: 1234
Flags: W
LayerCount: 2
Fore
SplineSet
0 666 m 1,0,-1
 0 814 l 1,1,-1
 395 814 l 1,2,-1
 395 1900 l 1,3,-1
 543 1900 l 1,4,-1
 543 666 l 1,5,-1
 0 666 l 1,0,-1
1234 666 m 1,6,-1
 691 666 l 1,7,-1
 691 1900 l 1,8,-1
 839 1900 l 1,9,-1
 839 814 l 1,10,-1
 1234 814 l 1,11,-1
 1234 666 l 1,6,-1
0 370 m 1,12,-1
 0 518 l 1,13,-1
 1234 518 l 1,14,-1
 1234 370 l 1,15,-1
 0 370 l 1,12,-1
EndSplineSet
EndChar

StartChar: Edieresis
Encoding: 203 203 241
Width: 1234
Flags: W
LayerCount: 2
Fore
SplineSet
0 666 m 1,0,-1
 0 814 l 1,1,-1
 1234 814 l 1,2,-1
 1234 666 l 1,3,-1
 0 666 l 1,0,-1
0 370 m 1,4,-1
 0 518 l 1,5,-1
 543 518 l 1,6,-1
 543 -491 l 1,7,-1
 395 -491 l 1,8,-1
 395 370 l 1,9,-1
 0 370 l 1,4,-1
1234 370 m 1,10,-1
 839 370 l 1,11,-1
 839 -491 l 1,12,-1
 691 -491 l 1,13,-1
 691 518 l 1,14,-1
 1234 518 l 1,15,-1
 1234 370 l 1,10,-1
EndSplineSet
EndChar

StartChar: Igrave
Encoding: 204 204 242
Width: 1234
Flags: W
LayerCount: 2
Fore
SplineSet
395 1906 m 1,0,-1
 543 1906 l 1,1,-1
 543 -480 l 1,2,-1
 395 -480 l 1,3,-1
 395 1906 l 1,0,-1
1234 666 m 1,4,-1
 691 666 l 1,5,-1
 691 1906 l 1,6,-1
 839 1906 l 1,7,-1
 839 814 l 1,8,-1
 1234 814 l 1,9,-1
 1234 666 l 1,4,-1
1234 370 m 1,10,-1
 839 370 l 1,11,-1
 839 -480 l 1,12,-1
 691 -480 l 1,13,-1
 691 518 l 1,14,-1
 1234 518 l 1,15,-1
 1234 370 l 1,10,-1
EndSplineSet
EndChar

StartChar: Iacute
Encoding: 205 205 243
Width: 1234
Flags: W
LayerCount: 2
Fore
SplineSet
0 666 m 1,0,-1
 0 814 l 1,1,-1
 1234 814 l 1,2,-1
 1234 666 l 1,3,-1
 0 666 l 1,0,-1
0 370 m 1,4,-1
 0 518 l 1,5,-1
 1234 518 l 1,6,-1
 1234 370 l 1,7,-1
 0 370 l 1,4,-1
EndSplineSet
EndChar

StartChar: Icircumflex
Encoding: 206 206 244
Width: 1234
Flags: W
LayerCount: 2
Fore
SplineSet
0 370 m 1,0,-1
 0 518 l 1,1,-1
 543 518 l 1,2,-1
 543 -480 l 1,3,-1
 395 -480 l 1,4,-1
 395 370 l 1,5,-1
 0 370 l 1,0,-1
0 666 m 1,6,-1
 0 814 l 1,7,-1
 395 814 l 1,8,-1
 395 1906 l 1,9,-1
 543 1906 l 1,10,-1
 543 666 l 1,11,-1
 0 666 l 1,6,-1
1234 666 m 1,12,-1
 691 666 l 1,13,-1
 691 1906 l 1,14,-1
 839 1906 l 1,15,-1
 839 814 l 1,16,-1
 1234 814 l 1,17,-1
 1234 666 l 1,12,-1
1234 370 m 1,18,-1
 839 370 l 1,19,-1
 839 -480 l 1,20,-1
 691 -480 l 1,21,-1
 691 518 l 1,22,-1
 1234 518 l 1,23,-1
 1234 370 l 1,18,-1
EndSplineSet
EndChar

StartChar: Idieresis
Encoding: 207 207 245
Width: 1234
Flags: W
LayerCount: 2
Fore
SplineSet
0 666 m 1,0,-1
 0 814 l 1,1,-1
 543 814 l 1,2,-1
 543 1900 l 1,3,-1
 691 1900 l 1,4,-1
 691 814 l 1,5,-1
 1234 814 l 1,6,-1
 1234 666 l 1,7,-1
 0 666 l 1,0,-1
0 370 m 1,8,-1
 0 518 l 1,9,-1
 1234 518 l 1,10,-1
 1234 370 l 1,11,-1
 0 370 l 1,8,-1
EndSplineSet
EndChar

StartChar: Eth
Encoding: 208 208 246
Width: 1234
Flags: W
LayerCount: 2
Fore
SplineSet
0 518 m 1,0,-1
 0 666 l 1,1,-1
 395 666 l 1,2,-1
 395 1902 l 1,3,-1
 543 1902 l 1,4,-1
 543 666 l 1,5,-1
 691 666 l 1,6,-1
 691 1902 l 1,7,-1
 839 1902 l 1,8,-1
 839 666 l 1,9,-1
 1234 666 l 1,10,-1
 1234 518 l 1,11,-1
 0 518 l 1,0,-1
EndSplineSet
EndChar

StartChar: Ntilde
Encoding: 209 209 247
Width: 1234
Flags: W
LayerCount: 2
Fore
SplineSet
0 666 m 1,0,-1
 0 814 l 1,1,-1
 1234 814 l 1,2,-1
 1234 666 l 1,3,-1
 0 666 l 1,0,-1
0 370 m 1,4,-1
 0 518 l 1,5,-1
 1234 518 l 1,6,-1
 1234 370 l 1,7,-1
 691 370 l 1,8,-1
 691 -484 l 1,9,-1
 543 -484 l 1,10,-1
 543 370 l 1,11,-1
 0 370 l 1,4,-1
EndSplineSet
EndChar

StartChar: Ograve
Encoding: 210 210 248
Width: 1234
Flags: W
LayerCount: 2
Fore
SplineSet
0 518 m 1,0,-1
 0 666 l 1,1,-1
 1234 666 l 1,2,-1
 1234 518 l 1,3,-1
 839 518 l 1,4,-1
 839 -486 l 1,5,-1
 691 -486 l 1,6,-1
 691 518 l 1,7,-1
 543 518 l 1,8,-1
 543 -486 l 1,9,-1
 395 -486 l 1,10,-1
 395 518 l 1,11,-1
 0 518 l 1,0,-1
EndSplineSet
EndChar

StartChar: Oacute
Encoding: 211 211 249
Width: 1234
Flags: W
LayerCount: 2
Fore
SplineSet
395 1902 m 1,0,-1
 543 1902 l 1,1,-1
 543 666 l 1,2,-1
 691 666 l 1,3,-1
 691 1902 l 1,4,-1
 839 1902 l 1,5,-1
 839 666 l 1,6,-1
 1234 666 l 1,7,-1
 1234 518 l 1,8,-1
 395 518 l 1,9,-1
 395 1902 l 1,0,-1
EndSplineSet
EndChar

StartChar: Ocircumflex
Encoding: 212 212 250
Width: 1234
Flags: W
LayerCount: 2
Fore
SplineSet
543 1902 m 1,0,-1
 691 1902 l 1,1,-1
 691 814 l 1,2,-1
 1234 814 l 1,3,-1
 1234 666 l 1,4,-1
 691 666 l 1,5,-1
 691 518 l 1,6,-1
 1234 518 l 1,7,-1
 1234 370 l 1,8,-1
 543 370 l 1,9,-1
 543 1902 l 1,0,-1
EndSplineSet
EndChar

StartChar: Otilde
Encoding: 213 213 251
Width: 1234
Flags: W
LayerCount: 2
Fore
SplineSet
543 -486 m 1,0,-1
 543 814 l 1,1,-1
 1235 814 l 1,2,-1
 1235 666 l 1,3,-1
 691 666 l 1,4,-1
 691 518 l 1,5,-1
 1235 518 l 1,6,-1
 1235 370 l 1,7,-1
 691 370 l 1,8,-1
 691 -486 l 1,9,-1
 543 -486 l 1,0,-1
EndSplineSet
EndChar

StartChar: Odieresis
Encoding: 214 214 252
Width: 1234
Flags: W
LayerCount: 2
Fore
SplineSet
395 -484 m 1,0,-1
 395 666 l 1,1,-1
 1234 666 l 1,2,-1
 1234 518 l 1,3,-1
 839 518 l 1,4,-1
 839 -484 l 1,5,-1
 691 -484 l 1,6,-1
 691 518 l 1,7,-1
 543 518 l 1,8,-1
 543 -484 l 1,9,-1
 395 -484 l 1,0,-1
EndSplineSet
EndChar

StartChar: multiply
Encoding: 215 215 253
Width: 1234
Flags: W
LayerCount: 2
Fore
SplineSet
395 -480 m 1,0,-1
 395 1902 l 1,1,-1
 543 1902 l 1,2,-1
 543 -480 l 1,3,-1
 395 -480 l 1,0,-1
691 -480 m 1,4,-1
 691 1902 l 1,5,-1
 839 1902 l 1,6,-1
 839 666 l 1,7,-1
 1234 666 l 1,8,-1
 1234 518 l 1,9,-1
 839 518 l 1,10,-1
 839 -480 l 1,11,-1
 691 -480 l 1,4,-1
-8 510 m 1,12,-1
 -8 659 l 1,13,-1
 141 659 l 1,14,-1
 536 659 l 1,15,-1
 536 511 l 1,16,-1
 141 511 l 1,17,-1
 -8 510 l 1,12,-1
EndSplineSet
EndChar

StartChar: Oslash
Encoding: 216 216 254
Width: 1234
Flags: W
LayerCount: 2
Fore
SplineSet
0 666 m 1,0,-1
 0 814 l 1,1,-1
 1234 814 l 1,2,-1
 1234 666 l 1,3,-1
 0 666 l 1,0,-1
0 370 m 1,4,-1
 0 518 l 1,5,-1
 1234 518 l 1,6,-1
 1234 370 l 1,7,-1
 691 370 l 1,8,-1
 691 -488 l 1,9,-1
 543 -488 l 1,10,-1
 543 370 l 1,11,-1
 0 370 l 1,4,-1
541 1900 m 1,12,-1
 689 1900 l 1,13,-1
 689 1471 l 1,14,-1
 689 669 l 1,15,-1
 541 669 l 1,16,-1
 541 1471 l 1,17,-1
 541 1900 l 1,12,-1
EndSplineSet
EndChar

StartChar: Ugrave
Encoding: 217 217 255
Width: 1234
Flags: W
LayerCount: 2
Fore
SplineSet
0 518 m 1,0,-1
 0 666 l 1,1,-1
 543 666 l 1,2,-1
 543 1902 l 1,3,-1
 691 1902 l 1,4,-1
 691 518 l 1,5,-1
 0 518 l 1,0,-1
EndSplineSet
EndChar

StartChar: Uacute
Encoding: 218 218 256
Width: 1234
Flags: W
LayerCount: 2
Fore
SplineSet
543 666 m 1,0,-1
 1234 666 l 1,1,-1
 1234 518 l 1,2,-1
 691 518 l 1,3,-1
 691 -484 l 1,4,-1
 543 -484 l 1,5,-1
 543 666 l 1,0,-1
EndSplineSet
EndChar

StartChar: Ucircumflex
Encoding: 219 219 257
AltUni2: 002588.ffffffff.0 002013.ffffffff.0
Width: 1233
Flags: W
LayerCount: 2
Fore
SplineSet
0 1901 m 1,0,-1
 1233 1901 l 1,1,-1
 1233 -483 l 1,2,-1
 0 -483 l 1,3,-1
 0 1901 l 1,0,-1
EndSplineSet
EndChar

StartChar: Udieresis
Encoding: 220 220 258
Width: 1234
Flags: W
LayerCount: 2
Fore
SplineSet
0 592 m 1,0,-1
 1234 592 l 1,1,-1
 1234 -482 l 1,2,-1
 0 -482 l 1,3,-1
 0 592 l 1,0,-1
EndSplineSet
EndChar

StartChar: Yacute
Encoding: 221 221 259
Width: 1234
Flags: W
LayerCount: 2
Fore
SplineSet
0 1901 m 1,0,-1
 617 1901 l 1,1,-1
 617 -483 l 1,2,-1
 0 -483 l 1,3,-1
 0 1901 l 1,0,-1
EndSplineSet
EndChar

StartChar: Thorn
Encoding: 222 222 260
Width: 1234
Flags: W
LayerCount: 2
Fore
SplineSet
617 1901 m 1,0,-1
 1234 1901 l 1,1,-1
 1234 -432 l 1,2,-1
 617 -432 l 1,3,-1
 617 1901 l 1,0,-1
EndSplineSet
EndChar

StartChar: germandbls
Encoding: 223 223 261
Width: 1234
Flags: W
LayerCount: 2
Fore
SplineSet
0 592 m 1,0,-1
 0 1900 l 1,1,-1
 1234 1900 l 1,2,-1
 1234 592 l 1,3,-1
 0 592 l 1,0,-1
EndSplineSet
EndChar

StartChar: agrave
Encoding: 224 224 262
Width: 1228
Flags: W
LayerCount: 2
Fore
SplineSet
0 1901 m 1,0,-1
 1234 1901 l 1,1,-1
 1234 -485 l 1,2,-1
 0 -485 l 1,3,-1
 0 1901 l 1,0,-1
296 -366 m 1,4,-1
 0 -366 l 1,5,-1
 0 -482 l 1,6,-1
 296 -482 l 1,7,-1
 296 -366 l 1,4,-1
698 -366 m 1,8,-1
 400 -366 l 1,9,-1
 400 -482 l 1,10,-1
 698 -482 l 1,11,-1
 698 -366 l 1,8,-1
1100 -366 m 1,12,-1
 802 -366 l 1,13,-1
 802 -482 l 1,14,-1
 1100 -482 l 1,15,-1
 1100 -366 l 1,12,-1
498 -133 m 1,16,-1
 200 -133 l 1,17,-1
 200 -249 l 1,18,-1
 498 -249 l 1,19,-1
 498 -133 l 1,16,-1
898 -133 m 1,20,-1
 600 -133 l 1,21,-1
 600 -249 l 1,22,-1
 898 -249 l 1,23,-1
 898 -133 l 1,20,-1
1234 -133 m 1,24,-1
 1002 -133 l 1,25,-1
 1002 -249 l 1,26,-1
 1234 -249 l 1,27,-1
 1234 -133 l 1,24,-1
98 -133 m 1,28,-1
 0 -133 l 1,29,-1
 0 -249 l 1,30,-1
 98 -249 l 1,31,-1
 98 -133 l 1,28,-1
296 100 m 1,32,-1
 0 100 l 1,33,-1
 0 -16 l 1,34,-1
 296 -16 l 1,35,-1
 296 100 l 1,32,-1
698 100 m 1,36,-1
 400 100 l 1,37,-1
 400 -16 l 1,38,-1
 698 -16 l 1,39,-1
 698 100 l 1,36,-1
1100 100 m 1,40,-1
 802 100 l 1,41,-1
 802 -16 l 1,42,-1
 1100 -16 l 1,43,-1
 1100 100 l 1,40,-1
498 333 m 1,44,-1
 200 333 l 1,45,-1
 200 216 l 1,46,-1
 498 216 l 1,47,-1
 498 333 l 1,44,-1
898 333 m 1,48,-1
 600 333 l 1,49,-1
 600 216 l 1,50,-1
 898 216 l 1,51,-1
 898 333 l 1,48,-1
1234 333 m 1,52,-1
 1002 333 l 1,53,-1
 1002 216 l 1,54,-1
 1234 216 l 1,55,-1
 1234 333 l 1,52,-1
98 333 m 1,56,-1
 0 333 l 1,57,-1
 0 216 l 1,58,-1
 98 216 l 1,59,-1
 98 333 l 1,56,-1
296 566 m 1,60,-1
 0 566 l 1,61,-1
 0 449 l 1,62,-1
 296 449 l 1,63,-1
 296 566 l 1,60,-1
698 566 m 1,64,-1
 400 566 l 1,65,-1
 400 449 l 1,66,-1
 698 449 l 1,67,-1
 698 566 l 1,64,-1
1100 566 m 1,68,-1
 802 566 l 1,69,-1
 802 449 l 1,70,-1
 1100 449 l 1,71,-1
 1100 566 l 1,68,-1
498 799 m 1,72,-1
 200 799 l 1,73,-1
 200 682 l 1,74,-1
 498 682 l 1,75,-1
 498 799 l 1,72,-1
898 799 m 1,76,-1
 600 799 l 1,77,-1
 600 682 l 1,78,-1
 898 682 l 1,79,-1
 898 799 l 1,76,-1
1234 799 m 1,80,-1
 1002 799 l 1,81,-1
 1002 682 l 1,82,-1
 1234 682 l 1,83,-1
 1234 799 l 1,80,-1
98 799 m 1,84,-1
 0 799 l 1,85,-1
 0 682 l 1,86,-1
 98 682 l 1,87,-1
 98 799 l 1,84,-1
296 1032 m 1,88,-1
 0 1032 l 1,89,-1
 0 915 l 1,90,-1
 296 915 l 1,91,-1
 296 1032 l 1,88,-1
698 1032 m 1,92,-1
 400 1032 l 1,93,-1
 400 915 l 1,94,-1
 698 915 l 1,95,-1
 698 1032 l 1,92,-1
1100 1032 m 1,96,-1
 802 1032 l 1,97,-1
 802 915 l 1,98,-1
 1100 915 l 1,99,-1
 1100 1032 l 1,96,-1
498 1265 m 1,100,-1
 200 1265 l 1,101,-1
 200 1148 l 1,102,-1
 498 1148 l 1,103,-1
 498 1265 l 1,100,-1
898 1265 m 1,104,-1
 600 1265 l 1,105,-1
 600 1148 l 1,106,-1
 898 1148 l 1,107,-1
 898 1265 l 1,104,-1
1234 1265 m 1,108,-1
 1002 1265 l 1,109,-1
 1002 1148 l 1,110,-1
 1234 1148 l 1,111,-1
 1234 1265 l 1,108,-1
98 1265 m 1,112,-1
 0 1265 l 1,113,-1
 0 1148 l 1,114,-1
 98 1148 l 1,115,-1
 98 1265 l 1,112,-1
296 1498 m 1,116,-1
 0 1498 l 1,117,-1
 0 1381 l 1,118,-1
 296 1381 l 1,119,-1
 296 1498 l 1,116,-1
698 1498 m 1,120,-1
 400 1498 l 1,121,-1
 400 1381 l 1,122,-1
 698 1381 l 1,123,-1
 698 1498 l 1,120,-1
1100 1498 m 1,124,-1
 802 1498 l 1,125,-1
 802 1381 l 1,126,-1
 1100 1381 l 1,127,-1
 1100 1498 l 1,124,-1
498 1731 m 1,128,-1
 200 1731 l 1,129,-1
 200 1614 l 1,130,-1
 498 1614 l 1,131,-1
 498 1731 l 1,128,-1
898 1731 m 1,132,-1
 600 1731 l 1,133,-1
 600 1614 l 1,134,-1
 898 1614 l 1,135,-1
 898 1731 l 1,132,-1
1234 1731 m 1,136,-1
 1002 1731 l 1,137,-1
 1002 1614 l 1,138,-1
 1234 1614 l 1,139,-1
 1234 1731 l 1,136,-1
98 1731 m 1,140,-1
 0 1731 l 1,141,-1
 0 1614 l 1,142,-1
 98 1614 l 1,143,-1
 98 1731 l 1,140,-1
296 1901 m 1,144,-1
 0 1901 l 1,145,-1
 0 1847 l 1,146,-1
 296 1847 l 1,147,-1
 296 1901 l 1,144,-1
698 1901 m 1,148,-1
 400 1901 l 1,149,-1
 400 1847 l 1,150,-1
 698 1847 l 1,151,-1
 698 1901 l 1,148,-1
1100 1901 m 1,152,-1
 802 1901 l 1,153,-1
 802 1847 l 1,154,-1
 1100 1847 l 1,155,-1
 1100 1901 l 1,152,-1
EndSplineSet
EndChar

StartChar: aacute
Encoding: 225 225 263
Width: 1234
Flags: W
LayerCount: 2
Fore
SplineSet
0 916 m 1,0,-1
 0 1117 l 1,1,-1
 206 1117 l 1,2,-1
 206 916 l 1,3,-1
 0 916 l 1,0,-1
194 1309 m 1,4,-1
 194 1510 l 1,5,-1
 400 1510 l 1,6,-1
 400 1309 l 1,7,-1
 194 1309 l 1,4,-1
394 -67 m 1,8,-1
 394 134 l 1,9,-1
 600 134 l 1,10,-1
 600 -67 l 1,11,-1
 394 -67 l 1,8,-1
600 321 m 1,12,-1
 600 523 l 1,13,-1
 806 523 l 1,14,-1
 806 321 l 1,15,-1
 600 321 l 1,12,-1
794 714 m 1,16,-1
 794 916 l 1,17,-1
 1000 916 l 1,18,-1
 1000 714 l 1,19,-1
 794 714 l 1,16,-1
1000 1112 m 1,20,-1
 1000 1313 l 1,21,-1
 1206 1313 l 1,22,-1
 1206 1112 l 1,23,-1
 1000 1112 l 1,20,-1
994 125 m 1,24,-1
 994 326 l 1,25,-1
 1200 326 l 1,26,-1
 1200 125 l 1,27,-1
 994 125 l 1,24,-1
1102 518 m 1,28,-1
 1102 719 l 1,29,-1
 1206 719 l 1,30,-1
 1206 518 l 1,31,-1
 1102 518 l 1,28,-1
0 518 m 1,32,-1
 0 719 l 1,33,-1
 104 719 l 1,34,-1
 104 518 l 1,35,-1
 0 518 l 1,32,-1
0 1697 m 1,36,-1
 0 1898 l 1,37,-1
 206 1898 l 1,38,-1
 206 1697 l 1,39,-1
 0 1697 l 1,36,-1
0 130 m 1,40,-1
 0 331 l 1,41,-1
 206 331 l 1,42,-1
 206 130 l 1,43,-1
 0 130 l 1,40,-1
594 1112 m 1,44,-1
 594 1313 l 1,45,-1
 800 1313 l 1,46,-1
 800 1112 l 1,47,-1
 594 1112 l 1,44,-1
794 1505 m 1,48,-1
 794 1706 l 1,49,-1
 1000 1706 l 1,50,-1
 1000 1505 l 1,51,-1
 794 1505 l 1,48,-1
400 719 m 1,52,-1
 400 920 l 1,53,-1
 606 920 l 1,54,-1
 606 719 l 1,55,-1
 400 719 l 1,52,-1
400 1702 m 1,56,-1
 400 1903 l 1,57,-1
 606 1903 l 1,58,-1
 606 1702 l 1,59,-1
 400 1702 l 1,56,-1
EndSplineSet
EndChar

StartChar: acircumflex
Encoding: 226 226 264
Width: 1234
Flags: W
LayerCount: 2
Fore
SplineSet
0 827 m 1,0,-1
 0 934 l 1,1,-1
 105 934 l 1,2,-1
 105 827 l 1,3,-1
 0 827 l 1,0,-1
0 532 m 1,4,-1
 0 719 l 1,5,-1
 105 719 l 1,6,-1
 105 532 l 1,7,-1
 0 532 l 1,4,-1
0 183 m 1,8,-1
 0 379 l 1,9,-1
 105 379 l 1,10,-1
 105 183 l 1,11,-1
 0 183 l 1,8,-1
0 -68 m 1,12,-1
 0 39 l 1,13,-1
 105 39 l 1,14,-1
 105 -68 l 1,15,-1
 0 -68 l 1,12,-1
200 589 m 1,16,-1
 200 828 l 1,17,-1
 304 828 l 1,18,-1
 304 589 l 1,19,-1
 200 589 l 1,16,-1
203 273 m 1,20,-1
 203 496 l 1,21,-1
 307 496 l 1,22,-1
 307 273 l 1,23,-1
 203 273 l 1,20,-1
203 -56 m 1,24,-1
 203 165 l 1,25,-1
 307 165 l 1,26,-1
 307 -56 l 1,27,-1
 203 -56 l 1,24,-1
400 827 m 1,28,-1
 400 934 l 1,29,-1
 505 934 l 1,30,-1
 505 827 l 1,31,-1
 400 827 l 1,28,-1
400 532 m 1,32,-1
 400 720 l 1,33,-1
 505 720 l 1,34,-1
 505 532 l 1,35,-1
 400 532 l 1,32,-1
400 183 m 1,36,-1
 400 380 l 1,37,-1
 505 380 l 1,38,-1
 505 183 l 1,39,-1
 400 183 l 1,36,-1
400 -32 m 1,40,-1
 400 76 l 1,41,-1
 505 76 l 1,42,-1
 505 -32 l 1,43,-1
 400 -32 l 1,40,-1
0 1789 m 1,44,-1
 0 1896 l 1,45,-1
 105 1896 l 1,46,-1
 105 1789 l 1,47,-1
 0 1789 l 1,44,-1
0 1494 m 1,48,-1
 0 1681 l 1,49,-1
 105 1681 l 1,50,-1
 105 1494 l 1,51,-1
 0 1494 l 1,48,-1
0 1144 m 1,52,-1
 0 1341 l 1,53,-1
 105 1341 l 1,54,-1
 105 1144 l 1,55,-1
 0 1144 l 1,52,-1
0 929 m 1,56,-1
 0 1037 l 1,57,-1
 105 1037 l 1,58,-1
 105 929 l 1,59,-1
 0 929 l 1,56,-1
200 1551 m 1,60,-1
 200 1790 l 1,61,-1
 304 1790 l 1,62,-1
 304 1551 l 1,63,-1
 200 1551 l 1,60,-1
203 1234 m 1,64,-1
 203 1458 l 1,65,-1
 307 1458 l 1,66,-1
 307 1234 l 1,67,-1
 203 1234 l 1,64,-1
203 905 m 1,68,-1
 203 1127 l 1,69,-1
 307 1127 l 1,70,-1
 307 905 l 1,71,-1
 203 905 l 1,68,-1
400 1789 m 1,72,-1
 400 1896 l 1,73,-1
 505 1896 l 1,74,-1
 505 1789 l 1,75,-1
 400 1789 l 1,72,-1
400 1494 m 1,76,-1
 400 1682 l 1,77,-1
 505 1682 l 1,78,-1
 505 1494 l 1,79,-1
 400 1494 l 1,76,-1
400 1144 m 1,80,-1
 400 1342 l 1,81,-1
 505 1342 l 1,82,-1
 505 1144 l 1,83,-1
 400 1144 l 1,80,-1
400 929 m 1,84,-1
 400 1037 l 1,85,-1
 505 1037 l 1,86,-1
 505 929 l 1,87,-1
 400 929 l 1,84,-1
0 1789 m 1,88,-1
 0 1896 l 1,89,-1
 105 1896 l 1,90,-1
 105 1789 l 1,91,-1
 0 1789 l 1,88,-1
0 1494 m 1,92,-1
 0 1681 l 1,93,-1
 105 1681 l 1,94,-1
 105 1494 l 1,95,-1
 0 1494 l 1,92,-1
0 1144 m 1,96,-1
 0 1341 l 1,97,-1
 105 1341 l 1,98,-1
 105 1144 l 1,99,-1
 0 1144 l 1,96,-1
0 929 m 1,100,-1
 0 1037 l 1,101,-1
 105 1037 l 1,102,-1
 105 929 l 1,103,-1
 0 929 l 1,100,-1
200 1551 m 1,104,-1
 200 1790 l 1,105,-1
 304 1790 l 1,106,-1
 304 1551 l 1,107,-1
 200 1551 l 1,104,-1
203 1234 m 1,108,-1
 203 1458 l 1,109,-1
 307 1458 l 1,110,-1
 307 1234 l 1,111,-1
 203 1234 l 1,108,-1
203 905 m 1,112,-1
 203 1127 l 1,113,-1
 307 1127 l 1,114,-1
 307 905 l 1,115,-1
 203 905 l 1,112,-1
400 1789 m 1,116,-1
 400 1896 l 1,117,-1
 505 1896 l 1,118,-1
 505 1789 l 1,119,-1
 400 1789 l 1,116,-1
400 1494 m 1,120,-1
 400 1682 l 1,121,-1
 505 1682 l 1,122,-1
 505 1494 l 1,123,-1
 400 1494 l 1,120,-1
400 1144 m 1,124,-1
 400 1342 l 1,125,-1
 505 1342 l 1,126,-1
 505 1144 l 1,127,-1
 400 1144 l 1,124,-1
400 929 m 1,128,-1
 400 1037 l 1,129,-1
 505 1037 l 1,130,-1
 505 929 l 1,131,-1
 400 929 l 1,128,-1
600 592 m 1,132,-1
 600 831 l 1,133,-1
 704 831 l 1,134,-1
 704 592 l 1,135,-1
 600 592 l 1,132,-1
603 276 m 1,136,-1
 603 499 l 1,137,-1
 707 499 l 1,138,-1
 707 276 l 1,139,-1
 603 276 l 1,136,-1
603 -53 m 1,140,-1
 603 168 l 1,141,-1
 707 168 l 1,142,-1
 707 -53 l 1,143,-1
 603 -53 l 1,140,-1
800 791 m 1,144,-1
 800 898 l 1,145,-1
 905 898 l 1,146,-1
 905 791 l 1,147,-1
 800 791 l 1,144,-1
800 496 m 1,148,-1
 800 684 l 1,149,-1
 905 684 l 1,150,-1
 905 496 l 1,151,-1
 800 496 l 1,148,-1
800 146 m 1,152,-1
 800 344 l 1,153,-1
 905 344 l 1,154,-1
 905 146 l 1,155,-1
 800 146 l 1,152,-1
800 -68 m 1,156,-1
 800 40 l 1,157,-1
 905 40 l 1,158,-1
 905 -68 l 1,159,-1
 800 -68 l 1,156,-1
600 1554 m 1,160,-1
 600 1793 l 1,161,-1
 704 1793 l 1,162,-1
 704 1554 l 1,163,-1
 600 1554 l 1,160,-1
603 1237 m 1,164,-1
 603 1461 l 1,165,-1
 707 1461 l 1,166,-1
 707 1237 l 1,167,-1
 603 1237 l 1,164,-1
603 909 m 1,168,-1
 603 1130 l 1,169,-1
 707 1130 l 1,170,-1
 707 909 l 1,171,-1
 603 909 l 1,168,-1
800 1753 m 1,172,-1
 800 1860 l 1,173,-1
 905 1860 l 1,174,-1
 905 1753 l 1,175,-1
 800 1753 l 1,172,-1
800 1458 m 1,176,-1
 800 1646 l 1,177,-1
 905 1646 l 1,178,-1
 905 1458 l 1,179,-1
 800 1458 l 1,176,-1
800 1108 m 1,180,-1
 800 1306 l 1,181,-1
 905 1306 l 1,182,-1
 905 1108 l 1,183,-1
 800 1108 l 1,180,-1
800 893 m 1,184,-1
 800 1001 l 1,185,-1
 905 1001 l 1,186,-1
 905 893 l 1,187,-1
 800 893 l 1,184,-1
600 1554 m 1,188,-1
 600 1793 l 1,189,-1
 704 1793 l 1,190,-1
 704 1554 l 1,191,-1
 600 1554 l 1,188,-1
603 1237 m 1,192,-1
 603 1461 l 1,193,-1
 707 1461 l 1,194,-1
 707 1237 l 1,195,-1
 603 1237 l 1,192,-1
603 909 m 1,196,-1
 603 1130 l 1,197,-1
 707 1130 l 1,198,-1
 707 909 l 1,199,-1
 603 909 l 1,196,-1
800 1753 m 1,200,-1
 800 1860 l 1,201,-1
 905 1860 l 1,202,-1
 905 1753 l 1,203,-1
 800 1753 l 1,200,-1
800 1458 m 1,204,-1
 800 1646 l 1,205,-1
 905 1646 l 1,206,-1
 905 1458 l 1,207,-1
 800 1458 l 1,204,-1
800 1108 m 1,208,-1
 800 1306 l 1,209,-1
 905 1306 l 1,210,-1
 905 1108 l 1,211,-1
 800 1108 l 1,208,-1
800 893 m 1,212,-1
 800 1001 l 1,213,-1
 905 1001 l 1,214,-1
 905 893 l 1,215,-1
 800 893 l 1,212,-1
1000 592 m 1,216,-1
 1000 831 l 1,217,-1
 1104 831 l 1,218,-1
 1104 592 l 1,219,-1
 1000 592 l 1,216,-1
1003 276 m 1,220,-1
 1003 499 l 1,221,-1
 1107 499 l 1,222,-1
 1107 276 l 1,223,-1
 1003 276 l 1,220,-1
1003 -53 m 1,224,-1
 1003 168 l 1,225,-1
 1107 168 l 1,226,-1
 1107 -53 l 1,227,-1
 1003 -53 l 1,224,-1
1200 827 m 1,228,-1
 1200 934 l 1,229,-1
 1245 934 l 1,230,-1
 1245 827 l 1,231,-1
 1200 827 l 1,228,-1
1200 532 m 1,232,-1
 1200 720 l 1,233,-1
 1245 720 l 1,234,-1
 1245 532 l 1,235,-1
 1200 532 l 1,232,-1
1200 183 m 1,236,-1
 1200 380 l 1,237,-1
 1245 380 l 1,238,-1
 1245 183 l 1,239,-1
 1200 183 l 1,236,-1
1200 -32 m 1,240,-1
 1200 76 l 1,241,-1
 1245 76 l 1,242,-1
 1245 -32 l 1,243,-1
 1200 -32 l 1,240,-1
1000 1554 m 1,244,-1
 1000 1793 l 1,245,-1
 1104 1793 l 1,246,-1
 1104 1554 l 1,247,-1
 1000 1554 l 1,244,-1
1003 1237 m 1,248,-1
 1003 1461 l 1,249,-1
 1107 1461 l 1,250,-1
 1107 1237 l 1,251,-1
 1003 1237 l 1,248,-1
1003 909 m 1,252,-1
 1003 1130 l 1,253,-1
 1107 1130 l 1,254,-1
 1107 909 l 1,255,-1
 1003 909 l 1,252,-1
1200 1789 m 1,256,-1
 1200 1896 l 1,257,-1
 1245 1896 l 1,258,-1
 1245 1789 l 1,259,-1
 1200 1789 l 1,256,-1
1200 1494 m 1,260,-1
 1200 1682 l 1,261,-1
 1245 1682 l 1,262,-1
 1245 1494 l 1,263,-1
 1200 1494 l 1,260,-1
1200 1144 m 1,264,-1
 1200 1342 l 1,265,-1
 1245 1342 l 1,266,-1
 1245 1144 l 1,267,-1
 1200 1144 l 1,264,-1
1200 929 m 1,268,-1
 1200 1037 l 1,269,-1
 1245 1037 l 1,270,-1
 1245 929 l 1,271,-1
 1200 929 l 1,268,-1
1000 1554 m 1,272,-1
 1000 1793 l 1,273,-1
 1104 1793 l 1,274,-1
 1104 1554 l 1,275,-1
 1000 1554 l 1,272,-1
1003 1237 m 1,276,-1
 1003 1461 l 1,277,-1
 1107 1461 l 1,278,-1
 1107 1237 l 1,279,-1
 1003 1237 l 1,276,-1
1003 909 m 1,280,-1
 1003 1130 l 1,281,-1
 1107 1130 l 1,282,-1
 1107 909 l 1,283,-1
 1003 909 l 1,280,-1
1200 1789 m 1,284,-1
 1200 1896 l 1,285,-1
 1245 1896 l 1,286,-1
 1245 1789 l 1,287,-1
 1200 1789 l 1,284,-1
1200 1494 m 1,288,-1
 1200 1682 l 1,289,-1
 1245 1682 l 1,290,-1
 1245 1494 l 1,291,-1
 1200 1494 l 1,288,-1
1200 1144 m 1,292,-1
 1200 1342 l 1,293,-1
 1245 1342 l 1,294,-1
 1245 1144 l 1,295,-1
 1200 1144 l 1,292,-1
1200 929 m 1,296,-1
 1200 1037 l 1,297,-1
 1245 1037 l 1,298,-1
 1245 929 l 1,299,-1
 1200 929 l 1,296,-1
EndSplineSet
EndChar

StartChar: atilde
Encoding: 227 227 265
Width: 1234
Flags: W
LayerCount: 2
Fore
SplineSet
-100 -150 m 1,0,-1
 345 0 l 1,1,2
 472 161 472 161 538 163 c 128,-1,3
 604 165 604 165 523 5 c 1,4,5
 759 -46 759 -46 732.5 -98 c 128,-1,6
 706 -150 706 -150 463 -134 c 1,7,-1
 0 -300 l 1,8,9
 -162 -432 -162 -432 -238 -393.5 c 128,-1,10
 -314 -355 -314 -355 -210 -276 c 1,11,12
 -418 -302 -418 -302 -339.5 -211 c 128,-1,13
 -261 -120 -261 -120 -100 -150 c 1,0,-1
-32 100 m 1,14,-1
 351 -200 l 1,15,16
 548 -207 548 -207 586 -261 c 128,-1,17
 624 -315 624 -315 445 -336 c 1,18,19
 532 -561 532 -561 474 -567.5 c 128,-1,20
 416 -574 416 -574 329 -349 c 1,21,-1
 -100 -55 l 1,22,23
 -297 -5 -297 -5 -306.5 79.5 c 128,-1,24
 -316 164 -316 164 -194 120 c 1,25,26
 -329 280 -329 280 -210 264.5 c 128,-1,27
 -91 249 -91 249 -32 100 c 1,14,-1
94 1200 m 0,28,29
 -243 1200 -243 1200 -243 863 c 256,30,31
 -243 526 -243 526 -74 526 c 1,32,-1
 -74 188 l 1,33,-1
 431 188 l 1,34,-1
 431 526 l 1,35,36
 600 526 600 526 600 863 c 256,37,38
 600 1200 600 1200 94 1200 c 0,28,29
468 1000 m 1,40,-1
 500 800 l 1,41,42
 500 662 500 662 366 572 c 1,43,-1
 364 300 l 1,44,-1
 0 300 l 1,45,-1
 0 600 l 1,46,47
 -100 600 -100 600 -141 700 c 1,48,-1
 -150 867 l 2,49,50
 -162 1038 -162 1038 0 1100 c 1,51,-1
 200 1100 l 2,52,39
 400 1100 400 1100 468 1000 c 1,40,-1
0 1000 m 1,53,-1
 0 746 l 1,54,-1
 126 746 l 1,55,-1
 126 1000 l 1,56,-1
 0 1000 l 1,53,-1
273 1000 m 1,57,-1
 273 746 l 1,58,-1
 400 746 l 1,59,-1
 400 1000 l 1,60,-1
 273 1000 l 1,57,-1
91 570 m 1,61,-1
 91 443 l 1,62,-1
 290 443 l 1,63,-1
 290 570 l 1,64,-1
 91 570 l 1,61,-1
EndSplineSet
EndChar

StartChar: adieresis
Encoding: 228 228 266
Width: 1234
Flags: W
LayerCount: 2
Fore
SplineSet
179 375 m 1,0,-1
 179 1556 l 1,1,-1
 1132 1556 l 1,2,-1
 1132 375 l 1,3,-1
 179 375 l 1,0,-1
971 1410 m 1,4,-1
 971 219 l 1,5,-1
 1278 219 l 1,6,-1
 1278 1410 l 1,7,-1
 971 1410 l 1,4,-1
273 517 m 1,8,-1
 273 219 l 1,9,-1
 971 219 l 1,10,-1
 971 517 l 1,11,-1
 273 517 l 1,8,-1
EndSplineSet
EndChar

StartChar: aring
Encoding: 229 229 267
Width: 1236
Flags: W
LayerCount: 2
Fore
SplineSet
1200 471 m 1,0,-1
 790 471 l 1,1,-1
 790 600 l 1,2,-1
 1200 600 l 1,3,-1
 1200 471 l 1,0,-1
918 362 m 1,4,-1
 794 362 l 1,5,-1
 794 471 l 1,6,-1
 918 471 l 1,7,-1
 918 362 l 1,4,-1
649 976 m 1,8,-1
 646 1386 l 1,9,-1
 775 1387 l 1,10,-1
 778 977 l 1,11,-1
 649 976 l 1,8,-1
538 1257 m 1,12,-1
 537 1381 l 1,13,-1
 646 1382 l 1,14,-1
 647 1258 l 1,15,-1
 538 1257 l 1,12,-1
927 -400 m 1,16,-1
 909 9 l 1,17,-1
 1037 15 l 1,18,-1
 1056 -394 l 1,19,-1
 927 -400 l 1,16,-1
805 -123 m 1,20,-1
 800 1 l 1,21,-1
 909 5 l 1,22,-1
 914 -118 l 1,23,-1
 805 -123 l 1,20,-1
-98 -132 m 1,24,-1
 -100 -8 l 1,25,-1
 8 -7 l 1,26,-1
 10 -131 l 1,27,-1
 -98 -132 l 1,24,-1
15 -413 m 1,28,-1
 8 -3 l 1,29,-1
 137 0 l 1,30,-1
 144 -410 l 1,31,-1
 15 -413 l 1,28,-1
1200 471 m 1,32,-1
 790 471 l 1,33,-1
 790 600 l 1,34,-1
 1200 600 l 1,35,-1
 1200 471 l 1,32,-1
918 362 m 1,36,-1
 794 362 l 1,37,-1
 794 471 l 1,38,-1
 918 471 l 1,39,-1
 918 362 l 1,36,-1
300 1309 m 1,40,-1
 -110 1309 l 1,41,-1
 -110 1438 l 1,42,-1
 300 1438 l 1,43,-1
 300 1309 l 1,40,-1
18 1200 m 1,44,-1
 -105 1200 l 1,45,-1
 -105 1309 l 1,46,-1
 18 1309 l 1,47,-1
 18 1200 l 1,44,-1
300 1309 m 1,48,-1
 -110 1309 l 1,49,-1
 -110 1438 l 1,50,-1
 300 1438 l 1,51,-1
 300 1309 l 1,48,-1
18 1200 m 1,52,-1
 -105 1200 l 1,53,-1
 -105 1309 l 1,54,-1
 18 1309 l 1,55,-1
 18 1200 l 1,52,-1
700 208 m 1,56,-1
 290 208 l 1,57,-1
 290 337 l 1,58,-1
 700 337 l 1,59,-1
 700 208 l 1,56,-1
418 99 m 1,60,-1
 294 99 l 1,61,-1
 294 208 l 1,62,-1
 418 208 l 1,63,-1
 418 99 l 1,60,-1
700 208 m 1,64,-1
 290 208 l 1,65,-1
 290 337 l 1,66,-1
 700 337 l 1,67,-1
 700 208 l 1,64,-1
418 99 m 1,68,-1
 294 99 l 1,69,-1
 294 208 l 1,70,-1
 418 208 l 1,71,-1
 418 99 l 1,68,-1
296 737 m 1,72,-1
 300 613 l 1,73,-1
 192 609 l 1,74,-1
 187 733 l 1,75,-1
 296 737 l 1,72,-1
176 1015 m 1,76,-1
 192 605 l 1,77,-1
 63 600 l 1,78,-1
 47 1010 l 1,79,-1
 176 1015 l 1,76,-1
1096 837 m 1,80,-1
 1100 713 l 1,81,-1
 992 709 l 1,82,-1
 987 833 l 1,83,-1
 1096 837 l 1,80,-1
976 1115 m 1,84,-1
 992 705 l 1,85,-1
 863 700 l 1,86,-1
 847 1110 l 1,87,-1
 976 1115 l 1,84,-1
EndSplineSet
EndChar

StartChar: ae
Encoding: 230 230 268
Width: 1234
Flags: W
LayerCount: 2
Fore
SplineSet
243 1422 m 1,0,-1
 243 -442 l 1,1,-1
 162 -442 l 1,2,-1
 162 1422 l 1,3,-1
 243 1422 l 1,0,-1
243 1422 m 1,4,-1
 243 -442 l 1,5,-1
 115 -442 l 1,6,-1
 115 1422 l 1,7,-1
 243 1422 l 1,4,-1
200 1400 m 1,8,-1
 1086 1000 l 1,9,-1
 1100 400 l 1,10,-1
 200 800 l 1,11,-1
 200 1400 l 1,8,-1
324 1265 m 1,12,-1
 326 867 l 1,13,-1
 1000 530 l 1,14,-1
 1000 914 l 1,15,-1
 324 1265 l 1,12,-1
EndSplineSet
EndChar

StartChar: ccedilla
Encoding: 231 231 269
Width: 1222
Flags: W
LayerCount: 2
Fore
SplineSet
297 1837 m 1,0,-1
 365 1569 l 1,1,-1
 169 1620 l 1,2,-1
 169 1331 l 1,3,-1
 376 1397 l 1,4,-1
 357 905 l 1,5,-1
 579 900 l 1,6,-1
 542 1386 l 1,7,-1
 735 1331 l 1,8,-1
 735 1650 l 1,9,-1
 523 1569 l 1,10,-1
 583 1837 l 1,11,-1
 297 1837 l 1,0,-1
45 756 m 1,12,-1
 45 400 l 1,13,-1
 915 400 l 1,14,-1
 915 759 l 1,15,-1
 926 963 l 1,16,-1
 1021 1100 l 1,17,-1
 804 1170 l 1,18,-1
 804 1000 l 1,19,-1
 706 897 l 1,20,-1
 678 1000 l 1,21,-1
 720 1200 l 1,22,-1
 517 1200 l 1,23,-1
 551 1029 l 1,24,-1
 466 900 l 1,25,-1
 391 900 l 1,26,-1
 382 1029 l 1,27,-1
 466 1235 l 1,28,-1
 165 1200 l 1,29,-1
 259 1041 l 1,30,-1
 190 933 l 1,31,-1
 68 1200 l 1,32,-1
 -100 1109 l 1,33,-1
 44 900 l 1,34,-1
 45 756 l 1,12,-1
EndSplineSet
EndChar

StartChar: egrave
Encoding: 232 232 270
Width: 1234
Flags: W
LayerCount: 2
Fore
SplineSet
200 -400 m 1,0,-1
 200 -100 l 1,1,-1
 0 -100 l 1,2,-1
 0 100 l 1,3,-1
 476 100 l 1,4,-1
 436 159 l 1,5,6
 400 300 400 300 600 500 c 1,7,-1
 900 468 l 1,8,9
 1110 284 1110 284 1079 157 c 1,10,-1
 1034 100 l 1,11,-1
 1200 100 l 1,12,-1
 1209 -102 l 1,13,-1
 1000 -100 l 1,14,-1
 1000 -400 l 1,15,-1
 200 -400 l 1,0,-1
773 845 m 0,16,17
 816 845 816 845 857 823 c 128,-1,18
 898 801 898 801 921.5 759.5 c 128,-1,19
 945 718 945 718 945 672 c 0,20,21
 945 628 945 628 922.5 587 c 128,-1,22
 900 546 900 546 858.5 523 c 128,-1,23
 817 500 817 500 773 500 c 0,24,25
 728 500 728 500 687 523 c 128,-1,26
 646 546 646 546 623 587 c 128,-1,27
 600 628 600 628 600 672 c 0,28,29
 600 718 600 718 623 759.5 c 128,-1,30
 646 801 646 801 687.5 823 c 128,-1,31
 729 845 729 845 773 845 c 0,16,17
EndSplineSet
EndChar

StartChar: eacute
Encoding: 233 233 271
Width: 1228
Flags: W
LayerCount: 2
Fore
SplineSet
100 1898 m 1,0,-1
 100 1061 l 1,1,-1
 289 1061 l 1,2,-1
 289 1898 l 1,3,-1
 100 1898 l 1,0,-1
100 920 m 1,4,-1
 100 -204 l 1,5,-1
 289 -204 l 1,6,-1
 289 920 l 1,7,-1
 100 920 l 1,4,-1
100 -378 m 1,8,-1
 100 -492 l 1,9,-1
 289 -492 l 1,10,-1
 289 -378 l 1,11,-1
 100 -378 l 1,8,-1
500 1872 m 1,12,-1
 500 753 l 1,13,-1
 689 753 l 1,14,-1
 689 1872 l 1,15,-1
 500 1872 l 1,12,-1
500 595 m 1,16,-1
 500 -338 l 1,17,-1
 689 -338 l 1,18,-1
 689 595 l 1,19,-1
 500 595 l 1,16,-1
900 1898 m 1,20,-1
 900 1061 l 1,21,-1
 1089 1061 l 1,22,-1
 1089 1898 l 1,23,-1
 900 1898 l 1,20,-1
900 944 m 1,24,-1
 900 -179 l 1,25,-1
 1089 -179 l 1,26,-1
 1089 944 l 1,27,-1
 900 944 l 1,24,-1
900 -341 m 1,28,-1
 900 -489 l 1,29,-1
 1089 -489 l 1,30,-1
 1089 -341 l 1,31,-1
 900 -341 l 1,28,-1
0 1896 m 1,32,-1
 1234 1896 l 1,33,-1
 1234 -492 l 1,34,-1
 0 -492 l 1,35,-1
 0 1896 l 1,32,-1
EndSplineSet
EndChar

StartChar: ecircumflex
Encoding: 234 234 272
Width: 1234
Flags: W
LayerCount: 2
Fore
SplineSet
200 0 m 1,0,-1
 559 748 l 1,1,-1
 554 1047 l 1,2,-1
 200 1047 l 1,3,-1
 200 1197 l 1,4,-1
 499 1197 l 1,5,-1
 799 1197 l 1,6,-1
 1098 1197 l 1,7,-1
 1098 1047 l 1,8,-1
 799 1047 l 1,9,-1
 796 750 l 1,10,-1
 1098 0 l 1,11,-1
 948 0 l 1,12,-1
 689 599 l 1,13,-1
 350 0 l 1,14,-1
 200 0 l 1,0,-1
687 1574 m 128,-1,16
 874 1574 874 1574 874 1387 c 128,-1,17
 874 1200 874 1200 687 1200 c 128,-1,18
 500 1200 500 1200 500 1387 c 128,-1,15
 500 1574 500 1574 687 1574 c 128,-1,16
EndSplineSet
EndChar

StartChar: edieresis
Encoding: 235 235 273
Width: 1228
Flags: W
LayerCount: 2
Fore
SplineSet
0 1901 m 1,0,-1
 1234 1901 l 1,1,-1
 1234 -473 l 1,2,-1
 0 -473 l 1,3,-1
 0 1901 l 1,0,-1
1100 1767 m 1,4,-1
 100 1767 l 1,5,-1
 100 -319 l 1,6,-1
 1100 -319 l 1,7,-1
 1100 1767 l 1,4,-1
EndSplineSet
EndChar

StartChar: igrave
Encoding: 236 236 274
Width: 1234
Flags: W
LayerCount: 2
Fore
SplineSet
1127 1077 m 1,0,-1
 1127 200 l 1,1,-1
 500 200 l 1,2,-1
 500 1077 l 1,3,-1
 1127 1077 l 1,0,-1
663 325 m 1,4,-1
 954 325 l 1,5,-1
 954 1202 l 1,6,-1
 663 1202 l 1,7,-1
 663 325 l 1,4,-1
EndSplineSet
EndChar

StartChar: iacute
Encoding: 237 237 275
Width: 1234
Flags: W
LayerCount: 2
Fore
SplineSet
500 325 m 1,0,-1
 500 1202 l 1,1,-1
 1127 1202 l 1,2,-1
 1127 325 l 1,3,-1
 500 325 l 1,0,-1
964 1077 m 1,4,-1
 673 1077 l 1,5,-1
 673 200 l 1,6,-1
 964 200 l 1,7,-1
 964 1077 l 1,4,-1
EndSplineSet
EndChar

StartChar: icircumflex
Encoding: 238 238 276
Width: 1234
Flags: W
LayerCount: 2
Fore
SplineSet
1189 388 m 1,0,-1
 313 387 l 1,1,-1
 312 1014 l 1,2,-1
 1189 1015 l 1,3,-1
 1189 388 l 1,0,-1
438 852 m 1,4,-1
 438 560 l 1,5,-1
 1315 561 l 1,6,-1
 1315 852 l 1,7,-1
 438 852 l 1,4,-1
EndSplineSet
EndChar

StartChar: idieresis
Encoding: 239 239 277
Width: 1234
Flags: W
LayerCount: 2
Fore
SplineSet
438 1015 m 1,0,-1
 1315 1014 l 1,1,-1
 1314 387 l 1,2,-1
 438 388 l 1,3,-1
 438 1015 l 1,0,-1
1189 550 m 1,4,-1
 1189 842 l 1,5,-1
 313 842 l 1,6,-1
 312 551 l 1,7,-1
 1189 550 l 1,4,-1
EndSplineSet
EndChar

StartChar: ocircumflex
Encoding: 244 244 278
Width: 1234
Flags: W
LayerCount: 2
Fore
SplineSet
100 166 m 1,0,1
 100 0 100 0 350 0 c 2,2,-1
 933 0 l 2,3,4
 1183 0 1183 0 1135 166 c 1,5,-1
 683 166 l 1,6,-1
 683 417 l 1,7,-1
 683 706 l 1,8,9
 850 750 850 750 933 583 c 1,10,-1
 1016 667 l 1,11,12
 933 833 933 833 683 833 c 2,13,-1
 516 833 l 2,14,15
 266 833 266 833 183 667 c 1,16,-1
 266 583 l 1,17,18
 350 750 350 750 516 713 c 1,19,-1
 516 417 l 1,20,-1
 516 166 l 1,21,-1
 100 166 l 1,0,1
EndSplineSet
EndChar

StartChar: Scaron
Encoding: 352 352 279
Width: 1233
Flags: W
LayerCount: 2
Fore
SplineSet
1233 1337 m 1,0,-1
 1233 1495 l 1,1,2
 898 1173 898 1173 603 1419 c 128,-1,3
 308 1665 308 1665 0 1501 c 1,4,-1
 0 1337 l 1,5,6
 308 1501 308 1501 600 1252 c 128,-1,7
 892 1003 892 1003 1233 1337 c 1,0,-1
1233 986 m 1,8,-1
 1233 1144 l 1,9,10
 898 822 898 822 603 1067.5 c 128,-1,11
 308 1313 308 1313 0 1150 c 1,12,-1
 0 986 l 1,13,14
 308 1150 308 1150 600 901 c 128,-1,15
 892 652 892 652 1233 986 c 1,8,-1
1233 575 m 1,16,-1
 1233 733 l 1,17,18
 898 411 898 411 603 656.5 c 128,-1,19
 308 902 308 902 0 738 c 1,20,-1
 0 575 l 1,21,22
 308 738 308 738 600 489.5 c 128,-1,23
 892 241 892 241 1233 575 c 1,16,-1
1233 200 m 1,24,-1
 1233 358 l 1,25,26
 898 36 898 36 603 281.5 c 128,-1,27
 308 527 308 527 0 363 c 1,28,-1
 0 200 l 1,29,30
 308 363 308 363 600 114.5 c 128,-1,31
 892 -134 892 -134 1233 200 c 1,24,-1
1233 -199 m 1,32,-1
 1233 -41 l 1,33,34
 898 -363 898 -363 603 -117.5 c 128,-1,35
 308 128 308 128 0 -35 c 1,36,-1
 0 -199 l 1,37,38
 308 -35 308 -35 600 -284 c 128,-1,39
 892 -533 892 -533 1233 -199 c 1,32,-1
EndSplineSet
EndChar

StartChar: ugrave
Encoding: 249 249 280
Width: 1234
Flags: W
LayerCount: 2
Fore
SplineSet
493 419 m 1,0,-1
 493 801 l 1,1,-1
 875 801 l 1,2,-1
 875 419 l 1,3,-1
 493 419 l 1,0,-1
EndSplineSet
EndChar

StartChar: uacute
Encoding: 250 250 281
Width: 1234
Flags: W
LayerCount: 2
Fore
SplineSet
493 419 m 1,0,-1
 493 609 l 1,1,-1
 683 609 l 1,2,-1
 683 419 l 1,3,-1
 493 419 l 1,0,-1
EndSplineSet
EndChar

StartChar: ucircumflex
Encoding: 251 251 282
Width: 1234
Flags: W
LayerCount: 2
Fore
SplineSet
0 1626 m 1,0,-1
 0 0 l 1,1,-1
 1062 0 l 1,2,-1
 1062 1626 l 1,3,-1
 0 1626 l 1,0,-1
66 1563 m 1,4,-1
 1000 1563 l 1,5,-1
 1000 100 l 1,6,-1
 66 100 l 1,7,-1
 66 1563 l 1,4,-1
267 1400 m 1,8,-1
 267 1300 l 1,9,-1
 800 1300 l 1,10,-1
 800 1400 l 1,11,-1
 267 1400 l 1,8,-1
267 1100 m 1,12,-1
 267 1000 l 1,13,-1
 800 1000 l 1,14,-1
 800 1100 l 1,15,-1
 267 1100 l 1,12,-1
200 800 m 1,16,-1
 200 700 l 1,17,-1
 868 700 l 1,18,-1
 868 800 l 1,19,-1
 200 800 l 1,16,-1
200 500 m 1,20,-1
 200 400 l 1,21,-1
 868 400 l 1,22,-1
 868 500 l 1,23,-1
 200 500 l 1,20,-1
EndSplineSet
EndChar

StartChar: udieresis
Encoding: 252 252 283
Width: 1234
Flags: W
LayerCount: 2
Fore
SplineSet
62 -31 m 1,0,-1
 203 166 l 1,1,2
 62 371 62 371 62 641 c 0,3,4
 62 948 62 948 212.5 1131 c 128,-1,5
 363 1314 363 1314 615 1314 c 0,6,7
 810 1314 810 1314 945 1207 c 1,8,-1
 1021 1314 l 1,9,-1
 1172 1314 l 1,10,-1
 1032 1117 l 1,11,12
 1172 910 1172 910 1172 641 c 0,13,14
 1172 335 1172 335 1021.5 152 c 128,-1,15
 871 -31 871 -31 620 -31 c 0,16,17
 428 -31 428 -31 288 75 c 1,18,-1
 212 -31 l 1,19,-1
 62 -31 l 1,0,-1
322 333 m 1,20,-1
 845 1067 l 1,21,22
 754 1166 754 1166 618 1166 c 0,23,24
 453 1166 453 1166 362.5 1031 c 128,-1,25
 272 896 272 896 272 652 c 0,26,27
 272 473 272 473 322 333 c 1,20,-1
913 950 m 1,28,-1
 388 216 l 1,29,30
 480 117 480 117 619 117 c 0,31,32
 784 117 784 117 873.5 254 c 128,-1,33
 963 391 963 391 963 644 c 0,34,35
 963 806 963 806 913 950 c 1,28,-1
EndSplineSet
EndChar

StartChar: glyph284
Encoding: 162 162 284
Width: 1234
Flags: W
LayerCount: 2
Fore
SplineSet
300 1400 m 1,0,-1
 900 1400 l 1,1,-1
 900 900 l 1,2,-1
 300 900 l 1,3,-1
 300 1400 l 1,0,-1
400 1300 m 1,4,-1
 400 1000 l 1,5,-1
 800 1000 l 1,6,-1
 800 1300 l 1,7,-1
 400 1300 l 1,4,-1
658 900 m 1,8,-1
 658 -90 l 1,9,-1
 538 -90 l 1,10,-1
 538 900 l 1,11,-1
 658 900 l 1,8,-1
658 900 m 1,12,-1
 658 -90 l 1,13,-1
 538 -90 l 1,14,-1
 538 900 l 1,15,-1
 658 900 l 1,12,-1
663 1486 m 1,16,-1
 663 1400 l 1,17,-1
 543 1400 l 1,18,-1
 543 1486 l 1,19,-1
 663 1486 l 1,16,-1
EndSplineSet
EndChar
